<svg width="242" height="68" xmlns="http://www.w3.org/2000/svg" p-id="2594" version="1.1" class="icon" t="1662024851869">

 <g>
  <title>Layer 1</title>
  <g stroke="null" id="svg_3">
   <path stroke="null" id="svg_1" fill="#206bc4" p-id="2595" d="m67.40371,4.4849l-55.77633,0c-3.07796,0 -5.58852,2.50278 -5.59629,5.57297c-0.02332,0.20986 -0.03109,0.42749 -0.03109,0.63735l0,47.22645c0,0.21763 0.00777,0.42749 0.03109,0.64513c0.01555,3.07019 2.51833,5.57297 5.59629,5.57297l0.35754,0c0.07773,0 0.15545,0.00777 0.23318,0.00777l2.25406,0c0.07773,0 0.15545,0 0.23318,-0.00777l52.69838,0c3.08573,0 5.59629,-2.51056 5.59629,-5.59629l0,-48.4623c0,-3.08573 -2.51056,-5.59629 -5.59629,-5.59629zm-17.09977,5.59629l0,48.47007l-11.85325,0l0,-48.47007l11.85325,0zm-36.95882,19.20615c-1.54675,0 -2.79814,-1.25139 -2.79814,-2.79814s1.25139,-2.79814 2.79814,-2.79814s2.79814,1.25139 2.79814,2.79814s-1.25139,2.79814 -2.79814,2.79814zm0,-9.19501c-1.54675,0 -2.79814,-1.25139 -2.79814,-2.79814s1.25139,-2.79814 2.79814,-2.79814s2.79814,1.25139 2.79814,2.79814s-1.25139,2.79814 -2.79814,2.79814zm7.31404,-10.01114l12.20302,0l0,48.47007l-12.20302,0c0.02332,-0.20209 0.03109,-0.41195 0.03109,-0.61404l0,-47.23422c0,-0.20986 -0.01555,-0.41972 -0.03109,-0.62181zm46.74455,48.47007l-11.50348,0l0,-48.47007l11.50348,0l0,48.47007z"/>
   <path stroke="null" id="svg_2" fill="#206bc4" p-id="2596" d="m24.01694,14.45717l5.59629,0l0,9.32715l-5.59629,0l0,-9.32715zm17.56613,0l5.59629,0l0,9.32715l-5.59629,0l0,-9.32715zm17.20858,0l5.59629,0l0,9.32715l-5.59629,0l0,-9.32715z"/>
  </g>
  <text fill="#4a4a4a" stroke-width="0" stroke-opacity="null" x="102.26875" y="47.45312" id="svg_4" font-size="36" font-family="'Trebuchet MS', Gadget, sans-serif" text-anchor="start" xml:space="preserve" stroke="null" font-weight="bold">NASTool</text>
 </g>
</svg>