<svg width="256" height="256" xmlns="http://www.w3.org/2000/svg" fill="none" stroke="null">
 <g stroke="null">
  <title stroke="null">Layer 1</title>
  <g id="svg_23">
   <rect width="256" height="256" rx="56" fill="#005fbf" id="svg_1" stroke="null" y="-0.80001" x="-1.60004"/>
   <g id="svg_30" stroke="null">
    <rect x="35.19967" y="54.59988" width="193.60039" height="135.52027" rx="13" fill="white" id="svg_2" stroke="null"/>
    <rect x="50.9297" y="70.32991" width="29.04006" height="104.06021" fill="#005fbf" id="svg_3" stroke="null"/>
    <rect x="54.55971" y="73.95992" width="21.78004" height="87.12017" fill="white" id="svg_4" stroke="null"/>
    <rect x="89.64978" y="70.32991" width="29.04006" height="104.06021" fill="#005fbf" id="svg_5" stroke="null"/>
    <rect x="93.27979" y="73.95992" width="21.78004" height="87.12017" fill="white" id="svg_10" stroke="null"/>
    <rect x="128.36986" y="70.32991" width="29.04006" height="104.06021" fill="#005fbf" id="svg_6" stroke="null"/>
    <rect x="131.99986" y="73.95992" width="21.78004" height="87.12017" fill="white" id="svg_11" stroke="null"/>
    <rect x="167.08993" y="70.32991" width="29.04006" height="104.06021" fill="#005fbf" id="svg_7" stroke="null"/>
    <rect x="170.71994" y="73.95992" width="21.78004" height="87.12017" fill="white" id="svg_12" stroke="null"/>
    <rect x="204.60001" y="161.08009" width="13.31003" height="12.10002" rx="2" fill="#005fbf" id="svg_8" stroke="null"/>
    <rect x="207.02001" y="139.30005" width="8.47002" height="15.73003" rx="2" fill="#005fbf" id="svg_9" stroke="null"/>
    <circle cx="181.60996" cy="155.03008" r="2.42001" fill="#005fbf" id="svg_13" stroke="null"/>
    <circle cx="142.88989" cy="155.03008" r="2.42001" fill="#005fbf" id="svg_14" stroke="null"/>
    <circle cx="104.16981" cy="155.03008" r="2.42001" fill="#005fbf" id="svg_15" stroke="null"/>
    <circle cx="65.44973" cy="155.03008" r="2.42001" fill="#005fbf" id="svg_16" stroke="null"/>
    <path d="m220.33004,83.03494c0,-1.00237 0.81312,-1.815 1.815,-1.815l6.65501,0l0,3.63001l-6.65501,0c-1.00188,0 -1.815,-0.81264 -1.815,-1.815l0,-0.00001z" fill="#005fbf" id="svg_17" stroke="null"/>
    <path d="m220.33004,92.71496c0,-1.00237 0.81312,-1.815 1.815,-1.815l6.65501,0l0,3.63001l-6.65501,0c-1.00188,0 -1.815,-0.81264 -1.815,-1.815l0,-0.00001z" fill="#005fbf" id="svg_18" stroke="null"/>
    <path d="m220.33004,102.39498c0,-1.00188 0.81312,-1.815 1.815,-1.815l6.65501,0l0,3.63001l-6.65501,0c-1.00188,0 -1.815,-0.81312 -1.815,-1.815l0,-0.00001z" fill="#005fbf" id="svg_19" stroke="null"/>
    <path d="m220.33004,112.075c0,-1.00188 0.81312,-1.815 1.815,-1.815l6.65501,0l0,3.63001l-6.65501,0c-1.00188,0 -1.815,-0.81312 -1.815,-1.815l0,-0.00001z" fill="#005fbf" id="svg_20" stroke="null"/>
   </g>
   <g id="svg_26" stroke="null">
    <rect x="48.24838" y="199.157" width="10.7298" height="12.5181" fill="#DFECF0" id="svg_21" transform="matrix(0.671694 0.671694 -0.671694 0.671694 139.511 18.7478)" stroke="null"/>
    <rect x="42.68488" y="202.445" width="13.9471" height="32.2498" fill="#F1FCFF" id="svg_22" transform="matrix(0.671694 0.671694 -0.671694 0.671694 140.171 23.3996)" stroke="null"/>
    <circle cx="72.88118" cy="182.086" r="30.2952" fill="#005fbf" stroke-width="2" id="svg_24" transform="matrix(0.671694 0.671694 -0.671694 0.671694 134.898 -2.54743)" stroke="white"/>
    <path d="m48.27085,158.67181l0,19.36313c0,0.98222 0.7985,1.7811 1.7811,1.7811l22.94641,0c0.9826,0 1.7811,-0.79888 1.7811,-1.7811l0,-19.36313c0,-0.98317 -0.7985,-1.78205 -1.7811,-1.78205l-22.94641,0c-0.9826,0 -1.7811,0.79603 -1.7811,1.78205l0,0zm10.1285,1.36503c1.60593,0 2.90912,1.30329 2.90912,2.9096c0,1.60536 -1.30319,2.90865 -2.90912,2.90865c-1.60593,0 -2.90912,-1.30329 -2.90912,-2.90865c0,-1.60631 1.30319,-2.9096 2.90912,-2.9096zm13.08512,16.17806l-19.9156,0c-0.4572,0 -0.74217,-0.49586 -0.51362,-0.89007l2.36596,-5.64061c0.9143,-1.58161 3.19999,-1.58161 4.11429,0l1.09535,1.89984c0.478,0.82548 1.6861,0.78083 2.09875,-0.07979l3.56818,-7.43311c0.64708,-1.34793 2.56772,-1.34793 3.21186,0.00285l4.50917,11.29263c0.18998,0.39137 -0.09794,0.84828 -0.53433,0.84828l-0.00001,-0.00002z" fill="white" id="svg_25" stroke="null"/>
   </g>
  </g>
 </g>

</svg>