<svg width="242.00000000000003" height="68" xmlns="http://www.w3.org/2000/svg" version="1.1">
 <g>
  <title>Layer 1</title>
  <path stroke="null" fill-rule="evenodd" fill="#1c6cc4" d="m28.05925,2.19303c-1.92122,0.10387 -4.23954,0.2852 -5.9295,0.46424c-0.89921,0.09526 -1.47362,0.16584 -3.20433,0.39365c-0.39423,0.05164 -0.86765,0.11363 -1.05185,0.13714c-1.95967,0.25192 -3.49355,0.71214 -5.22827,1.56945c-2.09969,1.03865 -3.97385,2.44686 -5.40444,4.06107c-0.42579,0.48087 -0.82633,0.917 -0.8906,0.96979c-0.06369,0.05221 -0.11592,0.11706 -0.11649,0.14346c0,0.02639 -0.26913,0.45677 -0.59795,0.95602c-1.30261,1.9809 -2.62074,5.30918 -2.59491,6.55155c0.00229,0.10501 -0.0373,0.42809 -0.08779,0.7173c-0.10157,0.57843 -0.34602,2.42447 -0.43038,3.25195c-0.02984,0.28921 -0.08148,0.67655 -0.11477,0.86076c-0.03328,0.18363 -0.05337,0.36554 -0.04533,0.40284c0.00803,0.0373 -0.04706,0.7259 -0.1228,1.53044c-0.13657,1.45813 -0.1601,1.79267 -0.34201,4.95282c-0.09239,1.60906 -0.13256,8.94217 -0.04992,9.19982c0.02181,0.06886 0.06369,0.74886 0.09239,1.5115c0.0287,0.76263 0.07402,1.6452 0.10099,1.96082c0.02697,0.31561 0.09468,1.15456 0.14977,1.86498c0.05566,0.70984 0.11764,1.42026 0.13772,1.57806c0.02008,0.15781 0.06428,0.58819 0.0987,0.95659c0.10157,1.10063 0.34258,2.90938 0.76953,5.78432c0.25363,1.7066 1.73931,4.76633 3.28065,6.7587c0.645,0.83322 2.80436,2.99832 2.99086,2.99832c0.0528,0 0.06829,0.04418 0.03501,0.09813c-0.03328,0.05394 -0.02525,0.08665 0.01836,0.07288c0.04361,-0.01377 0.509,0.2611 1.03521,0.61114c2.20585,1.46673 4.45931,2.34529 6.93372,2.70279c1.85981,0.26856 3.20319,0.45104 3.34779,0.45448c0.07862,0.00172 0.46596,0.04075 0.86076,0.08665c1.06849,0.12337 3.74087,0.35464 4.82945,0.41775c0.52621,0.03041 1.19359,0.08091 1.48281,0.1119c1.60906,0.17444 9.819,0.16756 12.05066,-0.00919c0.34144,-0.02754 1.07308,-0.07574 1.62569,-0.1073c0.55203,-0.03156 1.17638,-0.07231 1.38697,-0.09067c1.25097,-0.10789 2.68328,-0.25306 3.35181,-0.33971c0.42349,-0.05509 0.81083,-0.08952 0.86076,-0.07574c0.04992,0.01377 0.22036,-0.00345 0.37816,-0.03787c0.25421,-0.05509 0.54687,-0.09468 1.62569,-0.21978c8.10723,-0.9388 14.57326,-6.81321 15.67849,-14.24389c0.19396,-1.30377 0.64213,-4.73075 0.64442,-4.92527c0.00057,-0.07919 0.04246,-0.53081 0.09239,-1.00422c0.40054,-3.78448 0.69665,-10.71017 0.55777,-13.05489c-0.03902,-0.65762 -0.10387,-2.03484 -0.14461,-3.06029c-0.10099,-2.52376 -0.13543,-3.03792 -0.37472,-5.54732c-0.07231,-0.76263 -0.13313,-1.45125 -0.13428,-1.53044c-0.00345,-0.18535 -0.46882,-3.7116 -0.58073,-4.39907c-0.04649,-0.28979 -0.08436,-0.59105 -0.08321,-0.66967c0.00286,-0.25536 -0.48087,-1.94015 -0.77296,-2.69017c-2.29938,-5.90999 -7.6097,-10.22011 -13.63905,-11.06997c-2.82961,-0.39825 -4.8151,-0.63868 -5.9777,-0.72361c-0.34201,-0.02467 -1.18097,-0.09181 -1.86498,-0.1492c-3.13662,-0.26339 -11.25532,-0.36497 -14.63295,-0.18306m28.20257,12.82765c0.56294,0.16584 1.42083,1.04038 1.57462,1.60561c0.09067,0.33225 0.11132,3.40976 0.0901,13.50018l-0.02754,13.0698l-0.38275,0.55032c-0.58704,0.8447 -1.14022,1.1144 -2.40325,1.17006c-0.71156,0.03213 -0.9916,0.07862 -0.9916,0.16527c0,0.15264 -0.21748,0.237 -0.60598,0.23527c-0.36209,-0.00172 -0.59162,-0.12797 -0.50097,-0.27487c0.0482,-0.07805 -2.67123,-0.10616 -10.12083,-0.10616l-10.18683,0l0.5658,-0.78903c0.3116,-0.4344 0.68631,-1.05701 0.83265,-1.38468l0.26626,-0.59507l2.27127,-0.00229l2.27184,-0.00286l0,-12.32725c0,-11.1526 -0.01434,-12.33299 -0.1515,-12.38521c-0.08321,-0.03213 -1.47821,-0.05795 -3.10047,-0.05795c-1.62225,0 -3.01725,0.02582 -3.10047,0.05795c-0.136,0.05221 -0.1515,0.77756 -0.1515,7.22293l0,7.16555l-0.59736,-0.50671c-0.32881,-0.27888 -0.69434,-0.57442 -0.81256,-0.65647l-0.21462,-0.14977l-0.02467,-6.54293l-0.0241,-6.54293l-3.09702,-0.02525c-2.20585,-0.01779 -3.13489,0.00631 -3.22786,0.08321c-0.10846,0.0901 -0.13083,1.09718 -0.13083,5.78776c0,5.34016 -0.01033,5.67988 -0.16756,5.69135c-0.26799,0.01951 -0.52334,0.06657 -0.93249,0.17158c-0.2106,0.05394 -0.41489,0.09927 -0.45448,0.10042c-0.12452,0.00402 -0.08665,-12.16601 0.03902,-12.53613c0.26225,-0.7678 0.88429,-1.41969 1.59987,-1.67561c0.49006,-0.17503 31.30245,-0.19051 31.8958,-0.01607m-7.58102,2.5008c-0.07862,0.09526 -0.10099,3.40116 -0.08321,12.36169l0.0241,12.23142l3.22786,0.02525l3.22786,0.02525l0,-12.32897c0,-11.15374 -0.01434,-12.33414 -0.15092,-12.38636c-0.33914,-0.13026 -6.13322,-0.06369 -6.24569,0.07173m-8.07682,0.02927c-0.03501,0.03558 -0.06369,5.6093 -0.06369,12.38694l0,12.32266l3.22786,-0.02467l3.22786,-0.02525l0.0241,-12.23199c0.01779,-8.95996 -0.00459,-12.26643 -0.08321,-12.36111c-0.11477,-0.1383 -6.19691,-0.20199 -6.33291,-0.06657m-10.22068,0.24274c0.13026,0.12969 0.17272,12.55163 0.04304,12.49309c-0.03959,-0.01836 -0.32996,-0.16641 -0.64557,-0.32939c-1.19186,-0.61631 -2.68443,-0.9916 -4.14543,-1.04267c-0.50785,-0.01722 -0.95602,-0.03501 -0.99504,-0.03902c-0.16067,-0.01607 -0.08321,-10.88519 0.07862,-11.04644c0.19568,-0.19625 5.471,-0.22953 5.66438,-0.03558m24.30044,0.01492c0.07862,0.09468 0.10099,3.07751 0.08321,11.11817l-0.0241,10.98849l-2.88871,0.02525l-2.88814,0.02525l-0.05623,-0.31217c-0.14174,-0.78789 -0.00459,-21.78817 0.14231,-21.88113c0.24331,-0.15379 5.50199,-0.11994 5.63168,0.03615m-16.0796,11.00168c0.01779,8.04066 -0.00459,11.02348 -0.08378,11.11817c-0.08321,0.10099 -0.49465,0.13026 -1.82309,0.13026l-1.71579,0l0.06599,-0.89405c0.15724,-2.14214 -0.56868,-4.60795 -1.85695,-6.30823l-0.49293,-0.65073l0,-7.15178c0,-3.93368 0.02927,-7.18163 0.06542,-7.2172c0.03558,-0.03558 1.35943,-0.05394 2.94094,-0.03959l2.87552,0.02525l0.02467,10.9879m8.03779,-10.92135c0.16699,0.16699 0.16699,21.88802 0,22.05501c-0.12108,0.12108 -5.35795,0.17387 -5.66324,0.05681c-0.15838,-0.06083 -0.24503,-22.00566 -0.08779,-22.16288c0.12223,-0.12223 5.62651,-0.07345 5.75103,0.05107m10.34865,2.60581c0,0.11304 0.10501,0.14862 0.43842,0.14862c0.56409,0 0.53081,-0.22609 -0.03959,-0.26856c-0.30988,-0.02238 -0.39882,0.00402 -0.39882,0.11994m0.02353,1.3204c0.02296,0.06771 0.19855,0.11935 0.40685,0.11935c0.2083,0 0.3839,-0.05164 0.40628,-0.11935c0.02812,-0.08436 -0.09181,-0.11935 -0.40628,-0.11935c-0.31446,0 -0.43497,0.03501 -0.40685,0.11935m-0.02353,1.26704c0,0.1228 0.08378,0.14862 0.40628,0.12509c0.22379,-0.01607 0.40628,-0.07231 0.40628,-0.12509c0,-0.05221 -0.18248,-0.10846 -0.40628,-0.12509c-0.3225,-0.02296 -0.40628,0.00286 -0.40628,0.12509m0,1.24351c0,0.1228 0.08378,0.14862 0.40628,0.12509c0.22379,-0.01607 0.40628,-0.07231 0.40628,-0.12509c0,-0.0528 -0.18248,-0.10903 -0.40628,-0.12509c-0.3225,-0.02353 -0.40628,0.00229 -0.40628,0.12509m0.02353,1.31525c0.02296,0.06771 0.19855,0.11935 0.40685,0.11935c0.2083,0 0.3839,-0.05164 0.40628,-0.11935c0.02812,-0.08436 -0.09181,-0.11994 -0.40628,-0.11994c-0.31446,0 -0.43497,0.03558 -0.40685,0.11994m-30.58057,3.70873c0.76953,0.08665 1.23261,0.18478 1.67332,0.35349c0.07919,0.03041 0.22207,0.07 0.31848,0.08895c2.14559,0.41718 4.94479,3.25597 5.78489,5.86695c0.44128,1.37206 0.68803,3.88663 0.39882,4.06566c-0.05337,0.03328 -0.07345,0.09813 -0.04476,0.14461c0.10387,0.1687 -0.36497,1.78866 -0.76608,2.64311c-2.38603,5.08882 -8.92839,6.94749 -13.50133,3.83613l-0.49351,-0.33627l-0.43899,0.4453l-0.43842,0.4453l0.21519,0.21691l0.21462,0.21748l-0.43038,0.38964c-0.42923,0.38906 -3.66799,3.48149 -5.31721,5.07734l-0.87052,0.84239l-1.35312,-1.42657l-1.35312,-1.426l0.35866,-0.30586c0.31561,-0.26971 2.7837,-2.62589 5.3373,-5.09628c0.96462,-0.93249 0.94626,-0.92331 1.19186,-0.62319l0.17617,0.21519l0.42579,-0.41546l0.42521,-0.41489l-0.32766,-0.49351c-4.31414,-6.49129 1.04152,-15.1867 8.81477,-14.31044m-2.29536,0.8688c-0.26339,0.05337 -0.56466,0.10903 -0.66967,0.12395c-0.20428,0.02927 -0.24101,0.04189 -1.19531,0.39767c-4.6814,1.74505 -6.69902,7.69578 -4.10469,12.10633c3.42927,5.83137 12.04952,5.41706 14.9147,-0.71673c1.2349,-2.64368 0.92274,-6.26864 -0.72533,-8.42972c-0.12797,-0.16813 -0.20085,-0.3443 -0.16182,-0.39251c0.03902,-0.0482 0.04075,-0.06369 0.00402,-0.03558c-0.0373,0.0287 -0.4476,-0.31561 -0.91126,-0.76493c-1.89023,-1.82997 -4.8019,-2.7619 -7.15063,-2.28847m5.98803,4.55343c0.17444,0.10329 0.31446,0.29152 0.373,0.50211c0.12739,0.45965 0.12223,6.73689 -0.00631,7.19941c-0.1842,0.6645 -0.10215,0.65418 -5.16801,0.62434l-4.50293,-0.02639l-0.23126,-0.26856l-0.23069,-0.26856l0,-3.68406l0,-3.68406l0.28004,-0.27946l0.27946,-0.27946l4.46333,0c4.05476,0 4.48973,0.01492 4.74337,0.16469m5.21622,1.15744c-0.18478,0.20486 -0.20716,0.59852 -0.04304,0.76263c0.18134,0.18134 0.68344,0.13772 0.86592,-0.07517c0.40456,-0.47227 -0.40513,-1.14825 -0.82289,-0.68746m8.08828,-0.02582c-0.40972,0.28692 -0.20659,0.90322 0.29783,0.90322c0.37816,0 0.5417,-0.14576 0.5417,-0.4826c0,-0.47629 -0.443,-0.69837 -0.83953,-0.42063m8.07509,0.02582c-0.18478,0.20486 -0.20773,0.59852 -0.04361,0.76263c0.18708,0.18708 0.72476,0.14174 0.83838,-0.07c0.31619,-0.59048 -0.35635,-1.17638 -0.79477,-0.69263m4.56892,1.00422c-0.02639,0.06943 -0.03615,0.53253 -0.02065,1.02833l0.02754,0.90093l0.43038,0l0.43038,0l0.02754,-1.02775l0.02697,-1.02833l-0.43669,0c-0.2743,0 -0.45448,0.04706 -0.48547,0.12682m-32.80419,0.13772c-0.32135,0.21978 -0.11935,0.78731 0.28004,0.78731c0.26913,0 0.44415,-0.16929 0.44415,-0.43038c0,-0.35635 -0.42178,-0.56409 -0.72419,-0.35693m2.4767,0.81141c-0.16125,0.17101 -0.4671,0.61229 -0.68,0.98012c-0.67484,1.16662 -0.93306,1.31926 -1.37779,0.81314c-0.57442,-0.65475 -1.29172,-0.09985 -2.03025,1.56945l-0.23643,0.53482l4.05763,0l4.05706,0l-0.1142,-0.26339c-0.70296,-1.6188 -2.49391,-3.94516 -3.03792,-3.94516c-0.26511,0 -0.41259,0.07173 -0.63811,0.31102m29.96368,2.89733c-0.09468,0.24675 -0.06886,1.09087 0.03959,1.29344c0.08321,0.15493 0.20428,0.18478 0.75345,0.18478c0.82231,0 0.88659,-0.07 0.84986,-0.92389l-0.0287,-0.65418l-0.77756,-0.02754c-0.645,-0.02296 -0.78731,-0.00115 -0.83667,0.12739" id="path1"/>
  <text transform="matrix(1.10518 0 0 1.10518 -8.1549 -1.17012)" stroke="null" font-weight="bold" xml:space="preserve" text-anchor="start" font-family="'Trebuchet MS', Gadget, sans-serif" font-size="36" id="svg_1" y="44.92784" x="84.2367" stroke-opacity="null" stroke-width="0" fill="#4a4a4a">NASTool</text>
 </g>

</svg>