<svg width="232" height="68" xmlns="http://www.w3.org/2000/svg">
 <g>
  <title>background</title>
  <rect x="-1" y="-1" width="66.804326" height="20.994371" id="canvas_background" fill="none"/>
 </g>

 <g>
  <title>Layer 1</title>
  <path d="m64.6,16.2c-1.6,-6.3 -6.5,-11.2 -12.8,-12.8c-11.8,-1.9 -23.8,-1.9 -35.6,0c-6.3,1.6 -11.2,6.5 -12.8,12.8c-1.9,11.8 -1.9,23.8 0,35.6c1.6,6.3 6.5,11.2 12.8,12.8c11.8,1.9 23.8,1.9 35.6,0c6.3,-1.6 11.2,-6.5 12.8,-12.8c1.9,-11.8 1.9,-23.8 0,-35.6zm-31.3,20.1c-2.8,4.4 -6.6,8.2 -11.1,11c-1.5,0.9 -3.3,0.9 -4.8,0.1s-2.4,-2.3 -2.5,-4c0,-1.7 0.9,-3.3 2.4,-4.1c2.3,-1.4 4.4,-3.2 6.1,-5.3c-1.8,-2.1 -3.8,-3.8 -6.1,-5.3c-2.3,-1.3 -3,-4.2 -1.7,-6.4s4.3,-2.9 6.5,-1.6c4.5,2.8 8.2,6.5 11.1,10.9c1,1.4 1,3.3 0.1,4.7zm15.9,9.7l-11.4,0c-2.1,0 -3.8,-1 -3.8,-3s1.7,-3 3.8,-3l11.4,0c2.1,0 3.8,1 3.8,3s-1.7,3 -3.8,3z" fill="#fff" id="svg_1"/>
  <text fill="#ffffff" stroke-width="0" x="92.798202" y="37.026376" id="svg_3" font-size="24" font-family="Georgia, Times, 'Times New Roman', serif" text-anchor="start" xml:space="preserve" transform="matrix(1.4947649754743542,0,0,1.4947649754743542,-48.39143994193197,-7.9734385150555) " font-weight="normal">NASTool</text>
 </g>
</svg>