<svg width="256" height="256" xmlns="http://www.w3.org/2000/svg" version="1.1">

 <g>
  <title>Layer 1</title>
  <path stroke="null" fill-rule="evenodd" fill="#1c6bc4" d="m117.42147,0.14354c-0.76247,0.0435 -2.83367,0.11322 -4.60295,0.15416c-1.76928,0.04094 -3.35243,0.09147 -3.5181,0.11194c-0.16567,0.02047 -0.78102,0.04478 -1.36758,0.05437c-0.58592,0.00959 -1.52174,0.05885 -2.07888,0.10938c-0.55714,0.05053 -1.90041,0.12345 -2.98463,0.16183c-1.08485,0.03838 -1.99636,0.08379 -2.02642,0.10171c-0.02942,0.01727 -0.60511,0.06205 -1.27931,0.09851c-0.67356,0.0371 -1.46545,0.08763 -1.75841,0.11258c-0.29296,0.02495 -1.10852,0.0742 -1.81214,0.11002c-0.70362,0.03582 -1.35159,0.08316 -1.43922,0.1049c-0.08827,0.02175 -0.59168,0.0678 -1.11939,0.10234c-0.52771,0.03454 -1.22366,0.09211 -1.54604,0.12793c-0.32239,0.03518 -0.70618,0.06205 -0.85266,0.05949c-0.14648,-0.00256 -0.60255,0.03582 -1.01321,0.08635c-0.41002,0.05053 -1.24988,0.12089 -1.86523,0.15672c-0.61599,0.03518 -1.3356,0.1049 -1.59914,0.15416c-0.26418,0.04925 -0.64797,0.09531 -0.8533,0.10171c-0.20533,0.00704 -0.87697,0.06716 -1.49231,0.13433c-0.61599,0.06716 -1.26204,0.11514 -1.43666,0.10746c-0.17463,-0.00768 -0.48614,0.02942 -0.69275,0.08316c-0.20661,0.05373 -0.87952,0.12921 -1.49551,0.16823c-0.61535,0.03902 -1.14882,0.08891 -1.18464,0.11066c-0.07228,0.04414 -1.5454,0.21492 -2.70638,0.31343c-0.41066,0.03518 -1.01001,0.10554 -1.3324,0.15735c-0.76247,0.12153 -1.95159,0.25842 -2.04689,0.23539c-0.04158,-0.00959 -0.31535,0.02814 -0.60959,0.08379c-0.29424,0.05565 -0.83603,0.12921 -1.20447,0.16311c-0.36844,0.0339 -0.78997,0.08763 -0.93645,0.11898c-0.14648,0.03134 -0.45863,0.07676 -0.69339,0.10043c-0.23411,0.02367 -0.97803,0.11898 -1.65223,0.21173c-0.6742,0.09211 -1.70596,0.23347 -2.29188,0.31343c-2.45307,0.33454 -3.78803,0.53347 -4.15775,0.61855c-0.1177,0.02751 -0.52516,0.08316 -0.90639,0.12473c-0.38123,0.04158 -0.89232,0.11834 -1.13539,0.17079c-0.24371,0.05245 -0.69978,0.12281 -1.01321,0.15735c-0.31343,0.0339 -0.64157,0.08699 -0.72985,0.11706c-0.08827,0.03006 -0.37036,0.07932 -0.6275,0.1081c-0.25714,0.02942 -1.21662,0.26738 -2.13197,0.52899c-0.91598,0.26162 -1.73986,0.49317 -1.83133,0.51428c-0.16823,0.03902 -1.72579,0.55458 -2.01875,0.66844c-0.08827,0.03454 -0.20789,0.0742 -0.26674,0.08827c-0.11386,0.02751 -2.05841,0.75159 -2.50553,0.93262c-0.14648,0.05949 -0.31727,0.11898 -0.37868,0.13241c-0.06205,0.01343 -0.32303,0.12601 -0.58017,0.2501c-0.2565,0.12409 -0.50533,0.2258 -0.55202,0.2258c-0.4356,0 -7.06626,3.30126 -8.38203,4.17374c-0.25266,0.16695 -0.48614,0.30384 -0.5194,0.30384c-0.10618,0 -1.3663,0.78486 -1.4034,0.87377c-0.01919,0.04733 -0.08379,0.08571 -0.142,0.08571c-0.05885,0 -0.9307,0.55842 -1.93687,1.24029c-1.96886,1.33496 -1.94263,1.31577 -3.21618,2.30595c-0.46887,0.3646 -0.90063,0.69786 -0.95948,0.74008c-0.14648,0.10682 -2.10382,1.70916 -2.2503,1.8422c-0.06461,0.05949 -0.4727,0.41897 -0.90575,0.79829c-1.87419,1.64199 -4.61638,4.38739 -6.0652,6.07224c-0.32303,0.37548 -0.65437,0.75031 -0.73688,0.83347c-0.40874,0.41322 -1.78208,2.17482 -3.71831,4.77054c-1.32153,1.77248 -3.2213,4.77566 -4.45007,7.0362c-1.09573,2.01619 -3.03388,5.98588 -3.09721,6.34345c-0.01535,0.08955 -0.25458,0.67356 -0.41386,1.01257c-0.12601,0.26929 -0.22196,0.50597 -0.32367,0.79957c-0.01023,0.02942 -0.05693,0.14968 -0.10426,0.26674c-0.16951,0.41897 -0.67867,1.81982 -0.81428,2.23879c-0.07548,0.23475 -0.1759,0.47206 -0.2226,0.52771c-0.04669,0.05565 -0.08507,0.19957 -0.08571,0.31983c0,0.12026 -0.06716,0.34605 -0.14776,0.50149c-0.08124,0.15544 -0.25522,0.65948 -0.38571,1.11939c-0.33966,1.19359 -0.64221,2.18314 -0.75479,2.46715c-0.05309,0.13497 -0.09659,0.36588 -0.09659,0.51364c0,0.14776 -0.04669,0.35501 -0.10298,0.46055c-0.05693,0.10554 -0.12665,0.40234 -0.15544,0.65948c-0.02878,0.2565 -0.12793,0.92238 -0.22004,1.47952c-0.20277,1.22942 -0.23539,1.4437 -0.3678,2.41086c-0.05693,0.41641 -0.13113,0.89616 -0.16439,1.06566c-0.03262,0.16951 -0.12729,0.81172 -0.21045,1.42771c-0.08252,0.61535 -0.17207,1.21534 -0.19829,1.3324c-0.02687,0.1177 -0.0806,0.54946 -0.11962,0.95948c-0.03902,0.41066 -0.11898,0.89935 -0.17846,1.08677c-0.05885,0.18678 -0.09531,0.40298 -0.0806,0.47974c0.03518,0.18486 -0.21684,2.2631 -0.3403,2.80488c-0.05309,0.23411 -0.12153,0.742 -0.1516,1.12771c-0.02942,0.38507 -0.09659,0.93709 -0.1484,1.22558c-0.05245,0.28848 -0.09531,0.5968 -0.09659,0.68507c-0.00128,0.08763 -0.05501,0.59168 -0.11962,1.11939c-0.21492,1.75585 -0.33134,2.76203 -0.44008,3.78419c-0.05885,0.55714 -0.12665,1.08485 -0.15096,1.17313c-0.02431,0.08763 -0.07484,0.63965 -0.11194,1.22558c-0.03774,0.58656 -0.11578,1.24861 -0.17335,1.47184c-0.05821,0.22324 -0.09403,0.48742 -0.0806,0.58656c0.02303,0.16567 -0.04094,0.94349 -0.18998,2.31299c-0.08252,0.75863 -0.14136,1.39637 -0.19765,2.13197c-0.02623,0.35181 -0.10362,1.19104 -0.17207,1.86587c-0.0678,0.6742 -0.14008,1.46545 -0.16055,1.75905c-0.08124,1.15266 -0.25266,3.3294 -0.29872,3.78419c-0.02623,0.26418 -0.09979,1.34327 -0.16247,2.3987c-0.17015,2.85286 -0.21492,3.49635 -0.2597,3.73174c-0.02175,0.11706 -0.07356,1.12323 -0.1145,2.23559c-0.0403,1.11236 -0.09339,2.05457 -0.11706,2.09359c-0.02431,0.03838 -0.06461,0.78358 -0.09083,1.65479c-0.02559,0.87185 -0.0742,2.13645 -0.10746,2.81128c-0.03326,0.6742 -0.08379,1.99316 -0.11258,2.93154c-0.02814,0.93837 -0.08827,2.90531 -0.13369,4.37076c-0.10554,3.45093 -0.10554,19.21138 0,22.3879c0.04542,1.34903 0.10554,3.22002 0.13433,4.15775c0.02878,0.93837 0.08252,2.35329 0.11898,3.14518c0.0371,0.79125 0.0806,1.8953 0.09595,2.45179c0.01599,0.55714 0.05693,1.397 0.09147,1.86587c0.0339,0.46887 0.08827,1.45265 0.11962,2.1857c0.03134,0.73304 0.10234,1.90809 0.15863,2.61171c0.05565,0.70362 0.15224,2.21512 0.21556,3.35818c0.06269,1.14306 0.13817,2.24647 0.16759,2.45179c0.05309,0.3742 0.26546,3.00446 0.2661,3.30509c0.00064,0.08763 0.04542,0.54371 0.09979,1.01257c0.05437,0.46951 0.12473,1.28507 0.15672,1.81278c0.03198,0.52771 0.08891,1.22302 0.12665,1.5454c0.0371,0.32239 0.07676,0.70682 0.08891,0.8533c0.03518,0.44968 0.15863,1.72707 0.2258,2.34497c0.03518,0.32239 0.06141,0.6582 0.05885,0.74648c-0.00256,0.08763 0.0371,0.39978 0.08891,0.69275c0.05181,0.2936 0.12409,0.96524 0.16055,1.49295c0.03646,0.52771 0.08635,1.0791 0.1113,1.22558c0.02559,0.14712 0.09275,0.70618 0.15032,1.24285c0.15032,1.41492 0.20981,1.95542 0.26738,2.43516c0.09211,0.7695 0.27249,2.23239 0.31599,2.55862c0.13625,1.0292 0.39786,3.0326 0.43113,3.30637c0.02175,0.17654 0.09531,0.72857 0.16311,1.22622c0.0678,0.49765 0.12026,1.00042 0.11578,1.11812c-0.00448,0.11706 0.03646,0.35693 0.09083,0.53283c0.05437,0.1759 0.13049,0.65565 0.16951,1.0663c0.03902,0.41002 0.09211,0.84179 0.1177,0.95948c0.07996,0.36972 0.23539,1.46609 0.30959,2.18506c0.03902,0.38123 0.08891,0.72409 0.11066,0.76119c0.02175,0.03774 0.11386,0.58976 0.20469,1.22622c0.09083,0.6371 0.23219,1.56523 0.31407,2.06416c0.08188,0.49829 0.17782,1.09765 0.213,1.3324c0.03518,0.23475 0.08699,0.53411 0.11514,0.66588c0.02814,0.13177 0.05181,0.25138 0.05181,0.26674c0.00704,0.22196 1.39317,4.8198 1.58314,5.25092c0.05181,0.11706 0.3,0.78869 0.55138,1.49231c0.25202,0.70362 0.52196,1.43474 0.6,1.62536c0.07804,0.18998 0.14584,0.38187 0.15032,0.42665c0.00448,0.04414 0.071,0.20021 0.14712,0.34669c0.07676,0.14648 0.43688,0.95628 0.80085,1.79999c1.01129,2.34113 2.87589,5.97565 3.83601,7.475c0.05629,0.08763 0.25906,0.4356 0.45032,0.7727c0.19126,0.3371 0.38443,0.61343 0.42985,0.61343c0.04478,0 0.08188,0.05053 0.08188,0.11258c0,0.06205 0.34413,0.62558 0.76439,1.25244c0.42025,0.62686 0.884,1.32025 1.03176,1.53965c0.14712,0.22004 0.30703,0.39978 0.35501,0.39978c0.04797,0 0.08763,0.05373 0.08763,0.11898c0,0.15032 0.49189,0.83283 1.91385,2.65329c1.11428,1.42643 1.40916,1.78719 1.92408,2.35201c0.14648,0.16055 0.45863,0.52324 0.69275,0.80596c1.34072,1.61321 4.05029,4.29336 6.98311,6.90763c0.53347,0.47526 2.09487,1.73858 2.71853,2.19977c0.35181,0.26034 0.66396,0.50213 0.69275,0.53731c0.1177,0.14264 2.83431,2.05457 3.96522,2.79017c2.78761,1.81534 6.54302,3.89677 8.98778,4.98163c0.2936,0.13049 0.84498,0.38059 1.22622,0.5565c0.38123,0.17654 1.24477,0.53283 1.91896,0.79317c1.49103,0.57569 2.01299,0.78038 2.29188,0.90063c0.33966,0.1452 3.37865,1.14114 4.06628,1.33176c0.34349,0.09595 0.86481,0.24499 1.15777,0.33262c1.19871,0.35693 1.70404,0.46439 3.41128,0.72601c0.52771,0.08124 1.43922,0.22196 2.02579,0.31343c0.88528,0.13753 2.60403,0.39083 3.65115,0.53795c0.13177,0.01855 0.41961,0.06077 0.63965,0.09339c0.22004,0.03326 0.65884,0.08955 0.97611,0.12537c0.31663,0.03582 0.67611,0.08891 0.79957,0.1177c0.12281,0.02878 0.39147,0.06908 0.5968,0.09083c0.20469,0.02111 0.73304,0.09403 1.17249,0.16183c0.44008,0.0678 0.99146,0.13944 1.22622,0.15927c0.36077,0.02942 1.03944,0.11642 3.30445,0.42217c0.1759,0.02367 0.72793,0.09083 1.22622,0.14968c0.49829,0.05821 1.53005,0.18038 2.29188,0.27121c0.76247,0.09083 1.69764,0.1919 2.07888,0.22388c0.38123,0.03262 0.76503,0.07804 0.8533,0.10107c0.08763,0.02303 0.56737,0.071 1.06566,0.10618c0.49829,0.03518 1.15202,0.11194 1.45202,0.17079c0.3,0.05885 0.58784,0.09595 0.63965,0.08252c0.09531,-0.02431 1.64199,0.10682 2.226,0.1887c0.1759,0.02495 0.53603,0.06588 0.79957,0.09083c0.26418,0.02431 0.69594,0.06972 0.95948,0.10043c0.26418,0.0307 0.91151,0.08252 1.43922,0.11514c0.79829,0.04861 1.97397,0.16439 2.1857,0.21492c0.02942,0.00704 0.67675,0.05117 1.43922,0.09851c0.76247,0.04733 1.50575,0.10298 1.65223,0.12409c0.40042,0.05629 4.55114,0.34861 5.22406,0.3678c0.32239,0.00959 1.01833,0.05693 1.54604,0.10554c0.52771,0.04861 1.63112,0.11642 2.45179,0.1516c0.82068,0.03518 2.11598,0.1049 2.87844,0.15544c0.76247,0.05053 1.55372,0.08955 1.75905,0.08699c0.3403,-0.00448 1.93623,0.06269 4.5844,0.1919c3.03516,0.1484 7.75709,0.20917 16.25745,0.20917c9.99588,0 13.05918,-0.05565 19.13654,-0.34541c0.90895,-0.04286 1.74818,-0.06908 1.86587,-0.05821c0.11706,0.01087 0.813,-0.02367 1.5454,-0.07804c0.73304,-0.05373 2.10062,-0.12601 3.03836,-0.16055c0.93837,-0.03454 1.87355,-0.08699 2.07888,-0.11642c0.20533,-0.02942 0.75735,-0.07228 1.22622,-0.09531c1.42707,-0.06972 4.20189,-0.26354 5.33024,-0.37164c1.16609,-0.1113 2.78569,-0.23731 3.03836,-0.23539c0.08827,0.00064 0.44776,-0.03838 0.79957,-0.08635c0.35181,-0.04861 1.1437,-0.1177 1.75905,-0.15352c0.61599,-0.03582 1.31129,-0.09019 1.54604,-0.11962c0.23475,-0.03006 0.64221,-0.07356 0.90639,-0.09723c0.26354,-0.02367 0.62366,-0.06461 0.79957,-0.09083c0.27377,-0.04158 1.51086,-0.15991 2.3987,-0.22964c0.45927,-0.03582 2.69806,-0.26929 3.14454,-0.32814c0.23475,-0.0307 0.61855,-0.07804 0.8533,-0.1049c0.23411,-0.02687 0.83411,-0.09787 1.3324,-0.15672c0.49829,-0.05949 1.09829,-0.12665 1.3324,-0.15032c0.23475,-0.02367 0.85842,-0.09467 1.38613,-0.15863c0.52771,-0.06397 1.2211,-0.14264 1.54029,-0.1759c0.31983,-0.03262 0.60959,-0.0774 0.64541,-0.09915c0.03518,-0.02175 0.42153,-0.06908 0.85842,-0.1049c0.43624,-0.03582 0.89488,-0.08635 1.01769,-0.1113c0.36077,-0.0742 0.86545,-0.14456 2.26182,-0.31343c0.72217,-0.08763 1.34583,-0.17974 1.38741,-0.20533c0.04094,-0.02495 0.43369,-0.07868 0.87249,-0.11898c0.4388,-0.03966 0.82387,-0.08827 0.85522,-0.1081c0.03134,-0.01919 0.34285,-0.06588 0.69275,-0.10362c0.34989,-0.03774 0.7081,-0.08699 0.79573,-0.11002c0.08827,-0.02303 0.39914,-0.07356 0.69083,-0.1113c0.71002,-0.09275 0.83219,-0.11066 1.76161,-0.25586c0.43944,-0.06908 0.98891,-0.14904 1.2211,-0.17782c0.23219,-0.02942 0.4516,-0.07164 0.48806,-0.09403c0.03646,-0.02239 0.3742,-0.07292 0.75095,-0.11258c0.37676,-0.03966 0.79637,-0.1145 0.93326,-0.16567c0.13689,-0.05181 0.28401,-0.07228 0.3275,-0.04542c0.04286,0.02687 0.43496,-0.04797 0.87057,-0.16631c0.4356,-0.1177 0.98379,-0.26034 1.21854,-0.31663c0.23475,-0.05629 0.54626,-0.14456 0.69275,-0.19637c0.14712,-0.05181 0.6985,-0.2226 1.22622,-0.38059c1.0292,-0.30639 1.78911,-0.55522 2.13197,-0.69658c0.1177,-0.04861 0.40554,-0.14712 0.63965,-0.21876c0.23475,-0.07228 0.59424,-0.20341 0.79957,-0.29296c0.20533,-0.08891 0.44712,-0.17527 0.53667,-0.1919c0.09019,-0.01663 0.35373,-0.11322 0.58656,-0.21492c0.23283,-0.10107 0.44648,-0.19126 0.4759,-0.19957c0.09467,-0.02814 0.46823,-0.18358 0.9275,-0.38635c0.24563,-0.10874 0.47334,-0.19765 0.50597,-0.19765c0.03198,0 0.38251,-0.14968 0.77846,-0.33198c1.65287,-0.76375 1.89402,-0.87121 1.91768,-0.85906c0.06588,0.03262 3.88398,-1.97461 4.77182,-2.50872c0.1177,-0.071 0.32558,-0.1791 0.46183,-0.24051c0.13625,-0.06141 0.44904,-0.24307 0.69466,-0.40426c0.54563,-0.35757 0.70938,-0.45799 1.45585,-0.89616c0.32239,-0.1887 0.60255,-0.38251 0.62238,-0.42985c0.01919,-0.04733 0.07612,-0.08635 0.12601,-0.08635c0.14008,0 3.91788,-2.64177 4.95476,-3.46437c1.05479,-0.83731 2.16331,-1.73474 2.45243,-1.98613c3.0358,-2.63474 5.85348,-5.46776 8.26241,-8.30719c0.26354,-0.31087 0.62686,-0.73688 0.80724,-0.94605c0.17974,-0.20981 0.46759,-0.57313 0.63901,-0.80788c0.17143,-0.23411 0.33902,-0.45032 0.37228,-0.47974c0.32942,-0.28912 3.5117,-4.84026 3.5117,-5.02193c0,-0.05245 0.03902,-0.09531 0.08699,-0.09531c0.04797,0 0.16823,-0.15544 0.26802,-0.34605c0.09915,-0.19062 0.26418,-0.47462 0.36588,-0.6307c0.2258,-0.34669 1.47184,-2.48058 1.9196,-3.28718c0.5098,-0.91918 1.87419,-3.62172 2.12621,-4.21148c0.12537,-0.29296 0.39275,-0.89232 0.59488,-1.3324c0.32111,-0.70042 0.49189,-1.09445 0.55522,-1.27931c0.01023,-0.02942 0.0742,-0.18806 0.14264,-0.35373c0.06844,-0.16503 0.12409,-0.32367 0.12409,-0.35309c0,-0.02942 0.11194,-0.30192 0.24819,-0.60575c0.13625,-0.30448 0.4049,-1.00873 0.5968,-1.56587c0.19126,-0.55714 0.38635,-1.10852 0.43369,-1.22622c0.142,-0.35629 0.39275,-1.12323 0.69658,-2.13197c0.15927,-0.52771 0.35565,-1.16481 0.43624,-1.41619c0.08124,-0.25138 0.14712,-0.54179 0.14712,-0.64477c0,-0.10362 0.0403,-0.23411 0.08955,-0.28976c0.08635,-0.09723 0.35757,-1.15202 0.41066,-1.59402c0.12665,-1.06502 0.24755,-1.91512 0.29232,-2.06161c0.03006,-0.09723 0.07676,-0.34477 0.10362,-0.5501c0.02687,-0.20533 0.1049,-0.73304 0.17335,-1.17249c0.06844,-0.44008 0.13817,-0.89552 0.15544,-1.01321c0.01663,-0.11706 0.08443,-0.57249 0.15032,-1.01257c0.06588,-0.43944 0.13944,-0.94349 0.16375,-1.11939c0.02495,-0.1759 0.12537,-0.89552 0.22324,-1.59914c0.09851,-0.70362 0.19637,-1.44754 0.21812,-1.65223c0.02111,-0.20533 0.09467,-0.70938 0.16247,-1.11939c0.16055,-0.96972 0.17527,-1.08357 0.30512,-2.34561c0.06077,-0.58656 0.15735,-1.32089 0.21428,-1.63304c0.05757,-0.31151 0.09787,-0.59936 0.08891,-0.63965c-0.00896,-0.03966 0.01791,-0.31279 0.05885,-0.60575c0.20405,-1.46353 0.28145,-2.08016 0.33582,-2.66544c0.16183,-1.75265 0.2533,-2.57333 0.30256,-2.71853c0.0307,-0.08763 0.08379,-0.59168 0.11834,-1.11939c0.03454,-0.52771 0.10426,-1.22302 0.15544,-1.5454c0.05053,-0.32303 0.09147,-0.68251 0.09019,-0.79957c-0.00128,-0.17718 0.12473,-1.42387 0.30192,-2.98527c0.02047,-0.1759 0.06205,-0.66844 0.09339,-1.09509c0.0307,-0.42665 0.10874,-1.33816 0.17335,-2.02579c0.16695,-1.7808 0.16823,-1.79039 0.24819,-2.84902c0.03966,-0.52771 0.11578,-1.39125 0.16887,-1.91896c0.05309,-0.52771 0.12345,-1.5115 0.15672,-2.1857c0.03326,-0.6742 0.08507,-1.46609 0.11514,-1.75905c0.0307,-0.29296 0.0742,-0.94989 0.09723,-1.45969c0.02303,-0.5098 0.0678,-1.13347 0.09915,-1.38613c0.03134,-0.25266 0.08379,-1.17888 0.11642,-2.05841c0.03262,-0.87952 0.10107,-2.19849 0.15288,-2.93154c0.05117,-0.73304 0.09083,-1.45265 0.08827,-1.59914c-0.00256,-0.14648 0.02687,-0.96204 0.06588,-1.81214c0.28209,-6.12085 0.3339,-9.12019 0.3339,-19.29645c0,-8.79461 -0.06077,-13.50758 -0.21045,-16.31118c-0.0774,-1.45074 -0.1823,-4.06244 -0.18422,-4.5844c-0.00128,-0.26354 -0.04286,-1.05543 -0.09211,-1.75905c-0.04925,-0.70362 -0.12089,-2.04689 -0.15927,-2.98463c-0.03774,-0.93837 -0.08827,-1.87419 -0.1113,-2.07888c-0.02367,-0.20533 -0.06588,-0.80532 -0.09467,-1.33304c-0.05437,-0.99338 -0.34477,-5.03344 -0.42921,-5.96989c-0.09211,-1.01897 -0.16247,-1.92344 -0.20981,-2.6955c-0.02559,-0.42729 -0.0678,-0.81108 -0.09275,-0.8533c-0.02495,-0.04158 -0.07804,-0.67547 -0.1177,-1.40852c-0.03966,-0.73304 -0.09723,-1.41939 -0.12729,-1.52558c-0.0307,-0.10554 -0.07036,-0.41769 -0.08891,-0.69275c-0.01855,-0.27505 -0.09339,-1.05223 -0.16759,-1.72643c-0.07356,-0.6742 -0.13049,-1.32153 -0.12665,-1.43922c0.00384,-0.11706 -0.03518,-0.42921 -0.08571,-0.69275c-0.05117,-0.26418 -0.12153,-0.88784 -0.15608,-1.38613c-0.03454,-0.49829 -0.08891,-1.09765 -0.12089,-1.3324c-0.03134,-0.23475 -0.071,-0.57057 -0.08699,-0.74648c-0.03134,-0.34285 -0.18486,-1.64647 -0.44648,-3.78419c-0.08955,-0.73304 -0.1791,-1.47696 -0.19893,-1.65287c-0.01983,-0.1759 -0.11386,-0.91918 -0.20917,-1.65223c-0.09467,-0.73304 -0.18742,-1.47632 -0.20597,-1.65223c-0.01855,-0.1759 -0.09275,-0.72793 -0.16503,-1.22622c-0.15927,-1.09381 -0.17335,-1.19615 -0.31791,-2.34561c-0.06269,-0.49829 -0.13753,-1.02601 -0.16631,-1.17249c-0.02878,-0.14648 -0.0742,-0.43433 -0.10107,-0.63965c-0.18486,-1.39381 -0.2936,-2.14796 -0.37868,-2.61171c-0.05373,-0.2936 -0.12729,-0.79701 -0.16375,-1.11939c-0.03582,-0.32303 -0.11322,-0.80277 -0.17207,-1.0663c-0.05821,-0.26418 -0.15032,-0.81556 -0.20469,-1.22622c-0.05437,-0.41002 -0.1177,-0.89232 -0.14136,-1.07078c-0.04861,-0.3678 -0.67228,-2.72749 -0.81236,-3.07354c-0.05053,-0.12473 -0.19445,-0.58592 -0.32047,-1.02601c-0.12601,-0.43944 -0.33838,-1.11172 -0.47143,-1.49231c-0.48358,-1.38101 -0.9275,-2.61683 -1.01449,-2.82535c-0.04861,-0.11706 -0.15991,-0.38123 -0.24691,-0.58656c-0.08635,-0.20533 -0.28848,-0.70874 -0.4484,-1.11939c-0.37036,-0.95117 -1.67398,-3.82066 -1.768,-3.89102c-0.03902,-0.02942 -0.10746,-0.17143 -0.15288,-0.31535c-0.04478,-0.14456 -0.33902,-0.73368 -0.65373,-1.31001c-0.31471,-0.57633 -0.57185,-1.06566 -0.57185,-1.08805c0,-0.02239 -0.20725,-0.39275 -0.45991,-0.8226c-0.2533,-0.42985 -0.49381,-0.85394 -0.53475,-0.94157c-0.0403,-0.08827 -0.15735,-0.28784 -0.2597,-0.44392c-0.10171,-0.15608 -0.34733,-0.56354 -0.54563,-0.90575c-0.41961,-0.72473 -2.13964,-3.36906 -2.24199,-3.44774c-0.03838,-0.02942 -0.24307,-0.31727 -0.45479,-0.63965c-0.21173,-0.32239 -0.66588,-0.955 -1.00937,-1.40532c-0.34285,-0.45032 -0.72025,-0.95053 -0.83731,-1.11172c-0.28593,-0.39211 -0.91279,-1.14818 -1.0081,-1.21406c-0.04158,-0.02942 -0.12026,-0.13369 -0.17399,-0.23092c-0.61471,-1.12131 -6.26733,-6.87372 -8.83938,-8.9961c-0.35181,-0.2904 -0.66332,-0.55522 -0.69275,-0.58848c-0.68891,-0.78614 -7.1475,-5.3264 -9.00825,-6.33322c-0.23475,-0.12665 -0.89616,-0.50341 -1.46993,-0.83603c-1.24733,-0.72473 -3.30701,-1.77888 -3.4746,-1.77888c-0.06588,0 -0.11962,-0.04797 -0.11962,-0.10618c0,-0.05885 -0.04925,-0.10682 -0.10938,-0.10682c-0.06077,0 -0.45799,-0.16503 -0.88272,-0.36652c-0.69978,-0.33262 -1.31961,-0.60511 -1.45969,-0.64285c-0.02942,-0.00768 -0.26929,-0.11386 -0.53347,-0.23667c-0.60191,-0.27889 -2.09103,-0.88848 -2.93154,-1.20063c-0.35181,-0.13049 -0.7356,-0.27761 -0.85266,-0.32622c-0.23667,-0.09915 -2.17738,-0.75735 -2.34561,-0.79509c-0.05885,-0.01343 -0.20277,-0.06013 -0.31983,-0.10362c-0.47398,-0.17654 -0.80341,-0.27697 -2.07888,-0.63262c-1.82046,-0.50725 -2.20553,-0.60575 -2.53879,-0.64925c-0.15735,-0.02047 -0.40618,-0.06397 -0.55266,-0.09595c-0.14648,-0.03262 -0.55458,-0.08699 -0.90639,-0.12153c-0.35181,-0.0339 -0.78997,-0.11002 -0.97355,-0.16823c-0.18358,-0.05821 -0.37548,-0.09467 -0.42665,-0.0806c-0.08827,0.02431 -1.57227,-0.18422 -2.08527,-0.29232c-0.13497,-0.02878 -0.77334,-0.12217 -1.41875,-0.20789c-0.64477,-0.08571 -1.31641,-0.18038 -1.49231,-0.21109c-0.50597,-0.08763 -1.67781,-0.24563 -3.46501,-0.46695c-0.90895,-0.11258 -1.72451,-0.23028 -1.81214,-0.26034c-0.08827,-0.0307 -0.53923,-0.08507 -1.00362,-0.12089c-0.46375,-0.03646 -0.87441,-0.08507 -0.91215,-0.1081c-0.03774,-0.02367 -0.35373,-0.071 -0.70234,-0.1049c-0.91982,-0.09083 -2.18314,-0.24243 -2.55222,-0.30639c-0.44968,-0.07804 -1.24285,-0.16119 -2.23879,-0.23603c-0.46951,-0.03454 -0.9179,-0.08443 -0.99658,-0.10938c-0.07932,-0.02559 -0.36716,-0.071 -0.63965,-0.10043c-1.06311,-0.11642 -2.75307,-0.28912 -3.10808,-0.31791c-0.20533,-0.01663 -0.92366,-0.08827 -1.59722,-0.15927c-0.67292,-0.071 -1.41619,-0.14392 -1.65223,-0.16183c-0.23539,-0.01791 -1.2921,-0.11386 -2.34753,-0.21364c-1.05543,-0.10043 -2.18314,-0.19701 -2.50553,-0.21556c-0.32239,-0.01855 -1.18592,-0.08699 -1.91896,-0.15224c-0.7324,-0.06461 -1.62024,-0.13817 -1.97205,-0.16311c-1.45713,-0.10298 -2.43708,-0.16631 -4.10466,-0.26738c-0.96716,-0.05821 -1.85692,-0.12537 -1.97653,-0.14904c-0.11962,-0.02367 -1.17504,-0.07676 -2.34497,-0.11898c-1.17057,-0.04222 -2.15691,-0.09275 -2.1921,-0.11322c-0.03518,-0.02047 -0.89871,-0.06588 -1.91896,-0.10107c-1.02025,-0.03454 -1.9535,-0.07932 -2.07376,-0.09915c-0.12026,-0.01983 -1.65543,-0.07036 -3.41128,-0.11258c-1.75585,-0.04222 -3.38505,-0.09659 -3.61916,-0.12026c-0.81812,-0.08252 -21.01328,-0.11578 -22.3879,-0.03646m96.21424,48.67193c0.73432,0.142 0.9211,0.19318 1.54604,0.42601c0.11706,0.0435 0.27825,0.09275 0.35821,0.10874c0.14904,0.0307 1.71235,0.80149 2.09615,1.03432c1.2211,0.73944 3.10744,2.59124 3.40296,3.34027c0.05565,0.14008 0.13944,0.25458 0.18678,0.25458c0.04733,0 0.08571,0.07228 0.08571,0.15991c0,0.08827 0.03902,0.15991 0.08635,0.15991c0.09595,0 0.50661,0.86097 0.47015,0.98635c-0.01279,0.04414 0.02495,0.07996 0.08316,0.07996c0.05885,0 0.10682,0.08635 0.10682,0.1919c0,0.10554 0.04222,0.23731 0.09339,0.29296c0.1049,0.11386 0.39978,1.00042 0.49445,1.4872c0.38251,1.97077 0.371,0.10554 0.36908,57.83562c-0.00128,57.71089 0.01087,55.82711 -0.371,57.83562c-0.09083,0.48038 -0.26738,1.01065 -0.51428,1.5454c-0.12153,0.26418 -0.2258,0.50405 -0.23155,0.53347c-0.05117,0.25714 -0.19254,0.53283 -0.27377,0.53283c-0.05437,0 -0.08763,0.04158 -0.07292,0.09275c0.03518,0.12089 -0.78741,1.39956 -0.89999,1.39956c-0.04733,0 -0.08571,0.05949 -0.08571,0.13241c0,0.14456 -0.23283,0.40298 -1.27675,1.41875c-0.37931,0.36908 -0.72217,0.65117 -0.76183,0.62686c-0.03902,-0.02431 -0.09915,0.02751 -0.13241,0.11514c-0.0339,0.08763 -0.12921,0.15927 -0.21173,0.15927c-0.08252,0 -0.21109,0.07356 -0.28593,0.16375c-0.48998,0.5904 -2.65009,1.46353 -4.52747,1.83069c-0.1759,0.03454 -2.05329,0.08316 -4.17183,0.1081l-3.85136,0.04542l0.24819,0.24883c0.25778,0.25714 0.26929,0.69147 0.02623,0.98443c-0.19829,0.23859 -4.42129,0.19254 -4.54922,-0.04989c-0.18166,-0.34541 -0.1081,-0.76822 0.17207,-0.98891c0.26674,-0.20981 0.09531,-0.21045 -43.80289,-0.213l-44.0709,-0.00256l0.93965,-0.90383c0.51684,-0.49701 0.90383,-0.90319 0.8597,-0.90319c-0.04414,0 0.01279,-0.08763 0.12665,-0.19445c0.11322,-0.10682 0.44648,-0.47398 0.73944,-0.81684c0.29296,-0.34222 0.63901,-0.73496 0.76822,-0.87185c0.12921,-0.13689 0.21045,-0.24947 0.18038,-0.24947c-0.07292,0 0.93901,-1.32217 1.04647,-1.36822c0.04606,-0.01919 0.08379,-0.07548 0.08379,-0.12409c0,-0.04925 0.33774,-0.60895 0.75031,-1.24413c0.41258,-0.63518 0.77846,-1.23837 0.81236,-1.34136c0.0339,-0.10234 0.10362,-0.18614 0.15544,-0.18614c0.05181,0 0.08635,-0.03646 0.07676,-0.07996c-0.00959,-0.04414 0.30512,-0.73816 0.69914,-1.54285c0.39467,-0.80469 0.71897,-1.49999 0.72153,-1.54604c0.02303,-0.47654 -0.34733,-0.45607 8.31231,-0.45607c8.91742,0 8.47414,0.03198 8.87328,-0.64413c0.19893,-0.3371 0.27633,-108.03505 0.07804,-108.54294c-0.05309,-0.13625 -0.19893,-0.35501 -0.32367,-0.48678l-0.22772,-0.23987l-13.77496,0.00128c-7.5767,0.00064 -13.87474,0.02814 -13.99692,0.06077c-0.6243,0.16759 -0.57825,-2.57269 -0.57825,34.41532c0,27.07657 -0.02623,33.752 -0.13433,33.752c-0.07356,0 -0.26354,-0.11962 -0.42153,-0.2661c-0.15799,-0.14648 -0.31599,-0.26674 -0.35117,-0.26674c-0.03518,0 -0.3371,-0.18422 -0.671,-0.40938c-0.3339,-0.22452 -0.94285,-0.59424 -1.35351,-0.82068c-0.41066,-0.22644 -0.76247,-0.45032 -0.78166,-0.49701c-0.01983,-0.04669 -0.08699,-0.08507 -0.14968,-0.08507c-0.06269,0 -0.69402,-0.28209 -1.4034,-0.62622c-0.70938,-0.34413 -1.37398,-0.65437 -1.47632,-0.68955c-0.17718,-0.06077 -0.18678,-1.67973 -0.18678,-32.00446l0,-31.94114l-0.31151,-0.31151l-0.31151,-0.31151l-13.82485,0l-13.82485,0l-0.36268,0.36204l-0.36204,0.36268l-0.0032,32.44646l-0.0032,32.44646l-1.03624,0.5597c-1.7034,0.91982 -4.4763,2.81512 -5.45689,3.72982c-0.2661,0.24819 -0.5194,0.4516 -0.56354,0.45288c-0.13241,0.0032 -0.09467,-70.71826 0.03838,-71.58627c0.06269,-0.41066 0.12473,-0.81812 0.13817,-0.90639c0.04478,-0.29616 0.18678,-0.79637 0.34861,-1.22558c0.08827,-0.23475 0.16311,-0.45096 0.16567,-0.47974c0.03326,-0.38955 1.24861,-2.68079 1.45841,-2.75115c0.06397,-0.02111 0.11642,-0.10554 0.11642,-0.18742c0,-0.08124 0.11962,-0.22708 0.2661,-0.32303c0.14712,-0.09595 0.26674,-0.22004 0.26674,-0.27633c0,-0.15863 1.21087,-1.31897 1.72387,-1.65159c0.25394,-0.16439 0.49701,-0.34733 0.53987,-0.40682c0.04286,-0.05885 0.07932,-0.06972 0.07996,-0.02367c0.00128,0.04669 0.10682,-0.01343 0.23475,-0.13305c0.12857,-0.11962 0.3032,-0.21748 0.38827,-0.21748c0.08507,0 0.20789,-0.06461 0.27313,-0.14392c0.09211,-0.11194 1.17568,-0.60703 1.45074,-0.66332c0.02942,-0.00576 0.13753,-0.04222 0.23987,-0.08124c1.66246,-0.63006 -4.5972,-0.57825 70.28201,-0.58528c59.09254,-0.00576 68.22936,0.01343 68.92275,0.14776m-31.67248,11.20418c-0.09275,0.02559 -0.27313,0.23028 -0.39978,0.45607l-0.23028,0.41002l0.00384,54.08917c0.00384,50.92608 0.01471,54.10196 0.18678,54.30537c0.53091,0.62878 -0.59232,0.58336 14.37111,0.58336l13.6611,0l0.30767,-0.23603c0.16887,-0.12985 0.34349,-0.2936 0.38763,-0.3646c0.13753,-0.21876 0.09851,-108.51543 -0.03838,-108.81671c-0.06524,-0.14264 -0.23539,-0.31343 -0.37868,-0.37804c-0.25074,-0.1145 -27.44884,-0.16119 -27.87102,-0.04861m-35.98503,0.4388c-0.12473,0.10107 -0.28081,0.28912 -0.34605,0.41705c-0.213,0.41641 -0.16567,108.26916 0.04733,108.68174c0.3403,0.6582 -0.39275,0.62622 14.40885,0.62558c14.99542,-0.00064 13.8837,0.05053 14.27772,-0.65948c0.1113,-0.19957 0.13753,-10.5447 0.14008,-54.44737l0.0032,-54.20175l-0.33838,-0.30256l-0.33838,-0.30192l-13.81333,0.00192c-12.92741,0.00256 -13.82805,0.01471 -14.04105,0.18678m-46.78687,3.26607l0.31983,0.25586l0.01279,29.64798c0.00896,21.80709 -0.01919,29.6467 -0.10682,29.64542c-0.06588,-0.00064 -0.31919,-0.071 -0.5629,-0.15608c-0.24371,-0.08507 -0.55586,-0.17654 -0.69275,-0.20341c-0.13753,-0.02687 -0.58528,-0.13049 -0.99594,-0.23028c-0.41066,-0.09915 -0.84946,-0.19445 -0.97547,-0.21045c-0.12601,-0.01663 -0.3243,-0.06013 -0.44072,-0.09723c-0.11642,-0.03646 -0.37356,-0.08635 -0.57057,-0.10938c-1.26843,-0.15096 -1.53837,-0.18934 -1.59978,-0.22708c-0.2661,-0.16375 -5.34879,-0.24435 -7.02085,-0.1113c-0.92302,0.07356 -2.01619,0.21748 -2.93218,0.38699c-0.35181,0.06524 -0.7356,0.13433 -0.85266,0.15416c-0.7081,0.11834 -0.75223,0.12985 -3.83793,0.96268c-0.35181,0.09467 -0.7113,0.20213 -0.79957,0.23859c-0.08827,0.03582 -0.18422,0.0742 -0.213,0.08379c-0.02942,0.01023 -0.19765,0.07932 -0.37356,0.15352c-0.1759,0.0742 -0.37804,0.14456 -0.44968,0.15672c-0.07164,0.01151 -0.16375,0.05501 -0.20469,0.09595c-0.0403,0.0403 -0.10171,0.0742 -0.13625,0.0742c-0.0339,0 -0.06013,-13.52741 -0.05821,-30.06119l0.00448,-30.06119l0.30895,-0.32239l0.30895,-0.32239l10.77434,0l10.77434,0.00064l0.31983,0.25586m36.04324,0.09595l0.25714,0.29936l-0.00064,45.30799c-0.00064,30.91385 -0.03518,45.34829 -0.11002,45.43592c-0.06077,0.07036 -0.17654,0.22388 -0.25778,0.34094c-0.14392,0.20789 -0.28529,0.21428 -5.54005,0.24307l-5.39229,0.02942l-0.00256,-0.24307c-0.00768,-0.74584 -0.25906,-3.20787 -0.42153,-4.13345c-0.06716,-0.38123 -0.14584,-0.86097 -0.17527,-1.0663c-0.08763,-0.61471 -0.10043,-0.67547 -0.22772,-1.11939c-0.06716,-0.23475 -0.14648,-0.54626 -0.17654,-0.69275c-0.08891,-0.44264 -0.60064,-2.27717 -0.69786,-2.50553c-0.13369,-0.31343 -0.42857,-1.11172 -0.43305,-1.17185c-0.00448,-0.06461 -0.06269,-0.23155 -0.22388,-0.64029c-0.06972,-0.1759 -0.1388,-0.38123 -0.15416,-0.45607c-0.05053,-0.24627 -2.10446,-4.34069 -2.19529,-4.37715c-0.04925,-0.01919 -0.08955,-0.10362 -0.08955,-0.18678c0,-0.08252 -0.04797,-0.15096 -0.10682,-0.15096c-0.05821,0 -0.10618,-0.04606 -0.10618,-0.10298c0,-0.09979 -0.73944,-1.31321 -0.9582,-1.57227c-0.06013,-0.071 -0.22964,-0.31087 -0.37676,-0.53283c-0.35629,-0.53731 -0.61343,-0.8936 -0.74776,-1.03432c-0.06077,-0.06333 -0.22772,-0.28273 -0.37164,-0.48742c-0.14392,-0.20405 -0.3339,-0.45224 -0.42281,-0.55138c-0.08891,-0.09915 -0.42537,-0.48294 -0.74776,-0.85394c-0.32239,-0.371 -1.10212,-1.18656 -1.73282,-1.81342l-1.1469,-1.13858l0.02751,-33.30296l0.02687,-33.3036l0.31087,-0.2872l0.31023,-0.28784l10.81272,0.02814l10.81272,0.02814l0.25778,0.29936m35.65113,-0.24627c0,0.05885 0.071,0.10682 0.15735,0.10682c0.51044,0 0.48294,-2.65457 0.47462,45.75639c-0.00768,42.81462 -0.01727,45.14424 -0.19509,45.44744c-0.35565,0.60959 0.14456,0.58336 -11.22401,0.58528c-11.21122,0.00128 -10.93233,0.01535 -11.2803,-0.55586c-0.21237,-0.34733 -0.213,-0.56162 -0.21364,-45.50756l0,-45.15831l0.33326,-0.39019l0.33326,-0.39019l10.8076,0c7.13342,0 10.80696,0.03582 10.80696,0.10618m36.19292,0.14968c0.15224,0.14136 0.32239,0.41641 0.37868,0.61279c0.19318,0.67356 0.13305,89.91236 -0.06077,90.2872c-0.08955,0.17271 -0.13561,0.31471 -0.10234,0.31471c0.03326,0 -0.0403,0.10746 -0.16311,0.23987l-0.22388,0.23987l-10.82359,0l-10.82295,0l-0.31151,-0.34861l-0.31087,-0.34797l0.02623,-45.34253l0.02687,-45.34253l0.31983,-0.28145l0.31983,-0.28081l10.73532,-0.0032l10.73532,-0.0032l0.27697,0.25586m11.67433,9.44514c-0.25458,0.25458 -0.26993,0.54051 -0.05181,0.9614l0.16055,0.31151l1.60425,-0.02367c1.97845,-0.02814 2.36032,-0.28273 1.77184,-1.18016l-0.18486,-0.28209l-1.54349,0c-1.40084,0 -1.56268,0.01983 -1.75649,0.213m-0.01151,5.66222c-0.23923,0.23923 -0.23155,0.8533 0.01279,1.09829c0.28273,0.28337 3.02684,0.20917 3.38377,-0.09083c0.38763,-0.32622 0.3985,-0.73944 0.02751,-1.04008c-0.38507,-0.31151 -3.10616,-0.28529 -3.42407,0.03262m-0.04733,5.68589c-0.63518,0.96972 0.17207,1.26268 3.12535,1.13603c0.53731,-0.02367 0.77334,-1.01897 0.31215,-1.31257c-0.37484,-0.23859 -3.26288,-0.08955 -3.4375,0.17654m0.10746,5.54452c-0.8098,0.81044 -0.22772,1.23133 1.7034,1.23133l1.53837,0l0.20533,-0.2936c0.28145,-0.4017 0.25458,-0.63134 -0.11002,-0.93837c-0.47718,-0.40106 -2.93537,-0.40042 -3.33708,0.00064m0.03198,5.53685c-0.36204,0.27505 -0.35629,0.76567 0.01407,1.13539l0.33262,0.33262l1.39573,-0.03518c1.7776,-0.04478 2.34369,-0.49765 1.60873,-1.28762c-0.31791,-0.34158 -2.94241,-0.45543 -3.35115,-0.1452m-126.50507,28.35651c0.213,0.02559 0.69275,0.07868 1.0663,0.11642c0.37356,0.03838 0.75095,0.08955 0.83923,0.11386c0.08763,0.02367 0.35181,0.0678 0.58592,0.09659c0.41705,0.05181 1.27995,0.213 1.70596,0.31919c0.11706,0.02878 0.52835,0.12217 0.91279,0.20661c0.38507,0.08507 0.87313,0.22644 1.08421,0.31471c0.21109,0.08827 0.4113,0.13369 0.44392,0.10107c0.03262,-0.03262 0.13241,0.00128 0.22196,0.07548c0.08891,0.0742 0.16247,0.10938 0.16247,0.0774c0,-0.03134 0.25138,0.03902 0.5597,0.15608c0.30767,0.11706 0.65565,0.23987 0.7727,0.27313c0.35245,0.09915 1.99508,0.78422 2.45179,1.02217c0.23475,0.12281 0.45032,0.22516 0.47974,0.22836c0.1388,0.01407 2.13261,1.05415 2.13261,1.11172c0,0.03646 0.13944,0.12793 0.30959,0.20341c0.36077,0.15991 2.31555,1.41428 2.60851,1.67398c0.06588,0.05885 0.31215,0.23731 0.54626,0.39723c0.23475,0.15991 0.64285,0.48806 0.90639,0.72857c1.05095,0.95948 1.15394,1.04328 1.21151,0.98507c0.03262,-0.03262 0.11706,0.06652 0.18742,0.22068c0.07036,0.15416 0.18166,0.28017 0.24755,0.28017c0.14392,0 2.19146,2.08463 2.19146,2.23111c0,0.05757 0.06524,0.142 0.1452,0.18934c0.07996,0.04669 0.34477,0.32494 0.58912,0.61791c0.64221,0.7727 0.65373,0.78741 0.67739,0.87761c0.02111,0.07932 0.12665,0.21556 0.54499,0.70426c0.34094,0.39723 0.81492,1.11684 0.81492,1.23581c0,0.06269 0.05117,0.1145 0.11322,0.1145c0.06205,0 0.08571,0.0435 0.05245,0.09723c-0.03326,0.05373 -0.02111,0.11386 0.02687,0.13305c0.12921,0.05373 0.67931,0.8968 1.13667,1.74178c0.22196,0.41066 0.43305,0.79445 0.46823,0.85266c0.03582,0.05885 0.06908,0.13049 0.07356,0.15991c0.00512,0.02942 0.27633,0.60511 0.60319,1.27931c0.32622,0.6742 0.62878,1.34647 0.67228,1.49295c0.04286,0.14648 0.12409,0.3243 0.18102,0.39467c0.05629,0.071 0.07164,0.1791 0.0339,0.23987c-0.03774,0.06141 -0.02367,0.1113 0.03198,0.1113c0.05565,0 0.13497,0.18038 0.1759,0.39978c0.04094,0.22004 0.1113,0.44776 0.15672,0.50661c0.13689,0.17782 0.41769,1.09829 0.35437,1.16161c-0.03262,0.03262 -0.01087,0.12026 0.04797,0.19509c0.05885,0.07484 0.14584,0.27953 0.19254,0.45543c0.04733,0.1759 0.09339,0.34413 0.10171,0.37356c0.01343,0.04797 0.1791,0.79765 0.32878,1.49231c0.09083,0.41961 0.45032,2.48762 0.46375,2.66544c0.0064,0.08763 0.04606,0.54371 0.08763,1.01257c0.04222,0.46887 0.07676,1.86011 0.0774,3.09145c0.00064,1.96502 -0.03006,2.64945 -0.19126,4.31767c-0.1145,1.17888 -0.60831,3.4068 -1.18144,5.33088c-0.09595,0.32239 -0.18806,0.6339 -0.20405,0.69275c-0.1081,0.38699 -0.43241,1.29722 -0.49381,1.38613c-0.04094,0.05821 -0.16247,0.34605 -0.26993,0.63965c-0.24371,0.66396 -1.31961,2.96032 -1.42195,3.0358c-0.04158,0.0307 -0.13817,0.19957 -0.21428,0.37548c-0.14968,0.34541 -1.61129,2.73708 -1.72643,2.82535c-0.03838,0.02878 -0.25394,0.31663 -0.4791,0.63965c-0.22452,0.32239 -0.46055,0.63837 -0.52324,0.7017c-0.06205,0.06397 -0.20981,0.25074 -0.32686,0.41514c-0.34222,0.48102 -0.80277,1.01769 -1.5454,1.79935c-0.90703,0.95564 -1.70596,1.76289 -1.70596,1.72387c0,-0.01727 -0.18038,0.14328 -0.40106,0.35629c-0.57121,0.55138 -1.60361,1.42579 -1.90297,1.61129c-0.14008,0.08699 -0.25458,0.19765 -0.25458,0.24627c0,0.04861 -0.04797,0.05821 -0.10682,0.02239c-0.05885,-0.03646 -0.10682,-0.02495 -0.10682,0.02559c0,0.10874 -1.2211,0.98699 -1.37142,0.98699c-0.05693,0 -0.11898,0.04158 -0.1388,0.09211c-0.08763,0.22772 -3.82002,2.36672 -3.82002,2.18954c0,-0.04158 -0.08443,0 -0.18678,0.09339c-0.22068,0.19957 -1.54157,0.77206 -2.74476,1.18976c-0.46951,0.16311 -0.92494,0.3243 -1.01321,0.35821c-0.08763,0.03454 -0.20789,0.07164 -0.2661,0.08316c-0.05885,0.01087 -0.14264,0.03198 -0.18678,0.04606c-0.04414,0.01407 -0.11578,0.03582 -0.15991,0.04797c-0.04414,0.01279 -0.15224,0.05373 -0.23987,0.09211c-0.48486,0.20981 -3.34027,0.85906 -4.29464,0.97675c-0.1887,0.02303 -0.91854,0.11642 -1.62216,0.20725c-0.70938,0.09211 -2.03922,0.16439 -2.98527,0.16183c-0.93773,-0.00192 -1.92152,-0.00128 -2.18506,0.00192c-0.43241,0.00448 -2.5503,-0.22132 -3.35818,-0.35821c-0.1759,-0.03006 -0.48806,-0.07868 -0.69339,-0.10874c-0.53795,-0.07804 -1.80319,-0.35245 -2.23879,-0.4855c-0.20469,-0.06205 -0.51044,-0.13817 -0.67803,-0.16887c-0.16823,-0.03006 -0.46823,-0.12281 -0.66652,-0.20597c-0.19829,-0.08316 -0.36077,-0.12345 -0.36077,-0.08955c0,0.03326 -0.07228,0.00064 -0.15991,-0.07228c-0.08827,-0.07292 -0.15991,-0.10171 -0.15991,-0.06461c0,0.0371 -0.18038,-0.00896 -0.39978,-0.10234c-0.22004,-0.09403 -0.51236,-0.19254 -0.64925,-0.21876c-0.13753,-0.02623 -0.36524,-0.12409 -0.50661,-0.2162c-0.14136,-0.09275 -0.25714,-0.12985 -0.25714,-0.08188c0,0.04797 -0.05757,0.02942 -0.12793,-0.04094c-0.07036,-0.07036 -0.20213,-0.12793 -0.2936,-0.12793c-0.09147,0 -0.59744,-0.21556 -1.12515,-0.47846c-0.52708,-0.26354 -1.01833,-0.4791 -1.09189,-0.47974c-0.07292,-0.00064 -0.13305,-0.04925 -0.13305,-0.1081c0,-0.05821 -0.03582,-0.09659 -0.07996,-0.08507c-0.24435,0.06524 -4.23387,-2.32834 -4.55818,-2.73452c-0.3243,-0.40618 -0.49765,-0.30256 -2.05841,1.23006c-1.72771,1.69636 -1.6663,1.4501 -0.61151,2.44988l0.63454,0.60128l-0.41514,0.36204c-0.22836,0.19893 -0.80596,0.74584 -1.28379,1.2147c-0.47782,0.46951 -1.49103,1.45265 -2.25094,2.1857c-0.75991,0.73304 -1.97845,1.91193 -2.7083,2.62002c-0.72985,0.7081 -1.45841,1.3727 -1.6196,1.4776c-0.16055,0.10426 -0.26546,0.23283 -0.23347,0.28529c0.03262,0.05181 0.00576,0.09467 -0.05885,0.09467c-0.06461,0 -0.51684,0.39595 -1.00554,0.87952c-1.18912,1.1776 -5.26435,5.10636 -7.31765,7.05539c-3.10872,2.95009 -4.68611,4.46671 -5.41339,5.20487c-0.97611,0.99082 -0.86353,0.97995 -1.64007,0.15991c-0.57505,-0.60767 -1.20447,-1.26652 -4.37779,-4.58632c-0.57313,-0.6 -1.08805,-1.13858 -1.1437,-1.19743c-0.05565,-0.05885 -0.53091,-0.53859 -1.05671,-1.0663c-0.5258,-0.52771 -0.94733,-0.98315 -0.93645,-1.01257c0.01151,-0.02942 -0.25778,-0.31791 -0.59744,-0.64221l-0.61727,-0.58848l1.02153,-0.98379c0.56162,-0.54115 1.06758,-0.98379 1.12451,-0.98379c0.05693,0 0.09147,-0.03582 0.07676,-0.07996c-0.01407,-0.04414 0.20917,-0.29616 0.49701,-0.5597c0.28784,-0.26418 1.34327,-1.27867 2.34561,-2.25542c1.0017,-0.97611 1.98357,-1.91193 2.18122,-2.07888c0.19765,-0.16695 0.86993,-0.80724 1.49295,-1.42259c0.62366,-0.61599 1.91385,-1.86331 2.86757,-2.77162c0.95372,-0.90895 2.13453,-2.03666 2.62322,-2.50553c0.4887,-0.46887 1.74434,-1.66822 2.79081,-2.66544c1.04583,-0.99658 2.22024,-2.12429 2.60915,-2.50489c0.63646,-0.62302 2.37887,-2.26821 2.58292,-2.43836c0.04414,-0.0371 0.27761,-0.27121 0.51876,-0.52004c0.42473,-0.43944 0.62622,-0.55458 0.62622,-0.35821c0,0.05245 0.31855,0.4145 0.70746,0.80596l0.70682,0.71066l0.32942,-0.29936c0.18102,-0.16503 0.39275,-0.38379 0.47143,-0.48614c0.07804,-0.10234 0.21173,-0.18678 0.29616,-0.18678c0.08443,0 0.15416,-0.04414 0.15416,-0.09787c0,-0.09339 0.73176,-0.82324 1.45649,-1.45265c0.37548,-0.32622 0.34669,-0.46695 -0.23539,-1.14498c-0.17654,-0.20533 -1.27035,-1.91449 -1.41364,-2.20809c-0.071,-0.14648 -0.22388,-0.41066 -0.33838,-0.58656c-0.33646,-0.51556 -1.38805,-2.62578 -1.38805,-2.78569c0,-0.07996 -0.04797,-0.14584 -0.10682,-0.14584c-0.05885,0 -0.10682,-0.071 -0.10682,-0.15735c0,-0.08635 -0.09211,-0.36204 -0.20469,-0.61279c-0.11258,-0.25074 -0.27569,-0.6243 -0.36204,-0.82899c-0.23028,-0.54626 -0.9243,-2.739 -0.97291,-3.07226c-0.02303,-0.15735 -0.09019,-0.442 -0.14968,-0.63262c-0.05949,-0.19062 -0.08571,-0.34669 -0.05821,-0.34669c0.02687,0 0,-0.09211 -0.06013,-0.20469c-0.10362,-0.19382 -0.22836,-0.76631 -0.26929,-1.23453c-0.01023,-0.11706 -0.04733,-0.28529 -0.08252,-0.37292c-0.03582,-0.08827 -0.11706,-0.59168 -0.18102,-1.11939c-0.06461,-0.52771 -0.14392,-1.15138 -0.17654,-1.38613c-0.10554,-0.74648 -0.13177,-4.65476 -0.03838,-5.65007c0.16311,-1.73922 0.31087,-2.93026 0.38955,-3.14518c0.03262,-0.08763 0.07932,-0.3275 0.10426,-0.53283c0.02431,-0.20533 0.10043,-0.56481 0.16823,-0.79957c0.0678,-0.23475 0.13049,-0.50405 0.14008,-0.59808c0.00959,-0.09467 0.05565,-0.31023 0.10234,-0.47974c0.04669,-0.16951 0.09659,-0.36204 0.11066,-0.42857c0.04861,-0.23155 0.37804,-1.37334 0.442,-1.53197c0.03582,-0.08827 0.07612,-0.20789 0.09019,-0.26674c0.08891,-0.37356 0.59936,-1.70468 0.69978,-1.82557c0.06652,-0.0806 0.09019,-0.14648 0.05245,-0.14648c-0.03838,0 0.01407,-0.15608 0.11578,-0.34669c0.10171,-0.19062 0.18678,-0.37356 0.18934,-0.40682c0.01663,-0.23155 1.3727,-2.87141 1.47376,-2.87141c0.04925,0 0.06269,-0.04222 0.0307,-0.09403c-0.03262,-0.05245 0.01279,-0.15416 0.10043,-0.22644c0.08699,-0.07228 0.15863,-0.19382 0.15863,-0.26993c0,-0.07548 0.03582,-0.15416 0.07996,-0.17335c0.0435,-0.01983 0.18806,-0.25138 0.32047,-0.51556c0.13241,-0.26354 0.38379,-0.64733 0.55906,-0.85266c0.1759,-0.20533 0.31919,-0.43433 0.31919,-0.5098c0,-0.07484 0.0678,-0.16247 0.15032,-0.19445c0.08316,-0.03134 0.20853,-0.19765 0.27953,-0.36972c0.071,-0.17143 0.17974,-0.31215 0.24115,-0.31215c0.06077,0 0.08316,-0.02814 0.04861,-0.06205c-0.06077,-0.06077 0.11962,-0.30639 0.66652,-0.90959c0.14712,-0.16183 0.41066,-0.47206 0.58656,-0.68955c0.7823,-0.9678 2.05009,-2.27589 3.14198,-3.24241c0.3646,-0.32303 0.74072,-0.67036 0.83603,-0.77334c0.09595,-0.10234 0.21364,-0.18614 0.26162,-0.18614c0.04861,0 0.21045,-0.13241 0.36013,-0.2936c0.14904,-0.16119 0.29168,-0.28017 0.31663,-0.26418c0.04606,0.02942 0.21109,-0.09275 0.58145,-0.42857c0.11322,-0.10234 0.24627,-0.18678 0.29616,-0.18678c0.04925,0 0.17654,-0.09595 0.28273,-0.213c0.10618,-0.11706 0.25778,-0.213 0.33646,-0.213c0.07868,0 0.14392,-0.03646 0.14392,-0.07996c0.00128,-0.09851 0.76375,-0.6275 0.83219,-0.57761c0.02751,0.01983 0.07868,-0.00896 0.1145,-0.06397c0.12857,-0.19573 2.75755,-1.70852 3.1036,-1.78591c0.02942,-0.0064 0.46119,-0.20597 0.95948,-0.44328c0.49829,-0.23731 1.50639,-0.65117 2.23879,-0.91918c1.22238,-0.44712 1.6196,-0.57377 2.71853,-0.86545c1.12003,-0.2968 2.48058,-0.58656 3.03836,-0.64733c0.14712,-0.01535 0.60255,-0.0806 1.01321,-0.14328c0.41002,-0.06333 1.15266,-0.14392 1.64903,-0.1791c0.49701,-0.03518 0.92878,-0.08955 0.95948,-0.12089c0.06077,-0.06077 3.96074,0.03134 4.60103,0.10874m-5.1844,2.80424c-0.29296,0.02623 -1.13219,0.14264 -1.86523,0.2597c-0.73304,0.11642 -1.47057,0.23347 -1.63943,0.25906c-0.16823,0.02623 -0.50405,0.10362 -0.74584,0.17271c-0.24243,0.06844 -0.48806,0.13561 -0.5469,0.14776c-0.72025,0.1548 -3.93771,1.24093 -4.45071,1.50319c-0.16119,0.08188 -0.2936,0.11194 -0.29488,0.06652c-0.00064,-0.04542 -0.0371,-0.03262 -0.07996,0.02751c-0.04286,0.06077 -0.65373,0.39595 -1.35735,0.74456c-0.70362,0.34925 -1.62344,0.86289 -2.04434,1.14242c-0.42089,0.27953 -0.8162,0.50853 -0.87952,0.50853c-0.06333,0 -0.1145,0.03582 -0.11514,0.07996c0,0.0435 -0.22772,0.22132 -0.50597,0.39467c-0.27889,0.17399 -0.53027,0.34285 -0.5597,0.37612c-0.04606,0.05245 -0.66588,0.53795 -1.46801,1.1501c-0.45991,0.35117 -3.27759,3.1746 -3.58974,3.59742c-0.17271,0.23347 -0.42409,0.53091 -0.5597,0.65948c-0.13561,0.12921 -0.24627,0.26482 -0.24627,0.30064c0,0.09659 -0.54818,0.82899 -0.74008,0.98891c-0.09147,0.07548 -0.16567,0.17974 -0.16567,0.23092c0,0.05181 -0.1081,0.21748 -0.23987,0.36972c-0.13241,0.1516 -0.23987,0.29872 -0.23987,0.32622c0,0.09659 -0.68507,1.17377 -0.76886,1.20959c-0.04606,0.01919 -0.08443,0.09147 -0.08443,0.15991c-0.00064,0.0678 -0.10618,0.29168 -0.23475,0.49701c-0.12921,0.20533 -0.24051,0.39723 -0.24755,0.42665c-0.03582,0.14904 -1.01961,2.06864 -1.12579,2.19657c-0.0678,0.08188 -0.08763,0.14904 -0.04414,0.14904c0.0435,0 0.03454,0.05949 -0.02047,0.13305c-0.05565,0.07356 -0.19126,0.40938 -0.30192,0.74648c-0.11066,0.3371 -0.23795,0.61279 -0.28273,0.61279c-0.04478,0 -0.05373,0.07164 -0.01983,0.15991c0.0339,0.08763 0.01343,0.15991 -0.04478,0.15991c-0.05821,0 -0.10298,0.06013 -0.09979,0.13305c0.01151,0.22452 -0.15927,0.82643 -0.23347,0.82643c-0.03902,0 -0.07484,0.08379 -0.07932,0.18678c-0.00512,0.10234 -0.16183,0.78614 -0.34861,1.51918c-0.45479,1.78208 -0.43433,1.68741 -0.50085,2.29188c-0.03198,0.29296 -0.08507,0.60511 -0.11834,0.69275c-0.03262,0.08827 -0.06908,0.32814 -0.07996,0.53347c-0.01151,0.20469 -0.08124,1.04456 -0.15544,1.86523c-0.12217,1.36054 -0.09275,3.61277 0.06333,4.74432c0.02814,0.20533 0.071,0.58912 0.09531,0.85266c0.05117,0.55714 0.22324,1.6631 0.30639,1.97269c0.03198,0.11706 0.17974,0.74072 0.32878,1.38549c0.14904,0.64541 0.31727,1.29274 0.3742,1.43922c0.05629,0.14712 0.11962,0.36268 0.14072,0.47974c0.02111,0.1177 0.09467,0.35181 0.16375,0.52132c0.06908,0.16887 0.13944,0.38507 0.15544,0.47974c0.01663,0.09467 0.13497,0.40554 0.26354,0.69211c0.12857,0.28593 0.23411,0.56418 0.23411,0.61919c0,0.14392 1.70852,3.64667 1.81022,3.71063c0.04669,0.02942 0.19765,0.26993 0.33454,0.53347c0.13689,0.26418 0.31087,0.55202 0.38571,0.63965c0.07484,0.08827 0.1452,0.20789 0.15544,0.26674c0.01023,0.05885 0.15352,0.25074 0.31791,0.42665c0.16503,0.1759 0.3,0.35245 0.30064,0.39211c0,0.03966 0.06013,0.13689 0.13369,0.21556c0.32622,0.35181 0.82643,1.042 0.82643,1.14114c0,0.06013 0.09595,0.16055 0.213,0.22324c0.11706,0.06269 0.213,0.15863 0.213,0.213c0,0.11002 0.21173,0.34285 1.63624,1.79487c1.08805,1.1098 2.24647,2.19977 2.27141,2.13772c0.00896,-0.02303 0.20085,0.12665 0.42665,0.33262c0.45991,0.41897 0.6275,0.54243 1.68933,1.24221c0.41066,0.27057 0.76247,0.53283 0.78166,0.584c0.01983,0.05053 0.07548,0.09211 0.12409,0.09211c0.04925,0 0.44072,0.21556 0.87057,0.47974c0.43049,0.26354 0.91407,0.53219 1.07526,0.5968c0.16119,0.06461 0.2936,0.16055 0.2936,0.213c0,0.05309 0.03582,0.08507 0.07996,0.071c0.11706,-0.0371 0.7727,0.25138 0.7727,0.3403c0,0.04158 0.06013,0.0774 0.13305,0.07932c0.07356,0.00128 0.40618,0.12921 0.73944,0.28401c0.3339,0.1548 0.65756,0.28145 0.71961,0.28145c0.06269,0 0.11386,0.05053 0.11386,0.11258c0,0.06205 0.04414,0.08571 0.09851,0.05181c0.11322,-0.06972 0.66204,0.15096 0.7791,0.31279c0.04286,0.06013 0.07932,0.07612 0.07996,0.03582c0.00128,-0.0403 0.42153,0.071 0.93453,0.24691c0.513,0.17654 1.05287,0.34349 1.19935,0.37164c0.14648,0.02814 0.53027,0.12281 0.85266,0.21045c0.32239,0.08699 0.71961,0.17846 0.88208,0.20277c0.16247,0.02495 0.3339,0.06844 0.38059,0.09723c0.04669,0.02878 0.32175,0.0806 0.61087,0.11514c0.28912,0.03454 0.64541,0.08955 0.79189,0.12281c0.14648,0.03262 0.4823,0.0774 0.74648,0.09915c0.26354,0.02175 0.59936,0.06652 0.74584,0.09915c0.14712,0.03326 0.61471,0.06333 1.04008,0.06716c0.42473,0.00448 0.79637,0.04606 0.82579,0.09275c0.06588,0.10746 2.29188,0.10426 2.29188,-0.00384c0,-0.0435 0.4081,-0.08252 0.90639,-0.08635c0.49829,-0.00448 1.10148,-0.06013 1.34136,-0.12473c0.23923,-0.06461 0.53923,-0.10682 0.66652,-0.09467c0.12665,0.01279 0.35117,-0.0064 0.49765,-0.04222c0.14648,-0.03582 0.4823,-0.09595 0.74584,-0.13369c0.66204,-0.09339 0.77654,-0.11514 0.95948,-0.18422c0.18358,-0.06844 1.27931,-0.33454 1.43922,-0.34925c0.17527,-0.01599 2.0002,-0.59104 2.34561,-0.7388c0.26929,-0.11578 0.70042,-0.26993 0.90639,-0.3243c0.07356,-0.01983 0.48998,-0.19893 1.11939,-0.4823c0.29296,-0.13241 0.58592,-0.25138 0.65053,-0.26546c0.06524,-0.01343 0.50149,-0.24627 0.97036,-0.5162c0.46823,-0.27057 0.89168,-0.49125 0.94029,-0.49125c0.04861,0 0.69786,-0.4081 1.44242,-0.90639c0.7452,-0.49829 1.38229,-0.90639 1.41555,-0.90639c0.0339,0 0.17463,-0.10746 0.31343,-0.23987c0.32558,-0.30959 1.12771,-0.9582 1.33816,-1.0823c0.09019,-0.05245 0.29744,-0.23219 0.46055,-0.39978c0.16375,-0.16695 0.32047,-0.3032 0.34925,-0.3032c0.16183,0 2.95776,-2.96672 3.19955,-3.39528c0.09403,-0.16567 1.11044,-1.50063 1.23069,-1.61577c0.0307,-0.02942 0.12345,-0.18422 0.20597,-0.34477c0.08252,-0.15991 0.23859,-0.38571 0.34669,-0.50149c0.10746,-0.11578 0.19573,-0.23603 0.19573,-0.26674c0,-0.10043 0.68251,-1.1776 0.76886,-1.2147c0.04606,-0.01919 0.08443,-0.12409 0.08443,-0.23347c0,-0.10874 0.0371,-0.22068 0.08252,-0.24883c0.15927,-0.09851 1.51662,-2.95776 1.51662,-3.19507c0,-0.0742 0.04094,-0.18102 0.09211,-0.23667c0.23731,-0.26098 1.36886,-4.0407 1.46673,-4.89847c0.02687,-0.23475 0.11194,-0.66652 0.18998,-0.95948c0.07804,-0.2936 0.14456,-0.62942 0.14776,-0.74648c0.0032,-0.11706 0.04222,-0.52516 0.08571,-0.90639c0.09403,-0.813 0.10107,-5.88738 0.00959,-6.66264c-0.03518,-0.2936 -0.08635,-0.76055 -0.1145,-1.0388c-0.02814,-0.27761 -0.07548,-0.54435 -0.1049,-0.59232c-0.03006,-0.04733 -0.08316,-0.3 -0.11834,-0.56034c-0.11834,-0.86673 -0.12857,-0.92046 -0.19382,-1.02601c-0.03582,-0.05821 -0.09595,-0.26929 -0.13305,-0.46951c-0.09531,-0.51364 -0.09403,-0.50853 -0.30575,-1.21726c-0.1049,-0.35181 -0.20725,-0.71194 -0.22644,-0.79957c-0.05053,-0.22516 -0.45991,-1.37654 -0.62494,-1.75905c-0.17974,-0.41578 -0.43177,-1.05159 -0.44392,-1.11939c-0.01663,-0.09531 -1.00106,-2.06736 -1.25052,-2.50553c-0.13305,-0.23411 -0.31087,-0.54626 -0.39467,-0.69275c-0.08379,-0.14648 -0.15416,-0.29744 -0.15608,-0.33454c-0.00256,-0.0371 -0.15416,-0.27697 -0.33774,-0.53283c-0.18422,-0.25586 -0.34861,-0.513 -0.36588,-0.57185c-0.01727,-0.05885 -0.09019,-0.16503 -0.16183,-0.23731c-0.07164,-0.07164 -0.24179,-0.31151 -0.37804,-0.53283c-0.13625,-0.22132 -0.34989,-0.50597 -0.47526,-0.63262c-0.12537,-0.12601 -0.33454,-0.4017 -0.46439,-0.61279c-0.13049,-0.21045 -0.27633,-0.38315 -0.3243,-0.38315c-0.04797,0 -0.18294,-0.15096 -0.3,-0.33518c-0.11706,-0.18486 -0.75735,-0.88976 -1.42323,-1.56715c-1.15649,-1.17632 -1.54221,-1.53261 -2.48186,-2.2906c-0.23028,-0.18614 -0.50597,-0.42217 -0.61279,-0.52452c-0.10746,-0.10234 -0.24435,-0.18678 -0.30448,-0.18678c-0.06077,0 -0.13753,-0.07164 -0.17143,-0.15927c-0.03326,-0.08763 -0.10043,-0.13433 -0.14904,-0.1049c-0.04861,0.03006 -0.16311,-0.05245 -0.25522,-0.18422c-0.09211,-0.13113 -0.16759,-0.20213 -0.16759,-0.15735c0,0.04478 -0.05949,0.0307 -0.13305,-0.0307c-0.36396,-0.30703 -2.80808,-1.81534 -2.94113,-1.81534c-0.04478,0 -0.14136,-0.06013 -0.21428,-0.13305c-0.07356,-0.07356 -0.16695,-0.13433 -0.20789,-0.13561c-0.04158,-0.00128 -0.50661,-0.21045 -1.03432,-0.46439c-1.03048,-0.49637 -2.9891,-1.24541 -3.55136,-1.35799c-0.18934,-0.03774 -0.37036,-0.11066 -0.4017,-0.16183c-0.03134,-0.05053 -0.17143,-0.09275 -0.31151,-0.09275c-0.13944,0 -0.28401,-0.04861 -0.32047,-0.1081c-0.0371,-0.05949 -0.10618,-0.08443 -0.15352,-0.05501c-0.04733,0.02878 -0.34349,-0.02623 -0.65884,-0.12345c-2.08399,-0.64221 -7.02916,-1.05479 -9.7413,-0.81364m36.4168,12.26537c-1.36758,0.25778 -2.0405,2.06544 -1.2211,3.27887c0.19765,0.29232 0.35885,0.48806 0.35885,0.43624c0,-0.05181 0.08891,-0.01407 0.19765,0.08443c0.50916,0.46055 1.94967,0.46311 2.40958,0.00384c0.09019,-0.09083 0.16439,-0.13433 0.16439,-0.09659c0,0.11642 0.25586,-0.19765 0.47846,-0.58784c0.3742,-0.65501 0.13113,-2.85094 -0.2501,-2.26757c-0.03902,0.05949 -0.17399,-0.00384 -0.31215,-0.14584c-0.13369,-0.13753 -0.19957,-0.2501 -0.14648,-0.2501c0.05373,0 0.15672,0.07164 0.229,0.15863c0.07292,0.08763 0.17782,0.13049 0.23347,0.09659c0.14392,-0.08891 -0.52516,-0.55778 -0.97419,-0.68251c-0.38507,-0.10682 -0.70938,-0.1145 -1.16737,-0.02814m35.58397,0.142c-2.28932,1.17696 -0.97675,4.60679 1.50703,3.93771c1.82365,-0.49061 2.12429,-2.91299 0.4791,-3.85712c-0.55842,-0.32047 -1.44882,-0.35693 -1.98613,-0.0806m36.37138,-0.14712c-0.8565,0.1791 -1.57483,1.11492 -1.57483,2.05265c0,0.67867 0.4759,1.71299 0.78869,1.71299c0.05501,0 0.15735,0.05693 0.22708,0.12665c0.14456,0.14456 0.29808,0.18486 1.00554,0.26418c1.52941,0.17207 2.64689,-1.43986 2.0437,-2.94753c-0.17271,-0.43177 -0.30831,-0.53667 -0.38699,-0.30064c-0.02559,0.07868 -0.06972,0.05565 -0.11386,-0.05885c-0.0403,-0.10426 -0.02814,-0.15991 0.02623,-0.12601c0.05373,0.03326 0.12217,0.02175 0.15096,-0.02559c0.20021,-0.32303 -1.4373,-0.85074 -2.16651,-0.69786m-0.8194,0.81684c-0.16695,0.19637 -0.3243,0.33966 -0.34925,0.31919c-0.04606,-0.03838 0.52835,-0.67547 0.60895,-0.67547c0.02431,0 -0.09275,0.16055 -0.2597,0.35629m-36.4443,1.23261c0,0.34605 -0.03518,0.57441 -0.07804,0.50661c-0.12665,-0.19829 -0.0742,-1.13603 0.06269,-1.13603c0.00832,0 0.01535,0.28337 0.01535,0.62942m35.95049,0.3032c-0.02431,0.16119 -0.04478,0.02942 -0.04478,-0.29296c0,-0.32239 0.02047,-0.45415 0.04478,-0.29296c0.02431,0.16119 0.02431,0.42473 0,0.58592m-71.39245,1.05671c0.24307,0.25714 0.28273,0.33326 0.1177,0.2226c-0.22388,-0.14968 -0.61919,-0.61279 -0.52324,-0.61279c0.02111,0 0.20341,0.17527 0.40554,0.39019m-17.06853,0.48166c0.80852,0.38379 1.29402,0.83155 1.59338,1.46801l0.27761,0.59168l0,12.58008c0,9.83788 -0.02878,12.63765 -0.13305,12.84618c-0.38315,0.76886 -0.99658,1.42579 -1.61449,1.73026l-0.49125,0.24243l-15.54232,0.00896c-16.88879,0.00959 -16.205,0.03198 -16.81779,-0.5533c-0.11642,-0.1113 -0.31087,-0.29808 -0.43305,-0.41514c-0.12153,-0.1177 -0.34861,-0.45351 -0.50469,-0.74648l-0.28401,-0.53283l0.0032,-12.47326c0.00128,-6.86029 0.03006,-12.59351 0.06269,-12.73999c0.13561,-0.60191 0.93198,-1.70596 1.23069,-1.70596c0.06908,0 0.14136,-0.03582 0.16055,-0.07996c0.19829,-0.44584 -0.09211,-0.43816 16.39434,-0.4452l15.61268,-0.0064l0.4855,0.23092m109.22289,2.8503c-0.48742,0.20661 -0.48486,0.17718 -0.45288,4.7328c0.01663,2.37632 0.06972,4.36052 0.11834,4.40914c0.18358,0.18358 3.47396,0.17271 3.75733,-0.01279l0.25906,-0.16951l0,-4.29912c0,-5.22086 0.21748,-4.69442 -1.9567,-4.72832c-0.82963,-0.01343 -1.60617,0.01727 -1.72515,0.0678m-132.65215,5.19911c-1.71235,0.8437 -0.73688,3.76309 1.04967,3.1407c0.17463,-0.06077 0.31727,-0.08699 0.31727,-0.05885c0,0.05821 0.22964,-0.12409 0.52644,-0.41705c1.27675,-1.26204 -0.28401,-3.45797 -1.89338,-2.6648m9.61528,2.10254c-0.59168,0.27569 -1.42515,1.05543 -1.98165,1.85372c-0.19254,0.27633 -0.38635,0.51812 -0.42985,0.53731c-0.04414,0.01983 -0.07996,0.07228 -0.07996,0.1177c0,0.04478 -0.26418,0.50853 -0.5872,1.03048c-0.32303,0.52196 -0.62046,1.02025 -0.66076,1.10852c-0.32942,0.72153 -1.53069,2.53623 -1.99956,3.02045c-1.04392,1.07718 -1.4098,0.99658 -2.82919,-0.62238c-0.73944,-0.84306 -1.76289,-1.02409 -2.66224,-0.47079c-0.47398,0.29168 -2.05841,1.83133 -2.02451,1.96758c0.00959,0.03774 -0.07612,0.17654 -0.19062,0.30831c-0.11514,0.13241 -0.48806,0.73944 -0.82899,1.34967c-0.34094,0.61087 -0.64797,1.13411 -0.68187,1.16353c-0.0339,0.02942 -0.06972,0.10107 -0.07932,0.15991c-0.01023,0.05885 -0.16119,0.41833 -0.33646,0.79957c-0.76311,1.66374 -0.97867,2.17035 -0.97867,2.30659c0,0.12217 2.3034,0.1452 14.28796,0.1452l14.28732,0l-0.07164,-0.29296c-0.03966,-0.16119 -0.10171,-0.31727 -0.13753,-0.34669c-0.05949,-0.04797 -0.34797,-0.61663 -0.37868,-0.74584c-0.00704,-0.02942 -0.11834,-0.22132 -0.24691,-0.42665c-0.12921,-0.20533 -0.23475,-0.42729 -0.23475,-0.49317c-0.00064,-0.06652 -0.07228,-0.17974 -0.15927,-0.25202c-0.08763,-0.07228 -0.13241,-0.17463 -0.10043,-0.22644c0.03198,-0.05181 0.01855,-0.09467 -0.03006,-0.09467c-0.04861,0 -0.18166,-0.17974 -0.29552,-0.39978c-0.11386,-0.2194 -0.34094,-0.6 -0.50405,-0.84498c-0.16375,-0.24563 -0.29744,-0.46887 -0.29744,-0.49637c0,-0.06844 -1.35287,-2.20169 -2.35073,-3.7068c-0.44328,-0.66844 -0.81172,-1.255 -0.8194,-1.30489c-0.00768,-0.04925 -0.08316,-0.1452 -0.16823,-0.213c-0.08507,-0.0678 -0.3275,-0.38699 -0.53987,-0.71002c-0.21173,-0.32239 -0.42409,-0.63454 -0.47206,-0.69339c-0.04733,-0.05885 -0.31087,-0.41833 -0.58528,-0.79957c-0.78997,-1.09637 -0.8501,-1.17121 -1.31065,-1.63688c-1.35095,-1.36758 -2.29828,-1.66054 -3.52194,-1.09125m124.63984,1.66246c1.13667,0 1.65351,-0.03902 1.75905,-0.13305c0.12729,-0.11322 0.12857,-0.10554 0.00832,0.05309c-0.12345,0.16375 -0.34349,0.18678 -1.76736,0.18678c-1.42451,0 -1.64391,-0.02303 -1.768,-0.18678c-0.11962,-0.15863 -0.11834,-0.16631 0.00832,-0.05309c0.10554,0.09403 0.62238,0.13305 1.75969,0.13305m-2.77226,7.94323c-0.91471,0.42345 -0.98891,0.69211 -0.99274,3.58015c-0.00512,3.75413 -0.04989,3.70936 3.74134,3.72599c3.89869,0.01663 3.75477,0.16311 3.75477,-3.81426c0,-2.17355 -0.03134,-2.84518 -0.13305,-2.87972c-0.07356,-0.02431 -0.13369,-0.10298 -0.13369,-0.17527c0,-0.55266 -5.20039,-0.91662 -6.23663,-0.43688m5.45369,0.13433c0.0678,0.04286 -1.13922,0.07804 -2.68143,0.07804c-1.54285,0 -2.74987,-0.03518 -2.68207,-0.07804c0.0678,-0.04286 1.27483,-0.07868 2.68207,-0.07868c1.40724,0 2.61363,0.03582 2.68143,0.07868m-6.06648,4.79549c-0.01855,0.74776 -0.0339,0.13625 -0.0339,-1.35927c0,-1.49487 0.01535,-2.10638 0.0339,-1.35927c0.01791,0.74776 0.01791,1.97141 0,2.71853m6.52511,1.79167c-0.07548,0.09147 -0.23731,0.21556 -0.35949,0.27633c-0.13305,0.06588 -0.09403,0.00064 0.09787,-0.16247c0.36652,-0.31215 0.45927,-0.35245 0.26162,-0.11386" id="path0"/>
 </g>
</svg>