<svg width="242" height="68" xmlns="http://www.w3.org/2000/svg" version="1.1">
 <g>
  <title>Layer 1</title>
  <path id="path0" d="m146.42731,20.57365c-1.48523,0.24163 -3.70539,1.0495 -4.38475,1.59634c-1.6606,1.33731 -2.05617,1.76033 -2.61505,2.79644c-1.27306,2.36138 -1.2001,5.64174 0.17068,7.6524c1.21951,1.78911 3.11772,2.90487 6.71802,3.94835c3.09563,0.89757 3.91221,1.18337 5.28365,1.84667c4.34995,2.10436 3.02067,6.83716 -2.08562,7.4255c-3.21276,0.37081 -6.20598,-0.9558 -7.66645,-3.3975c-0.48995,-0.81925 -0.27175,-0.87882 -3.68932,1.0147l-0.51605,0.2858l0.34203,0.56558c1.07628,1.77706 2.50595,3.11705 4.5735,4.28502c1.73021,0.97855 5.26759,1.56354 7.47369,1.23691c2.28642,-0.33935 2.94369,-0.52074 4.30711,-1.19006c2.77971,-1.36475 4.18529,-3.69535 4.18998,-6.94626c0.00469,-3.29442 -1.42834,-5.48111 -4.51527,-6.8887c-0.85874,-0.39156 -1.34133,-0.58566 -1.45511,-0.58566c-0.07095,0 -0.28714,-0.07095 -0.48058,-0.15729c-0.19344,-0.08701 -0.72756,-0.26706 -1.18805,-0.40093c-0.45983,-0.13387 -0.98725,-0.28781 -1.17132,-0.34136c-0.18406,-0.05422 -0.71082,-0.20548 -1.17132,-0.33667c-3.62239,-1.0321 -4.95903,-1.88884 -5.45567,-3.49722c-1.17935,-3.81716 4.23415,-6.47974 8.67111,-4.26561c0.65728,0.32797 2.13849,1.44775 2.13983,1.61709c0,0.0415 0.13855,0.22623 0.30789,0.4103c0.16934,0.18406 0.39825,0.47589 0.50936,0.64858c0.13788,0.21552 0.2423,0.28179 0.33265,0.21017c0.07296,-0.05689 0.35809,-0.23025 0.63452,-0.38486c0.58767,-0.32864 2.67329,-1.60437 2.75294,-1.68402c0.03012,-0.03012 -0.19946,-0.43171 -0.5107,-0.89288c-1.68737,-2.5006 -3.91355,-3.93496 -7.03929,-4.53669c-0.49664,-0.09504 -3.92292,-0.12115 -4.46239,-0.03414m-59.23529,14.59397l0,14.22316l2.17464,0l2.17531,0l0.02811,-10.34375l0.02878,-10.34308l0.8902,1.3353c0.48995,0.73425 0.91965,1.36074 0.95446,1.39153c0.0348,0.03012 0.1834,0.25635 0.33065,0.50199c0.14658,0.24497 0.2945,0.47121 0.32864,0.50199c0.03414,0.03012 1.21483,1.7871 2.62442,3.90417c1.4096,2.11708 2.60167,3.89882 2.64919,3.9604c0.04685,0.06091 1.10773,1.64252 2.35603,3.51396c1.24896,1.87076 2.59364,3.87874 2.98854,4.46172l0.71752,1.06021l2.0883,0.03012l2.08763,0.03012l0,-14.22517l0,-14.22584l-2.17464,0l-2.17464,0l-0.02811,10.34375c-0.02276,8.22601 -0.05689,10.31029 -0.16666,10.17977c-0.07563,-0.09103 -1.20545,-1.77103 -2.50997,-3.73484c-1.30452,-1.96313 -2.39953,-3.59495 -2.43367,-3.62507c-0.03414,-0.03079 -0.18273,-0.25702 -0.33132,-0.50199c-0.14792,-0.24564 -0.30856,-0.49664 -0.35675,-0.55822c-0.04819,-0.06091 -1.8788,-2.80983 -4.06816,-6.10759l-3.97981,-5.99582l-2.099,0l-2.09967,0l0,14.22316m34.80425,-13.41462c-0.14591,0.4451 -0.33065,0.93438 -0.4103,1.08765c-0.07965,0.15394 -0.14524,0.34269 -0.14591,0.42034c-0.00067,0.07697 -0.04685,0.22757 -0.10375,0.33466c-0.05622,0.10642 -0.54015,1.39822 -1.07494,2.87074c-0.53479,1.47252 -1.03612,2.8279 -1.11376,3.01196c-0.07764,0.18406 -0.2771,0.73626 -0.44309,1.22687c-0.16599,0.49128 -0.36545,1.04348 -0.44376,1.22754c-0.25167,0.59436 -1.52807,4.08422 -1.63449,4.46842c-0.05622,0.20481 -0.17603,0.51337 -0.26572,0.68539c-0.08969,0.17135 -0.16332,0.39691 -0.16332,0.50066c-0.00067,0.10375 -0.05087,0.21954 -0.11245,0.25769c-0.06158,0.03815 -0.11178,0.14591 -0.11178,0.24096c0,0.09437 -0.06961,0.32998 -0.15528,0.52274c-0.08567,0.19344 -0.66933,1.75765 -1.29648,3.47514c-0.62783,1.71816 -1.21081,3.2817 -1.29514,3.47514c-0.08433,0.19344 -0.15328,0.40762 -0.15328,0.47589c0,0.06827 -0.04618,0.21084 -0.10241,0.31793c-0.05689,0.10642 -0.3032,0.74563 -0.54885,1.42031c-0.24497,0.67535 -0.48058,1.31589 -0.52341,1.42499c-0.07363,0.1854 0.06091,0.19544 2.24893,0.16733l2.32724,-0.03012l0.14123,-0.44644c0.07831,-0.24564 0.18607,-0.54684 0.24029,-0.66933c0.09638,-0.21954 0.52408,-1.41964 1.01336,-2.84463c0.13721,-0.39892 0.3186,-0.88351 0.4036,-1.07694c0.085,-0.19277 0.15461,-0.39022 0.15461,-0.43774c0,-0.0763 0.17469,-0.58298 0.85272,-2.47316l0.17001,-0.47455l5.04738,0l5.04738,0l0.11981,0.251c0.06559,0.13855 0.22958,0.57763 0.36411,0.97655c0.1352,0.39825 0.28446,0.82528 0.33332,0.94776c0.04819,0.12316 0.27175,0.75031 0.49731,1.39487c0.55152,1.57693 1.14388,3.24087 1.47921,4.15517l0.27576,0.75299l2.27704,0c1.25231,0 2.27704,-0.03079 2.27704,-0.06894c0,-0.03815 -0.49597,-1.40625 -1.10238,-3.04008c-0.60641,-1.63382 -1.13919,-3.0963 -1.18404,-3.24957c-0.04484,-0.15328 -0.14524,-0.42971 -0.22355,-0.61377c-0.07898,-0.18406 -0.62917,-1.66461 -1.22286,-3.2904c-0.59436,-1.62646 -1.1325,-3.08157 -1.19675,-3.23552c-0.06359,-0.15328 -0.21552,-0.57964 -0.33667,-0.94776c-0.12048,-0.36813 -0.28513,-0.81992 -0.36545,-1.00399c-0.07965,-0.18406 -0.63117,-1.66528 -1.22553,-3.29107c-0.59369,-1.62579 -1.64052,-4.47444 -2.32657,-6.32981l-1.24628,-3.37407l-2.23889,-0.00067l-2.23889,-0.00067l-0.26438,0.80854m38.17765,1.22754l0.03079,2.03542l4.26695,0.02945l4.26695,0.02945l0,12.15763l0,12.15829l2.17531,0l2.17531,0l0,-12.15963l0,-12.15896l4.23884,0l4.23884,0l0,-2.0642l0,-2.06353l-10.71121,0l-10.71188,0l0.03012,2.03609m66.68421,10.26277c0,14.5518 -0.03146,14.12946 1.16061,15.32086c0.78445,0.78378 1.47252,0.97655 3.66389,1.02608l1.86876,0.04217l0,-1.96112l0,-1.96179l-0.86477,-0.00335c-0.89823,-0.00402 -1.06824,-0.07095 -1.39956,-0.55152c-0.17603,-0.25568 -0.19009,-1.15057 -0.19009,-12.24263l0,-11.96754l-2.11908,0l-2.11975,0l0,12.29885m-101.92419,-5.38271c0.15328,0.4605 0.51337,1.48925 0.80051,2.28708c0.28714,0.79784 0.5716,1.60103 0.63251,1.78509c0.06091,0.18406 0.15194,0.43506 0.20214,0.55755c0.0502,0.12249 0.2771,0.75031 0.504,1.3942c0.2269,0.64456 0.4538,1.27172 0.504,1.39487c0.0502,0.12249 0.16532,0.44845 0.25568,0.72488c0.09103,0.27643 0.2008,0.58968 0.2443,0.69744c0.07496,0.1834 -0.13788,0.19477 -3.55479,0.19477l-3.63377,0l0.44376,-1.23959c0.2443,-0.68137 0.57227,-1.62244 0.7289,-2.09164c0.15662,-0.46853 0.33199,-0.95245 0.39089,-1.07494c0.05823,-0.12249 0.15127,-0.37348 0.20615,-0.55755c0.05488,-0.18406 0.33399,-0.98725 0.62046,-1.78509c0.28647,-0.79784 0.61846,-1.73824 0.73693,-2.08963c0.49999,-1.47787 0.49262,-1.47586 0.91831,-0.19745m65.39041,0.99462c-4.50724,1.0997 -6.89405,4.49519 -7.05134,10.03118c-0.23159,8.13565 5.55808,12.84636 12.88585,10.48431c5.59489,-1.80249 7.973,-9.7775 4.80107,-16.09928c-1.77237,-3.53337 -6.39273,-5.45099 -10.63558,-4.41621m21.1808,0.05622c-4.96907,1.21081 -7.71063,6.33784 -6.74546,12.61477c0.80988,5.26826 4.28904,8.41944 9.29894,8.42212c5.89943,0.00335 9.59746,-4.12304 9.59746,-10.70921c0,-7.53058 -5.26558,-12.00636 -12.15093,-10.32769m-17.23847,3.80645c5.21204,1.81521 5.07817,11.7895 -0.1767,13.15157c-2.25429,0.58432 -4.65516,-0.43506 -5.65312,-2.39886c-1.7871,-3.51931 -0.99395,-8.46094 1.63315,-10.17241c1.1151,-0.72622 3.02067,-0.98993 4.19667,-0.58031m21.45589,0.03882c3.26965,1.12514 4.68126,5.60895 3.1291,9.94082c-1.67666,4.67858 -7.97166,4.38676 -9.55127,-0.44242c-1.84265,-5.63304 1.8373,-11.07533 6.42218,-9.4984" fill="#4c4c4c" fill-rule="evenodd" stroke="null"/>
  <path id="path1" d="m32.41551,0.26904c-0.02463,0.02463 -0.92065,0.07009 -1.99159,0.10166c-1.07094,0.0322 -2.63377,0.11113 -3.47296,0.17617c-0.83919,0.06567 -1.71564,0.13008 -1.94675,0.14397c-0.23174,0.01389 -0.96612,0.08714 -1.63166,0.16228c-0.66555,0.07577 -1.37593,0.1465 -1.57862,0.15849c-0.20269,0.012 -0.53421,0.05178 -0.73627,0.0884c-0.20269,0.03662 -0.65292,0.09535 -1.00021,0.13071c-0.3473,0.03473 -0.84425,0.10419 -1.10503,0.15281c-0.26016,0.04925 -0.75774,0.11998 -1.10503,0.1566c-1.28563,0.13702 -3.54558,0.72175 -4.22691,1.09367c-0.10608,0.05809 -0.57209,0.2911 -1.03494,0.51779c-0.94149,0.46159 -1.5521,0.78426 -1.63103,0.86319c-0.02905,0.02905 -0.14776,0.1124 -0.26331,0.18565c-0.51652,0.32646 -0.8613,0.56199 -1.10503,0.75521c-1.60577,1.27174 -1.68912,1.3494 -2.66534,2.47591c-0.29931,0.3454 -0.6687,0.75774 -0.82088,0.91623c-0.15218,0.15849 -0.25132,0.31383 -0.21974,0.3454c0.03157,0.03157 0.00253,0.05746 -0.06504,0.05746c-0.06756,0 -0.12313,0.07072 -0.12313,0.15786c0,0.08651 -0.04736,0.15786 -0.10482,0.15786c-0.05809,0 -0.10545,0.05052 -0.10545,0.1124c0,0.06188 -0.1124,0.26268 -0.25005,0.44707c-0.40855,0.5481 -1.60451,2.79795 -1.5622,2.94002c0.01263,0.04294 -0.024,0.07893 -0.08209,0.07893c-0.05809,0 -0.10545,0.08651 -0.10545,0.19259c0,0.10608 -0.03536,0.22858 -0.07893,0.27215c-0.04294,0.04357 -0.08272,0.1105 -0.08777,0.14902c-0.00505,0.03852 -0.03726,0.14144 -0.07072,0.22795c-0.1004,0.25511 -0.28794,0.88971 -0.28036,0.94717c0.00379,0.02905 -0.04546,0.18943 -0.10861,0.35614c-0.06378,0.16733 -0.14081,0.47548 -0.17175,0.68449c-0.03094,0.20901 -0.07577,0.45149 -0.1004,0.53799c-0.04168,0.14902 -0.35929,2.37993 -0.41928,2.94697c-0.01515,0.1446 -0.08083,0.7129 -0.14586,1.2629c-0.1345,1.13724 -0.18501,1.59883 -0.26521,2.42034c-0.03094,0.31825 -0.0884,0.83919 -0.12755,1.15744c-0.08019,0.65607 -0.09535,0.86003 -0.18312,2.47338c-0.03473,0.6365 -0.09661,1.72575 -0.13702,2.42034c-0.09409,1.60767 -0.09724,9.20841 -0.00442,10.73462c0.03915,0.63713 0.09724,1.74974 0.13008,2.47338c0.03284,0.72364 0.10293,1.64682 0.1566,2.05221c0.08903,0.68133 0.19701,1.79458 0.25953,2.68365c0.01452,0.20269 0.08335,0.79436 0.15344,1.31531c0.07009,0.52094 0.14334,1.08925 0.16291,1.2629c0.01957,0.17365 0.06062,0.4578 0.09156,0.63145c0.03094,0.17365 0.08272,0.57651 0.11492,0.89476c0.05557,0.54115 0.0783,0.68765 0.21406,1.36835c0.02842,0.1446 0.08146,0.49948 0.11808,0.78931c0.03599,0.2892 0.1004,0.57335 0.14334,0.63145c0.04294,0.05746 0.14018,0.34161 0.21596,0.63145c0.07577,0.2892 0.17239,0.57335 0.21469,0.63145c0.04168,0.05746 0.10924,0.25889 0.14965,0.44707c0.04041,0.18817 0.11682,0.34224 0.16986,0.34224c0.05367,0 0.09787,0.05872 0.09851,0.13134c0.00316,0.25068 1.01537,2.13493 1.61146,2.99938c0.32898,0.47737 0.57651,0.86824 0.54999,0.86824c-0.02652,0 0.05557,0.11113 0.18375,0.24626c0.12755,0.13576 0.44517,0.49695 0.70533,0.80257c0.58409,0.68575 1.07599,1.17765 1.79142,1.79268c0.30373,0.26016 0.61314,0.53294 0.68828,0.60493c0.07514,0.07262 0.1667,0.13197 0.20396,0.13197c0.03726,0 0.13387,0.05872 0.21406,0.13134c0.35993,0.32267 0.52094,0.4338 1.33867,0.92444c0.47737,0.28605 0.96043,0.5923 1.07346,0.67944c0.11303,0.08714 0.29047,0.15912 0.39466,0.15912c0.10419,0 0.1888,0.04736 0.1888,0.10482c0,0.05809 0.08461,0.10545 0.18754,0.10545c0.10293,0 0.28036,0.06567 0.39466,0.14523c0.11366,0.08019 0.24184,0.15344 0.28415,0.16291c0.04231,0.00884 0.24248,0.08588 0.44391,0.16986c0.20206,0.08461 0.42938,0.15344 0.50516,0.15344c0.07577,0 0.23995,0.07199 0.36561,0.15976c0.12566,0.08777 0.26647,0.15092 0.3132,0.14081c0.08967,-0.02084 0.61124,0.09787 0.87392,0.19827c0.08651,0.03347 0.1888,0.05494 0.22669,0.04736c0.03726,-0.00695 0.5582,0.07704 1.15744,0.18691c0.59861,0.1105 1.37277,0.23111 1.72006,0.269c0.78363,0.08525 1.07094,0.11871 2.7367,0.31509c0.17365,0.02021 0.64723,0.06756 1.05199,0.10482c0.40539,0.03662 0.99706,0.10924 1.31594,0.16102c0.31825,0.05178 1.21743,0.12376 1.99853,0.15976c0.7811,0.03599 1.4517,0.08525 1.49148,0.10924c0.39339,0.24311 12.7963,0.23932 14.55867,-0.00442c0.17365,-0.024 0.81267,-0.07325 1.42076,-0.10987c1.98527,-0.11871 2.15576,-0.13324 2.31552,-0.19385c0.08651,-0.03284 0.56009,-0.08777 1.05199,-0.1225c0.4919,-0.03473 1.03684,-0.08272 1.21049,-0.10671c0.17365,-0.02336 0.56641,-0.0663 0.87266,-0.09409c0.30688,-0.02842 0.63839,-0.07514 0.7369,-0.10356c0.09851,-0.02842 0.48748,-0.08525 0.86382,-0.12566c0.85372,-0.09219 1.04442,-0.11808 1.89434,-0.25447c0.37571,-0.06062 0.82593,-0.13008 0.99958,-0.15534c0.4679,-0.06693 0.77731,-0.14081 0.89476,-0.21343c0.05746,-0.03536 0.2109,-0.0884 0.34161,-0.11745c0.43128,-0.09598 0.63271,-0.16797 1.31468,-0.47232c0.245,-0.10987 0.46853,-0.19954 0.49695,-0.19954c0.56515,0 3.66429,-1.97264 5.08316,-3.23617c0.1465,-0.13008 0.30688,-0.23679 0.35614,-0.23679c0.04925,0 0.0783,-0.04736 0.06378,-0.10482c-0.01452,-0.05809 0.23869,-0.35424 0.56325,-0.65797c0.32456,-0.30373 0.89287,-0.95538 1.2629,-1.44728c0.37003,-0.4919 0.7047,-0.91813 0.74321,-0.9478c0.03852,-0.02905 0.24121,-0.36056 0.44959,-0.7369c1.30457,-2.34836 2.12356,-4.49907 2.3332,-6.12947c0.02021,-0.15912 0.06567,-0.41928 0.1004,-0.57841c0.03473,-0.15912 0.07956,-0.43191 0.09914,-0.60556c0.02021,-0.17365 0.05999,-0.48116 0.08777,-0.68386c0.02842,-0.20269 0.08209,-0.67628 0.11998,-1.05262c0.03726,-0.37634 0.09093,-0.84993 0.11808,-1.05199c0.06062,-0.44643 0.11113,-0.90045 0.24753,-2.21007c0.05746,-0.54999 0.12945,-1.21301 0.15976,-1.4738c0.48874,-4.16819 0.56767,-13.40564 0.15786,-18.46986c-0.06567,-0.81015 -0.1326,-1.6626 -0.14965,-1.89434c-0.0562,-0.77289 -0.17049,-1.89119 -0.22101,-2.15703c-0.02778,-0.1446 -0.07135,-0.5241 -0.09787,-0.84235c-0.02589,-0.31825 -0.06946,-0.6807 -0.09598,-0.80636c-0.02652,-0.12503 -0.07704,-0.5904 -0.11303,-1.03431c-0.03536,-0.44391 -0.11177,-1.05199 -0.16923,-1.3513c-0.05746,-0.29931 -0.12945,-0.80446 -0.16102,-1.12271c-0.03094,-0.31825 -0.1004,-0.71669 -0.1547,-0.88529c-0.05367,-0.1686 -0.07704,-0.32709 -0.05178,-0.35298c0.02526,-0.02526 -0.00189,-0.17175 -0.06125,-0.32456c-0.05936,-0.15344 -0.12313,-0.35109 -0.14081,-0.43949c-0.1345,-0.65986 -1.42897,-3.71292 -1.62661,-3.83478c-0.06314,-0.03915 -0.08714,-0.11492 -0.0543,-0.16923c0.03347,-0.05367 0.01073,-0.09787 -0.05052,-0.09787c-0.06125,0 -0.11177,-0.04483 -0.11177,-0.1004c0,-0.09661 -0.40918,-0.76342 -0.62955,-1.0261c-0.05872,-0.07009 -0.10671,-0.1547 -0.10671,-0.1888c0,-0.0682 -0.04546,-0.12629 -0.57651,-0.7369c-0.20143,-0.23111 -0.36687,-0.45527 -0.36813,-0.49821c-0.00189,-0.04231 -0.34982,-0.43254 -0.77352,-0.86824c-0.4237,-0.43507 -0.74385,-0.7912 -0.71038,-0.7912c0.03347,-0.00063 -0.06946,-0.08651 -0.22795,-0.1907c-0.24942,-0.16481 -1.17197,-0.94528 -1.61777,-1.36898c-0.08019,-0.07641 -0.14586,-0.10419 -0.14586,-0.06251c0,0.04231 -0.08903,-0.00379 -0.19827,-0.10229c-0.18123,-0.16481 -2.09009,-1.3273 -2.1785,-1.3273c-0.02147,0 -0.37761,-0.16481 -0.7931,-0.36687c-0.73437,-0.3574 -1.763,-0.74006 -2.72407,-1.01284c-0.51779,-0.14713 -0.5904,-0.16228 -1.20985,-0.25132c-0.23174,-0.03347 -0.75269,-0.11177 -1.15808,-0.17365c-0.95538,-0.1465 -1.11072,-0.16481 -2.05221,-0.24058c-0.4338,-0.03473 -1.00211,-0.10671 -1.2629,-0.15976c-0.26016,-0.05304 -0.54431,-0.09409 -0.63145,-0.09093c-0.08651,0.00253 -0.67881,-0.05367 -1.31531,-0.12503c-0.6365,-0.07135 -1.34688,-0.1446 -1.57862,-0.16165c-0.23174,-0.01768 -1.13156,-0.08714 -1.9998,-0.1547c-2.41908,-0.1888 -10.56539,-0.39592 -10.68979,-0.27152m25.94999,13.14928c0.95475,0.4458 1.57546,1.24648 1.72512,2.22585c0.08146,0.53673 0.07072,30.00452 -0.01137,30.37644c-0.14334,0.64976 -0.93012,1.72196 -1.2629,1.72196c-0.04988,0 -0.12566,0.05809 -0.16986,0.12818c-0.17365,0.28163 -0.89666,0.41549 -1.99096,0.36813l-1.07914,-0.0461l0,0.25574c0,0.24311 -0.03094,0.25574 -0.60493,0.24563c-0.55946,-0.00947 -0.60303,-0.02778 -0.5803,-0.24374l0.02526,-0.23364l-11.53971,-0.02652l-11.54035,-0.02652l0.42749,-0.49379c0.2349,-0.27152 0.45969,-0.46096 0.49948,-0.42054c0.03978,0.03978 0.05809,0.02463 0.03978,-0.03284c-0.01768,-0.05809 0.16355,-0.43696 0.40223,-0.84235c0.23932,-0.40476 0.46601,-0.84298 0.50453,-0.97306c0.06946,-0.23616 0.07956,-0.23679 2.25174,-0.23679c1.55652,0 2.21828,-0.03662 2.30794,-0.12629c0.18375,-0.18375 0.18375,-28.61092 0,-28.79404c-0.09345,-0.09345 -1.08104,-0.12629 -3.79121,-0.12629l-3.66493,0l-0.08209,0.23679c-0.04546,0.13008 -0.07641,4.20797 -0.06946,9.06254c0.01137,7.32732 -0.0101,8.79355 -0.12566,8.63568c-0.07577,-0.10419 -0.14018,-0.14523 -0.14208,-0.09093c-0.00189,0.05494 -0.07262,0.00758 -0.15786,-0.10482c-0.08461,-0.1124 -0.15407,-0.17554 -0.15407,-0.14081c0,0.03536 -0.28415,-0.07388 -0.63082,-0.24184l-0.63082,-0.30562l-0.02715,-8.49929l-0.02715,-8.49929l-3.67061,-0.02778c-2.62177,-0.01957 -3.71228,0.00631 -3.81521,0.09219c-0.11998,0.09914 -0.14397,1.57294 -0.14397,8.72914c0,9.24503 0.02589,8.75945 -0.46159,8.71904c-0.05178,-0.00442 -0.1225,0.03789 -0.15786,0.09345c-0.07451,0.11745 -1.04063,0.86382 -1.11766,0.86382c-0.02842,0 -0.05178,-4.31279 -0.05178,-9.58349l0,-9.58412l0.25005,-0.5462c0.25953,-0.56767 1.15176,-1.49653 1.33109,-1.3854c0.0562,0.03473 0.10229,0.01452 0.10229,-0.04483c0,-0.28352 1.39045,-0.30625 18.99649,-0.31446l18.312,-0.00884l0.526,0.24563m-18.52732,2.84846c-0.13513,0.09914 -0.15092,1.9417 -0.12755,14.53215l0.02715,14.41786l3.67124,0.02778c2.63188,0.01957 3.71165,-0.00631 3.81521,-0.09282c0.15912,-0.13197 0.22164,-28.91149 0.06314,-28.94558c-0.40792,-0.08777 -7.32417,-0.03157 -7.44919,0.06062m9.36753,-0.01768c-0.02778,0.07262 -0.03789,6.59611 -0.02336,14.49679l0.02715,14.36545l3.78869,0l3.78869,0l0.05241,-14.38249c0.04988,-13.57424 0.04231,-14.38944 -0.13008,-14.49742c-0.2791,-0.17428 -7.4372,-0.15723 -7.5035,0.01768m-21.75402,8.73482c0.01452,4.32668 0.00568,7.86721 -0.02021,7.86721c-0.02526,0 -0.36813,-0.07451 -0.7609,-0.16607c-0.8272,-0.19196 -2.68744,-0.21848 -3.43634,-0.04988c-0.27847,0.06314 -0.55062,0.08714 -0.60493,0.05367c-0.0543,-0.03347 -0.09851,-0.01579 -0.09851,0.03915c0,0.0543 -0.16923,0.13134 -0.37571,0.16986c-0.20711,0.03915 -0.43191,0.09219 -0.50011,0.11808c-0.09787,0.03789 -0.14902,-11.13117 -0.07262,-15.87398c0.00063,-0.0442 1.31531,-0.0682 2.92171,-0.05241l2.92045,0.02778l0.02715,7.86658m9.53866,-7.75229c0.08019,0.20964 0.08272,23.76076 0.00253,23.9704c-0.04673,0.1225 -0.34856,0.15597 -1.52495,0.16733l-1.46559,0.01515l-0.01579,-0.39908c-0.03094,-0.78805 -0.05494,-1.03305 -0.11871,-1.18839c-0.16228,-0.39529 -0.37319,-1.26353 -0.30752,-1.26479c0.04041,-0.00063 0.02589,-0.03662 -0.03157,-0.07893c-0.05809,-0.04231 -0.27721,-0.43254 -0.48685,-0.86635c-0.39592,-0.81836 -0.95033,-1.61588 -1.63924,-2.35783l-0.39971,-0.43128l0.01768,-8.84027c0.00947,-4.86215 0.02147,-8.85227 0.02589,-8.86679c0.04736,-0.14208 5.88825,-0.00379 5.94382,0.14081m9.48309,11.98867l0,12.10234l-2.7367,0.03094c-1.50474,0.01705 -2.84278,0.00442 -2.97286,-0.02778l-0.23679,-0.05936l0,-12.03098c0,-6.61695 0.0322,-12.06255 0.07199,-12.10234c0.03915,-0.03915 1.37719,-0.05936 2.97286,-0.04357l2.9015,0.02778l0,12.10297m9.50329,-12.02909c0.14776,0.14776 0.18438,23.82454 0.03662,24.05691c-0.06756,0.10671 -0.70785,0.12945 -2.99938,0.10545l-2.91287,-0.03094l0.00063,-12.07645c0.00063,-6.64157 0.00126,-12.09981 0.00189,-12.12886c0.00126,-0.12376 5.74744,-0.05178 5.8731,0.07388m3.06505,2.37298c-0.00442,0.04357 -0.02273,0.15218 -0.04041,0.24184c-0.02273,0.11366 0.06251,0.16986 0.28478,0.18691c0.46538,0.03536 0.69901,-0.0682 0.68133,-0.30183c-0.01579,-0.20648 -0.9055,-0.32835 -0.9257,-0.12692m-0.04736,1.6083c-0.12376,0.20143 0.1105,0.32835 0.54115,0.29299c0.27784,-0.02273 0.40855,-0.08335 0.40855,-0.19133c0,-0.19449 -0.83667,-0.28415 -0.9497,-0.10166m0,1.4738c-0.12376,0.2008 0.1105,0.32835 0.54115,0.29299c0.27784,-0.02273 0.40855,-0.08398 0.40855,-0.19133c0,-0.19512 -0.83667,-0.28478 -0.9497,-0.10166m0.0562,1.46433c-0.25574,0.16607 0.02273,0.33972 0.48495,0.30183c0.27784,-0.02273 0.40855,-0.08398 0.40855,-0.19133c0,-0.18754 -0.65165,-0.26837 -0.8935,-0.1105m-0.10608,1.56283c0,0.32962 0.8695,0.4799 0.98822,0.17049c0.03536,-0.09156 0.06378,-0.18628 0.06378,-0.2109c0,-0.024 -0.23679,-0.04357 -0.526,-0.04357c-0.2892,0 -0.526,0.03789 -0.526,0.08398m-32.21396,7.54012c0.19764,0.04231 0.48179,0.12692 0.63145,0.1888c0.15028,0.06188 0.36182,0.12945 0.4698,0.14965c2.18165,0.41928 5.26249,4.01538 5.47592,6.39215c0.01894,0.21217 0.06441,0.41549 0.10103,0.45212c0.19891,0.19891 -0.03662,3.50517 -0.24942,3.50517c-0.0322,0 -0.06756,0.1124 -0.07893,0.25005c-0.01137,0.13766 -0.07704,0.38645 -0.14586,0.55252c-0.06883,0.16607 -0.13324,0.32583 -0.14271,0.35487c-0.18186,0.54241 -0.8695,1.67776 -1.27489,2.10462c-0.13766,0.14523 -0.35677,0.38708 -0.48748,0.53799c-0.78805,0.91118 -2.66471,1.98654 -4.13093,2.36604c-0.79436,0.20522 -3.18502,0.27657 -3.57842,0.10608c-0.11556,-0.04988 -0.34098,-0.10798 -0.50011,-0.12882c-0.53042,-0.06946 -1.49022,-0.4578 -2.31299,-0.93517c-0.96485,-0.56073 -0.88971,-0.55252 -1.31783,-0.15092c-0.39592,0.37129 -0.39971,0.38708 -0.16544,0.64597c0.18438,0.20333 -0.49,1.11072 -0.71985,0.96864c-0.04862,-0.02968 -0.08777,0.01073 -0.08777,0.09093c0,0.07956 -0.11871,0.24816 -0.26331,0.37382c-0.1446,0.12566 -0.26331,0.20901 -0.26331,0.18501c0,-0.024 -0.43696,0.40223 -0.97117,0.9478c-0.53484,0.54557 -1.03179,0.99137 -1.10503,0.99137c-0.07388,0 -0.13387,0.07135 -0.13387,0.15786c0,0.08714 -0.03536,0.14713 -0.07893,0.13387c-0.04294,-0.01389 -0.57904,0.48432 -1.19091,1.10693l-1.11135,1.13092l-0.783,-0.82025c-0.43002,-0.45149 -0.98885,-1.04884 -1.2408,-1.3273l-0.45906,-0.50705l0.39718,-0.40665c0.21848,-0.22353 0.44391,-0.37761 0.50137,-0.34224c0.05746,0.03599 0.07388,0.01515 0.03662,-0.04483c-0.03726,-0.06062 0.08525,-0.22732 0.27279,-0.37066c0.18754,-0.14334 0.62387,-0.54747 0.96927,-0.89855c0.3454,-0.35045 0.67249,-0.60998 0.7268,-0.57651c0.0543,0.03347 0.06946,0.01389 0.0341,-0.04294c-0.03536,-0.05683 0.13513,-0.28099 0.37824,-0.49758c0.24374,-0.21659 0.96612,-0.90992 1.60514,-1.54136c1.1063,-1.09241 1.16944,-1.13787 1.31278,-0.93959c0.20459,0.28478 0.35045,0.26268 0.69964,-0.10735c0.23553,-0.24942 0.49064,-0.91181 0.26458,-0.68512c-0.0884,0.08777 -0.66618,-0.88782 -0.59482,-1.00337c0.0341,-0.05557 0.01768,-0.1004 -0.03662,-0.1004c-0.07893,0 -0.35109,-0.50768 -0.39466,-0.7369c-0.00568,-0.02905 -0.06883,-0.19449 -0.14081,-0.36813c-0.07199,-0.17365 -0.14713,-0.43444 -0.1667,-0.57904c-0.01957,-0.1446 -0.08967,-0.49695 -0.1547,-0.783c-0.14081,-0.61377 -0.13197,-2.12356 0.01515,-2.79542c0.05746,-0.26016 0.12629,-0.58788 0.15281,-0.72743c0.09409,-0.49064 0.45843,-1.41697 0.58977,-1.50032c0.07325,-0.0461 0.09409,-0.08461 0.04736,-0.08588c-0.04736,-0.00063 0.04231,-0.23679 0.19891,-0.52473c0.1566,-0.28731 0.31762,-0.50263 0.3574,-0.47801c0.04041,0.02463 0.07262,-0.01894 0.07262,-0.09661c0,-0.19764 0.47927,-0.78363 0.6466,-0.79057c0.07577,-0.00316 0.11113,-0.04925 0.0783,-0.10229c-0.06946,-0.1124 1.19533,-1.27047 1.38919,-1.27111c0.07199,-0.00063 0.13134,-0.04294 0.13134,-0.09472c0,-0.23995 2.42855,-1.25721 3.36751,-1.41129c0.40539,-0.0663 2.95455,-0.00631 3.35804,0.07893m-2.83141,0.58346c0,0.04357 -0.24879,0.11808 -0.55252,0.16481c-0.30436,0.04736 -0.59988,0.09409 -0.65797,0.10419c-0.05809,0.0101 -0.27089,0.08272 -0.47359,0.16165c-0.20269,0.0783 -0.40413,0.13197 -0.44707,0.11934c-0.04357,-0.01263 -0.07893,0.02463 -0.07893,0.08272c0,0.05746 -0.0442,0.10482 -0.09787,0.10482c-0.38708,0 -3.04863,2.08125 -2.87877,2.25111c0.03284,0.03284 -0.01768,0.08903 -0.1124,0.12566c-0.09472,0.03599 -0.14965,0.10229 -0.1225,0.14713c0.02778,0.0442 -0.06504,0.20522 -0.20585,0.3574c-0.14081,0.15155 -0.23237,0.27594 -0.20269,0.27594c0.07514,0 -0.30373,0.66744 -0.43191,0.76153c-0.05809,0.04231 -0.06378,0.0783 -0.01326,0.07893c0.05052,0.00126 0.03284,0.07262 -0.03915,0.15976c-0.07199,0.08651 -0.1004,0.15786 -0.06314,0.15786c0.03789,0 -0.00505,0.14208 -0.09472,0.31572c-0.0903,0.17365 -0.14208,0.31572 -0.11556,0.31572c0.02652,0 0.00505,0.14902 -0.04736,0.33214c-0.3334,1.16313 -0.33593,2.39193 -0.00695,3.61441c0.04673,0.17365 0.07262,0.39844 0.05746,0.49948c-0.01452,0.10166 0.00631,0.18438 0.04799,0.18438c0.06504,0 0.36245,0.67691 0.37508,0.85498c0.01326,0.18438 1.16944,1.79394 1.62535,2.26185c0.64218,0.6586 2.09136,1.62408 2.69439,1.79458c2.01495,0.56893 2.69881,0.61314 4.68345,0.29931c0.19322,-0.03031 0.40792,-0.10798 1.17386,-0.42433c0.32709,-0.13576 0.62324,-0.21785 0.65734,-0.18312c0.03473,0.0341 0.06314,0.01137 0.06314,-0.05115c0,-0.06188 0.24563,-0.23553 0.54683,-0.38581c0.30057,-0.14965 0.50705,-0.27215 0.45906,-0.27215c-0.04799,0 0.04546,-0.10482 0.20775,-0.23237c0.83477,-0.65671 2.38561,-2.74806 2.36477,-3.18818c-0.00189,-0.02968 0.06693,-0.21974 0.15155,-0.42307c0.08525,-0.20396 0.1566,-0.39276 0.15912,-0.42054c0.00253,-0.02842 0.00821,-0.06251 0.01263,-0.07704c0.23553,-0.76847 0.24248,-2.98296 0.01263,-3.81521c-0.11177,-0.40539 -0.22101,-0.80699 -0.24374,-0.89224c-0.16039,-0.62008 -1.18902,-2.22838 -1.84257,-2.88193c-0.72175,-0.72111 -2.54221,-1.85646 -2.97728,-1.85646c-0.06251,0 -0.11366,-0.03915 -0.11366,-0.08714c0,-0.04799 -0.08335,-0.08525 -0.18438,-0.08272c-0.33972,0.00821 -1.28942,-0.17175 -1.28942,-0.245c0,-0.03915 -0.44959,-0.07514 -0.99958,-0.07893c-0.54999,-0.00442 -0.99958,0.02842 -0.99958,0.07199m9.73504,3.36814c-0.20711,0.22858 -0.20333,0.69775 0.00631,0.77794c0.0903,0.03473 0.13702,0.10798 0.10356,0.16228c-0.08903,0.14397 0.42686,0.06756 0.61882,-0.09156c0.08967,-0.07451 0.13955,-0.17302 0.11113,-0.21974c-0.02905,-0.0461 0.00695,-0.11177 0.08019,-0.14586c0.10608,-0.04925 0.10608,-0.07388 0,-0.12313c-0.07325,-0.0341 -0.10924,-0.09977 -0.08019,-0.14586c0.17428,-0.28226 -0.59924,-0.4799 -0.83983,-0.21406m19.05395,-0.00568c-0.34856,0.38518 -0.09156,1.01221 0.41234,1.00779c0.11429,-0.00126 0.26016,-0.10861 0.3252,-0.23806c0.06441,-0.13008 0.14081,-0.2128 0.16923,-0.18375c0.02905,0.02842 0.05241,-0.02968 0.05241,-0.12945c0,-0.43823 -0.68133,-0.76342 -0.95917,-0.45654m-9.41994,0.00126c-0.08398,0.05304 -0.18186,0.0783 -0.21785,0.0562c-0.12503,-0.07704 -0.03599,0.56515 0.10103,0.72995c0.15407,0.18628 0.5904,0.22353 0.69207,0.05936c0.03599,-0.05936 0.1004,-0.08588 0.14208,-0.05999c0.04168,0.02589 0.08651,-0.08903 0.09914,-0.25447c0.0341,-0.44643 -0.45149,-0.76216 -0.81646,-0.53105m-13.90386,1.03115c0.22416,0.18186 0.22669,0.22732 0.22732,3.70976l0.00063,3.52538l-0.27847,0.24058l-0.27784,0.23995l-4.1966,-0.02968l-4.19724,-0.02968l-0.23995,-0.23932c-0.23679,-0.23742 -0.23932,-0.26963 -0.27152,-3.46918c-0.0341,-3.44708 -0.0221,-3.60367 0.29804,-3.92445c0.30373,-0.30373 8.5637,-0.32583 8.93562,-0.02336m28.64628,0.69396c-0.08525,0.10293 -0.11619,0.50832 -0.09598,1.24206l0.02968,1.08988l0.50326,0.0322l0.50326,0.0322l-0.02968,-1.24269l-0.02968,-1.24269l-0.37697,-0.03157c-0.23427,-0.01957 -0.4256,0.02652 -0.5039,0.12061m-35.08515,1.34056c-0.27089,0.15786 -0.22922,0.56893 0.07893,0.771c0.15281,0.09977 0.26331,0.1244 0.26331,0.05872c0,-0.06314 0.04231,-0.08777 0.09409,-0.0562c0.19133,0.11871 0.23742,-0.48495 0.05241,-0.68954c-0.20459,-0.22606 -0.23616,-0.23111 -0.48874,-0.08398m2.58957,0.52158c-0.1244,0.04736 -0.36056,0.2671 -0.526,0.48811c-0.16481,0.22164 -0.33972,0.43128 -0.38834,0.46664c-0.04862,0.03536 -0.08461,0.10671 -0.08019,0.15786c0.00505,0.05178 -0.13134,0.31888 -0.30183,0.59356c-0.35487,0.57083 -0.58409,0.62766 -0.95096,0.23679c-0.56704,-0.60366 -1.58999,0.30373 -2.04779,1.81541l-0.07135,0.23679l3.73691,0c2.05536,0 3.76091,-0.03852 3.78995,-0.08525c0.05557,-0.0903 -1.15618,-2.20817 -1.44791,-2.53084c-0.09409,-0.10419 -0.17112,-0.2248 -0.17112,-0.26773c0,-0.04294 -0.05936,-0.14397 -0.13197,-0.2248c-0.30941,-0.34477 -0.39466,-0.46664 -0.39466,-0.56325c0,-0.0562 -0.09472,-0.1326 -0.21027,-0.16923c-0.11556,-0.03726 -0.21027,-0.10103 -0.21027,-0.14271c0,-0.10735 -0.32772,-0.11366 -0.59419,-0.01137m32.08199,2.64829c-0.15028,0.15028 -0.16797,1.43276 -0.02336,1.6626c0.1105,0.17428 1.59314,0.23364 1.75669,0.07009c0.19638,-0.19575 0.20459,-1.62408 0.0101,-1.74532c-0.25005,-0.15597 -1.5843,-0.1465 -1.74343,0.01263" fill="#1c6bc4" fill-rule="evenodd" stroke="null"/>
  <path id="path6" d="m99.573,99.708l-0.49,0.542l0.542,-0.49c0.298,-0.269 0.542,-0.512 0.542,-0.541c0,-0.129 -0.138,-0.016 -0.594,0.489" fill="#1c64b4" fill-rule="evenodd"/>
 </g>

</svg>