<svg width="242.00000000000006" height="68" xmlns="http://www.w3.org/2000/svg" version="1.1">
 <g>
  <title>Layer 1</title>
  <path fill-rule="evenodd" fill="#046bcb" d="m20.05574,14.19475c-4.33595,0.5324 -7.49872,3.76193 -8.05236,8.22275c-0.16172,1.30543 -0.15824,23.84059 0.00434,25.00164c0.61998,4.4348 3.54949,7.44539 7.91016,8.1291c1.17926,0.18513 24.09638,0.21158 25.40138,0.02948c1.92714,-0.2688 3.19701,-0.81074 4.83887,-2.06371c1.24776,-0.95252 2.52761,-2.92994 2.96636,-4.58265c0.39714,-1.49749 0.39366,-1.3722 0.39366,-14.07917c0,-14.05923 0.04856,-13.2758 -0.96205,-15.51986c-1.20918,-2.68412 -4.04114,-4.73829 -7.05866,-5.12112c-0.96248,-0.12183 -24.45753,-0.13701 -25.4417,-0.01647m25.93378,8.82798c0.27314,0.07804 0.55104,0.31389 0.70365,0.59613c0.15088,0.28008 0.15478,2.21242 0.0039,2.08712c-0.19293,-0.16042 -1.5248,-0.0711 -1.5248,0.10232c0,0.13614 0.04812,0.14481 0.81334,0.14481l0.81291,0l0,0.57792l0,0.57792l-0.81291,0c-0.76522,0 -0.81334,0.00867 -0.81334,0.14481c0,0.17342 1.33187,0.26274 1.5248,0.10232c0.08541,-0.07067 0.10102,0.01128 0.10145,0.52113l0,0.6048l-0.81291,0c-0.76522,0 -0.81334,0.00867 -0.81334,0.14437c0,0.17342 1.33187,0.26274 1.5248,0.10232c0.08541,-0.07067 0.10102,0.02038 0.10102,0.58443c0,0.56362 -0.01561,0.65466 -0.10102,0.58399c-0.19293,-0.16042 -1.5248,-0.0711 -1.5248,0.10232c0,0.17342 1.33187,0.26274 1.5248,0.10232c0.08541,-0.07067 0.10102,0.02038 0.10102,0.58399c0,0.56405 -0.01561,0.6551 -0.10102,0.58443c-0.19293,-0.16042 -1.5248,-0.0711 -1.5248,0.10232c0,0.1357 0.04812,0.14437 0.81378,0.14437l0.81421,0l-0.0026,5.84255c-0.00174,3.96527 -0.02732,5.88894 -0.07934,5.98562c-0.27314,0.51072 -0.64426,0.70886 -1.32667,0.70886l-0.47214,0l0,0.83068l0,0.83112l-1.17406,0l-1.17449,0.00043l0.02254,-0.83112l0.02254,-0.83112l-8.00597,0l-8.0064,0l0.36071,-0.24366c0.34598,-0.23368 0.97419,-0.87751 0.97419,-0.99847c0,-0.03252 2.79597,-0.05853 6.21323,-0.05853l6.21323,0l0.23585,-0.21114l0.23585,-0.21071l0.02038,-8.73131c0.02168,-9.41111 0.03382,-8.96672 -0.25536,-9.23466l-0.19683,-0.18296l-9.6474,0.0013c-5.30581,0.00043 -9.7146,0.01908 -9.79741,0.04119c-0.39453,0.10578 -0.39193,0.0711 -0.39193,4.90738c0,4.39665 -0.00174,4.45778 -0.14437,4.49507c-0.07934,0.02081 -0.14437,0.06027 -0.14437,0.08801c0,0.02732 -0.12356,0.10405 -0.274,0.17039c-0.15044,0.06677 -0.33817,0.18122 -0.41707,0.25493c-0.07934,0.07327 -0.23238,0.19163 -0.34077,0.2623l-0.19683,0.1292l0,-5.27243c0,-3.7628 0.02384,-5.34266 0.08281,-5.51781c0.10882,-0.32386 0.43919,-0.64816 0.73097,-0.71753c0.34728,-0.08237 25.83753,-0.08454 26.12498,-0.00174m-20.78535,2.19508c0.16128,0.12269 0.15131,-0.17689 0.14177,4.23017l-0.00867,3.92841l-0.19856,-0.04379c-1.14067,-0.25103 -1.38867,-0.27661 -2.33035,-0.23846c-0.53674,0.02168 -1.04876,0.06157 -1.13808,0.08888l-0.16258,0.04899l-0.01084,-3.83823c-0.00607,-2.11097 -0.0143,-3.86945 -0.01821,-3.9076c-0.0039,-0.03815 0.04075,-0.1357 0.09928,-0.21677c0.13093,-0.18209 3.39384,-0.22848 3.62623,-0.05159m4.87139,0.00737c0.18686,0.18686 0.15131,15.11275 -0.03642,15.21291c-0.29872,0.15998 -1.01321,0.09495 -0.96769,-0.08758c0.13484,-0.54411 0.0672,-2.45434 -0.10492,-2.94469c-0.02081,-0.0594 -0.04596,-0.14524 -0.05549,-0.19076c-0.03078,-0.14177 -0.55798,-1.28852 -0.61001,-1.32667c-0.02775,-0.01951 -0.16302,-0.2016 -0.30132,-0.40407c-0.33774,-0.49512 -0.73487,-0.91566 -1.09645,-1.16236c-0.61868,-0.42228 -0.55668,0.10449 -0.55321,-4.71271c0.00304,-3.97307 0.01257,-4.30083 0.12747,-4.38842c0.18946,-0.14351 3.45368,-0.1396 3.59805,0.00434m4.84148,0c0.18469,0.18469 0.15521,15.05726 -0.02991,15.1869c-0.19727,0.1383 -3.32708,0.15261 -3.54515,0.01647l-0.15174,-0.09495l0,-7.46577c0,-5.00839 0.02471,-7.51216 0.075,-7.60624c0.09928,-0.18556 3.46885,-0.21938 3.65181,-0.03642m4.85622,0.00911l0.16042,0.11273l-0.00217,7.45666c-0.00217,5.93099 -0.02124,7.48138 -0.09452,7.57762c-0.0815,0.10708 -0.28832,0.12226 -1.74288,0.1292c-0.90786,0.00434 -1.67568,0.02298 -1.70646,0.04205c-0.03035,0.01864 -0.12313,-0.05159 -0.2055,-0.15694c-0.18252,-0.23195 -0.24452,-14.86173 -0.06373,-15.04252c0.04769,-0.04769 0.05593,-0.08715 0.01821,-0.08758c-0.03772,-0.00087 -0.01995,-0.03252 0.03945,-0.0711c0.19727,-0.12747 3.40902,-0.09148 3.59718,0.03988m-15.84502,8.38359c1.63536,0.1886 3.3106,1.36352 4.0858,2.86578c0.79167,1.53434 0.87448,3.41769 0.21114,4.79292c-0.07804,0.16172 -0.1422,0.3243 -0.1422,0.36115c-0.00087,0.14784 -0.69759,1.09038 -1.07347,1.45196c-0.31953,0.30782 -1.41858,1.00974 -1.7806,1.13764c-0.19856,0.07024 -0.41014,0.14568 -0.46954,0.16778c-0.05983,0.02211 -0.15738,0.05029 -0.21677,0.06243c-0.05983,0.01257 -0.2545,0.05506 -0.43355,0.09538c-1.19704,0.2675 -3.09513,-0.12356 -4.02379,-0.82982c-0.29395,-0.22371 -0.30999,-0.22198 -0.59007,0.06677c-0.21288,0.21938 -0.22631,0.25926 -0.14741,0.43225c0.07891,0.17342 0.06763,0.2055 -0.12313,0.35291c-0.11532,0.08931 -0.63256,0.57272 -1.14934,1.07434c-2.8996,2.81592 -2.49249,2.54625 -2.99584,1.9861c-0.1409,-0.15608 -0.45089,-0.48254 -0.68935,-0.72577l-0.43355,-0.44136l0.71406,-0.68328c0.3928,-0.37589 1.15671,-1.11033 1.69822,-1.63146c1.49272,-1.43809 1.50182,-1.44503 1.66787,-1.29459c0.1318,0.11966 0.14914,0.11359 0.40147,-0.13874c0.23975,-0.23975 0.29785,-0.47301 0.11836,-0.47301c-0.07631,0 -0.52937,-0.91523 -0.66203,-1.33664c-0.04986,-0.15911 -0.11532,-0.3217 -0.14481,-0.36158c-0.13136,-0.17559 -0.20334,-1.68955 -0.10882,-2.29045c0.02688,-0.17082 0.06157,-0.39323 0.07717,-0.49381c0.03425,-0.21851 0.63256,-1.56469 0.76826,-1.72814c0.05203,-0.0633 0.19076,-0.24409 0.30739,-0.40234c0.11706,-0.15824 0.28267,-0.35291 0.36808,-0.43225c0.39887,-0.37156 0.68371,-0.61434 0.71969,-0.61434c0.04249,0 0.62648,-0.36982 0.68674,-0.43485c0.08931,-0.09582 1.26901,-0.45263 1.7819,-0.53891c0.54064,-0.09104 0.75915,-0.09061 1.57813,0.0039m-1.04789,0.3412c-0.01951,0.01821 -0.20767,0.05116 -0.41707,0.07283c-1.22089,0.12703 -2.5159,0.88488 -3.29543,1.92887c-0.16302,0.21851 -0.3204,0.41491 -0.34901,0.43615c-0.10058,0.075 -0.56838,1.15802 -0.5285,1.22262c0.02211,0.03599 0.01084,0.08368 -0.02558,0.10622c-0.25623,0.15824 -0.25406,2.00865 0.00347,2.85971c0.30695,1.01494 1.1255,2.11486 2.04116,2.74265c0.37979,0.26013 1.48275,0.75438 1.54518,0.69195c0.02038,-0.02038 0.0815,-0.00087 0.13527,0.04379c0.1396,0.11619 1.65226,0.16561 2.0468,0.0672c0.49338,-0.12356 0.51333,-0.1292 0.93951,-0.27964c0.3811,-0.13397 0.93604,-0.41448 1.01148,-0.51072c0.01995,-0.02558 0.16952,-0.13657 0.33253,-0.24669c0.16258,-0.11056 0.39627,-0.3217 0.51939,-0.46954c0.4652,-0.56015 0.66116,-0.82765 0.70365,-0.96162c0.02428,-0.07587 0.06763,-0.1383 0.09668,-0.1383c0.04162,0 0.21288,-0.37329 0.26576,-0.57792c0.00477,-0.01995 0.04422,-0.12053 0.08715,-0.22328c0.07934,-0.18989 0.09841,-0.28267 0.24539,-1.18793c0.11966,-0.73357 -0.32386,-2.85191 -0.597,-2.85191c-0.03512,0 -0.05549,-0.02905 -0.04552,-0.06416c0.04119,-0.14697 -1.16929,-1.59807 -1.33317,-1.59807c-0.03512,0 -0.13266,-0.06416 -0.21677,-0.1422c-0.50596,-0.47127 -2.89829,-1.16669 -3.16536,-0.92m20.92452,1.82612c-0.14697,0.14654 -0.17082,2.61865 -0.02688,2.76259c0.04986,0.04986 0.28875,0.08671 0.56362,0.08671c0.66724,0 0.65033,0.03858 0.65033,-1.48145c0,-0.92086 -0.02601,-1.3336 -0.08671,-1.39474c-0.13223,-0.1318 -0.96162,-0.11186 -1.10035,0.02688m-11.05124,1.01625c-0.49122,0.49165 0.0607,1.17623 0.68718,0.85193c0.12096,-0.06243 0.2016,-0.1318 0.17949,-0.15391c-0.02211,-0.02211 -0.00954,-0.09798 0.02862,-0.16865c0.26317,-0.49208 -0.48818,-0.93604 -0.89528,-0.52937m4.81286,0.01301c-0.19813,0.29482 -0.19423,0.53543 0.01214,0.75785c0.44786,0.48341 1.13721,-0.01691 0.87794,-0.63689c-0.15478,-0.37069 -0.67504,-0.44136 -0.89008,-0.12096m-11.51167,0.13136c0.23802,0.30262 0.23281,4.45388 -0.00607,4.66068c-0.14568,0.1266 -0.32473,0.13484 -2.92214,0.13484l-2.76693,0l-0.11229,-0.16042c-0.2055,-0.29351 -0.16475,-4.48206 0.04552,-4.67802c0.15348,-0.14264 0.24062,-0.14741 2.88529,-0.14741l2.72661,0l0.15001,0.19033m-4.25531,1.3219c-0.08628,0.16128 -0.03642,0.33817 0.11143,0.39497c0.15088,0.0581 0.30782,-0.02211 0.35854,-0.18296c0.09495,-0.29915 -0.32256,-0.48731 -0.46997,-0.21201m1.69432,0.23022c-0.07977,0.03902 -0.21244,0.17515 -0.29438,0.30262c-0.08194,0.12703 -0.26576,0.41361 -0.4084,0.63689c-0.28267,0.44049 -0.51679,0.57055 -0.63385,0.35161c-0.08541,-0.15998 -0.30912,-0.24149 -0.49815,-0.18122c-0.24409,0.07717 -0.94601,1.15238 -0.94601,1.4485c0,0.01908 1.10556,0.03469 2.45651,0.03469c1.35138,0 2.45694,-0.01214 2.45694,-0.02688c0,-0.10622 -0.34987,-0.79037 -0.54108,-1.057c-0.1279,-0.17863 -0.31823,-0.47127 -0.42272,-0.65033c-0.43095,-0.7366 -0.82462,-1.02622 -1.16886,-0.85887m19.7639,1.654c-0.1305,0.13007 -0.14481,0.24062 -0.14481,1.11987c0,1.30499 -0.04032,1.26467 1.26077,1.26467c1.24126,0 1.19617,0.04812 1.19617,-1.28071c0,-1.28244 0.03338,-1.24863 -1.22825,-1.24863c-0.84326,0 -0.95425,0.01517 -1.08388,0.14481m-21.31645,4.87746c0.33774,0.0594 0.84629,0.10795 1.13027,0.10795l0.51593,0.00043l0.02905,0.25059c0.03815,0.3269 0.03729,0.32733 -1.24776,0.32733l-1.07781,0l0,-0.39757c0,-0.21851 0.00824,-0.39714 0.01821,-0.39714c0.00997,0 0.29438,0.04856 0.63212,0.10839" id="path1" stroke="null"/>
  <path fill-rule="evenodd" fill="#3c8cd4" id="path4"/>
  <path fill-rule="evenodd" fill="#1c7ccd" id="path6"/>
  <path fill-rule="evenodd" fill="#687c68" id="path8"/>
  <path fill-rule="evenodd" fill="#4c4c4c" d="m135.73888,18.9273c-1.58074,0.25717 -3.94367,1.11699 -4.66671,1.69899c-1.76739,1.42331 -2.18839,1.87353 -2.78321,2.97627c-1.35493,2.51323 -1.27727,6.00454 0.18166,8.14449c1.29793,1.90416 3.31821,3.09167 7.15003,4.20225c3.2947,0.95529 4.16379,1.25947 5.62342,1.96542c4.62968,2.23968 3.21492,7.27683 -2.21974,7.903c-3.41936,0.39466 -6.60506,-1.01726 -8.15945,-3.61598c-0.52146,-0.87193 -0.28923,-0.93533 -3.92656,1.07995l-0.54923,0.30418l0.36402,0.60195c1.14549,1.89134 2.6671,3.31749 4.8676,4.56057c1.84147,1.04148 5.60633,1.66408 7.95429,1.31645c2.43345,-0.36117 3.13299,-0.55423 4.58408,-1.26659c2.95846,-1.45251 4.45443,-3.93298 4.45942,-7.39294c0.00499,-3.50627 -1.52019,-5.83358 -4.80563,-7.33168c-0.91396,-0.41674 -1.42759,-0.62332 -1.54868,-0.62332c-0.07551,0 -0.3056,-0.07551 -0.51148,-0.1674c-0.20588,-0.09261 -0.77435,-0.28423 -1.26445,-0.42671c-0.4894,-0.14248 -1.05074,-0.30632 -1.24664,-0.36331c-0.1959,-0.05771 -0.75653,-0.21869 -1.24664,-0.35832c-3.85533,-1.09847 -5.27792,-2.0103 -5.8065,-3.72211c-1.25519,-4.06263 4.50643,-6.89642 9.22871,-4.53991c0.69955,0.34906 2.27601,1.54085 2.27743,1.72108c0,0.04417 0.14746,0.24078 0.32769,0.43668c0.18023,0.1959 0.42386,0.50649 0.54211,0.69029c0.14675,0.22938 0.25788,0.29991 0.35404,0.22369c0.07765,-0.06055 0.38112,-0.24506 0.67532,-0.40961c0.62546,-0.34977 2.8452,-1.70754 2.92997,-1.79231c0.03206,-0.03206 -0.21229,-0.45947 -0.54354,-0.9503c-1.79588,-2.6614 -4.16521,-4.188 -7.49196,-4.82843c-0.52858,-0.10115 -4.17519,-0.12894 -4.74935,-0.03634m-63.04446,15.53245l0,15.13779l2.31448,0l2.3152,0l0.02992,-11.00891l0.03063,-11.0082l0.94745,1.42117c0.52146,0.78147 0.97879,1.44824 1.01584,1.48101c0.03704,0.03206 0.19519,0.27283 0.35191,0.53427c0.15601,0.26072 0.31344,0.50151 0.34977,0.53427c0.03634,0.03206 1.29295,1.90202 2.79319,4.15523c1.50025,2.25322 2.76897,4.14954 2.81955,4.21508c0.04986,0.06483 1.17896,1.74814 2.50754,3.73993c1.32928,1.99106 2.76043,4.12817 3.18072,4.74863l0.76366,1.12839l2.22259,0.03206l2.22188,0.03206l0,-15.13993l0,-15.14064l-2.31448,0l-2.31448,0l-0.02992,11.00891c-0.02422,8.75499 -0.06055,10.9733 -0.17738,10.83439c-0.08049,-0.09688 -1.28297,-1.88492 -2.67138,-3.97501c-1.38841,-2.08937 -2.55383,-3.82613 -2.59017,-3.85818c-0.03634,-0.03277 -0.19448,-0.27355 -0.35263,-0.53427c-0.15743,-0.26144 -0.3284,-0.52858 -0.37969,-0.59412c-0.05129,-0.06483 -1.99962,-2.99052 -4.32977,-6.50034l-4.23573,-6.38139l-2.23398,0l-2.23469,0l0,15.13779m37.04236,-14.27726c-0.15529,0.47372 -0.35191,0.99447 -0.43668,1.15759c-0.08477,0.16384 -0.15458,0.36473 -0.15529,0.44737c-0.00071,0.08192 -0.04986,0.2422 -0.11042,0.35618c-0.05984,0.11326 -0.57488,1.48813 -1.14406,3.05535c-0.56918,1.56721 -1.10275,3.00975 -1.18538,3.20565c-0.08263,0.1959 -0.29492,0.78361 -0.47158,1.30576c-0.17666,0.52287 -0.38895,1.11058 -0.4723,1.30648c-0.26785,0.63258 -1.62633,4.34686 -1.7396,4.75577c-0.05984,0.21798 -0.18735,0.54638 -0.28281,0.72946c-0.09546,0.18237 -0.17382,0.42243 -0.17382,0.53286c-0.00071,0.11042 -0.05414,0.23366 -0.11968,0.27426c-0.06554,0.0406 -0.11897,0.15529 -0.11897,0.25646c0,0.10044 -0.07409,0.3512 -0.16527,0.55636c-0.09118,0.20588 -0.71237,1.87068 -1.37985,3.69861c-0.6682,1.82865 -1.28867,3.49273 -1.37842,3.69861c-0.08975,0.20588 -0.16314,0.43383 -0.16314,0.50649c0,0.07266 -0.04915,0.2244 -0.109,0.33837c-0.06055,0.11326 -0.3227,0.79358 -0.58414,1.51164c-0.26072,0.71878 -0.51148,1.40051 -0.55707,1.51663c-0.07836,0.19732 0.06483,0.20801 2.39355,0.17809l2.47689,-0.03206l0.15031,-0.47515c0.08335,-0.26144 0.19804,-0.582 0.25574,-0.71237c0.10258,-0.23366 0.55778,-1.51093 1.07852,-3.02756c0.14603,-0.42457 0.33909,-0.94032 0.42955,-1.14619c0.09047,-0.20517 0.16455,-0.41531 0.16455,-0.46589c0,-0.08121 0.18592,-0.62047 0.90755,-2.6322l0.18094,-0.50507l5.37196,0l5.37196,0l0.12751,0.26714c0.06981,0.14746 0.24434,0.61477 0.38752,1.03935c0.14389,0.42386 0.30275,0.87835 0.35475,1.00871c0.05129,0.13108 0.28923,0.79856 0.52929,1.48457c0.58699,1.67834 1.21744,3.44928 1.57433,4.42237l0.29349,0.80141l2.42347,0c1.33284,0 2.42347,-0.03277 2.42347,-0.07337c0,-0.0406 -0.52786,-1.49668 -1.17327,-3.23557c-0.64541,-1.73888 -1.21245,-3.29541 -1.26018,-3.45854c-0.04772,-0.16314 -0.15458,-0.45734 -0.23793,-0.65324c-0.08406,-0.1959 -0.66963,-1.77165 -1.3015,-3.50199c-0.63258,-1.73105 -1.20533,-3.27973 -1.27371,-3.44358c-0.06768,-0.16314 -0.22938,-0.61691 -0.35832,-1.00871c-0.12823,-0.3918 -0.30347,-0.87265 -0.38895,-1.06855c-0.08477,-0.1959 -0.67176,-1.77237 -1.30434,-3.5027c-0.63187,-1.73034 -1.74601,-4.76217 -2.47618,-6.73685l-1.32642,-3.59104l-2.38286,-0.00071l-2.38286,-0.00071l-0.28138,0.86053m40.63269,1.30648l0.03277,2.16631l4.54134,0.03134l4.54134,0.03134l0,12.93944l0,12.94014l2.3152,0l2.3152,0l0,-12.94156l0,-12.94085l4.51142,0l4.51142,0l0,-2.19694l0,-2.19623l-11.4,0l-11.40072,0l0.03206,2.16702m70.97239,10.92273c0,15.48756 -0.03348,15.03807 1.23524,16.30608c0.83489,0.83418 1.56721,1.03935 3.8995,1.09206l1.98893,0.04488l0,-2.08723l0,-2.08794l-0.92038,-0.00357c-0.95599,-0.00428 -1.13693,-0.07551 -1.48956,-0.58699c-0.18735,-0.27212 -0.20231,-1.22456 -0.20231,-13.0299l0,-12.73712l-2.25535,0l-2.25606,0l0,13.08974m-108.4785,-5.72885c0.16314,0.49011 0.54638,1.58502 0.85199,2.43415c0.3056,0.84915 0.60836,1.70399 0.67318,1.89988c0.06483,0.1959 0.16171,0.46304 0.21514,0.5934c0.05343,0.13037 0.29492,0.79856 0.53641,1.48386c0.24149,0.68601 0.48298,1.3535 0.53641,1.48457c0.05343,0.13037 0.17595,0.47729 0.27212,0.77149c0.09688,0.29421 0.21371,0.6276 0.26001,0.74229c0.07978,0.19519 -0.14675,0.20729 -3.78338,0.20729l-3.86744,0l0.4723,-1.3193c0.26001,-0.72519 0.60907,-1.72677 0.77577,-2.22614c0.16669,-0.49866 0.35334,-1.0137 0.41603,-1.14406c0.06197,-0.13037 0.161,-0.3975 0.21941,-0.5934c0.05841,-0.1959 0.35547,-1.05074 0.66036,-1.89988c0.30489,-0.84915 0.65823,-1.85002 0.78432,-2.22401c0.53214,-1.57291 0.5243,-1.57077 0.97736,-0.21015m69.59539,1.05858c-4.79708,1.17042 -7.33738,4.78426 -7.50478,10.67624c-0.24648,8.65882 5.9155,13.67246 13.71448,11.15851c5.95467,-1.9184 8.48571,-10.40625 5.10981,-17.13456c-1.88634,-3.76059 -6.80382,-5.80152 -11.31951,-4.7002m22.54285,0.05984c-5.28861,1.28867 -8.20647,6.7454 -7.17923,13.42597c0.86196,5.60704 4.56485,8.96086 9.89692,8.96371c6.2788,0.00357 10.21463,-4.38818 10.21463,-11.39787c0,-8.01484 -5.60419,-12.77844 -12.93231,-10.99182m-18.347,4.05123c5.5472,1.93194 5.40473,12.54763 -0.18806,13.99729c-2.39925,0.6219 -4.95451,-0.46304 -6.01665,-2.55312c-1.90202,-3.74562 -1.05787,-9.00503 1.73817,-10.82655c1.18681,-0.77292 3.21492,-1.05359 4.46654,-0.61763m22.83563,0.04132c3.47991,1.19749 4.98229,5.96964 3.33032,10.58007c-1.78448,4.97944 -8.48428,4.66885 -10.16547,-0.47087c-1.96114,-5.99528 1.95545,-11.78754 6.83516,-10.1092" id="svg_3" stroke="null"/>
  <path fill-rule="evenodd" fill="#1c64b4" d="m232.18074,299.46735l-0.49,0.542l0.542,-0.49c0.298,-0.269 0.542,-0.512 0.542,-0.541c0,-0.129 -0.138,-0.016 -0.594,0.489" id="svg_1"/>
 </g>

</svg>