<svg width="820" height="312" xmlns="http://www.w3.org/2000/svg">
 <g>
  <title>Layer 1</title>
  <path stroke="null" id="svg_1" fill="#206bc4" d="m205.41848,96.95917c-5.17221,-20.36558 -21.0121,-36.20547 -41.37767,-41.37767c-38.14504,-6.142 -76.93661,-6.142 -115.08165,0c-20.36558,5.17221 -36.20547,21.0121 -41.37767,41.37767c-6.142,38.14504 -6.142,76.93661 0,115.08165c5.17221,20.36558 21.0121,36.20547 41.37767,41.37767c38.14504,6.142 76.93661,6.142 115.08165,0c20.36558,-5.17221 36.20547,-21.0121 41.37767,-41.37767c6.142,-38.14504 6.142,-76.93661 0,-115.08165zm-101.18134,64.97587c-9.05136,14.22358 -21.33536,26.50757 -35.8822,35.55894c-4.84895,2.90937 -10.66768,2.90937 -15.51663,0.32326s-7.75831,-7.43505 -8.08158,-12.93052c0,-5.49547 2.90937,-10.66768 7.75831,-13.25378c7.43505,-4.52569 14.22358,-10.34442 19.71905,-17.13294c-5.81873,-6.78853 -12.284,-12.284 -19.71905,-17.13294c-7.43505,-4.20242 -9.69789,-13.57705 -5.49547,-20.68884s13.90031,-9.37463 21.0121,-5.17221c14.54684,9.05136 26.50757,21.0121 35.8822,35.23567c3.23263,4.52569 3.23263,10.66768 0.32326,15.19336l0.00001,0.00001zm51.39883,31.35652l-36.85199,0c-6.78853,0 -12.284,-3.23263 -12.284,-9.69789s5.49547,-9.69789 12.284,-9.69789l36.85199,0c6.78853,0 12.284,3.23263 12.284,9.69789s-5.49547,9.69789 -12.284,9.69789z"/>
  <text transform="matrix(4.68261 0 0 8.55818 -1278.28 -606.583)" stroke="null" font-weight="bold" xml:space="preserve" text-anchor="start" font-family="'Comfortaa'" font-size="32" id="svg_4" y="97.86255" x="322.03065" stroke-width="2" fill="#4f4c4c">nastool</text>
  <path id="svg_5" d="m111,41.5" opacity="NaN" stroke-width="2" stroke="null" fill="#161616"/>
 </g>

</svg>