<svg id="svg" version="1.1" xmlns="http://www.w3.org/2000/svg" xmlns:xlink="http://www.w3.org/1999/xlink" width="400" height="112.40234375" viewBox="0, 0, 400,112.40234375"><g id="svgg"><path id="path0" d="M82.414 48.333 C 82.414 60.112,82.434 64.931,82.458 59.042 C 82.483 53.152,82.483 43.515,82.458 37.625 C 82.434 31.735,82.414 36.554,82.414 48.333 M57.625 27.458 C 58.931 27.486,61.069 27.486,62.375 27.458 C 63.681 27.430,62.612 27.407,60.000 27.407 C 57.387 27.407,56.319 27.430,57.625 27.458 M71.719 27.458 C 73.076 27.486,75.251 27.486,76.552 27.458 C 77.853 27.430,76.742 27.407,74.083 27.407 C 71.425 27.407,70.361 27.430,71.719 27.458 M65.081 46.667 C 65.081 57.163,65.101 61.456,65.125 56.208 C 65.149 50.960,65.149 42.373,65.125 37.125 C 65.101 31.877,65.081 36.171,65.081 46.667 M97.627 34.785 C 97.834 34.824,98.134 34.823,98.294 34.781 C 98.453 34.739,98.283 34.707,97.917 34.709 C 97.550 34.711,97.420 34.745,97.627 34.785 M257.500 35.434 C 252.535 36.311,248.332 39.084,246.541 42.667 C 243.353 49.041,246.150 55.867,253.000 58.431 C 253.596 58.654,254.233 58.906,254.417 58.991 C 254.857 59.195,258.011 60.185,260.000 60.743 C 260.871 60.988,261.733 61.250,261.917 61.326 C 262.100 61.402,262.625 61.594,263.083 61.752 C 267.793 63.378,268.212 67.249,263.874 69.063 C 262.716 69.548,258.310 69.568,257.083 69.095 C 254.939 68.268,253.140 66.663,252.296 64.823 C 251.825 63.795,252.199 63.730,248.417 65.501 C 245.428 66.900,244.468 67.333,244.357 67.333 C 242.919 67.333,246.855 72.959,249.447 74.610 C 249.705 74.774,249.954 74.960,250.000 75.022 C 250.498 75.697,254.743 77.344,256.833 77.672 C 263.808 78.770,270.463 76.651,274.041 72.194 C 276.621 68.979,277.017 63.066,274.891 59.500 C 273.047 56.408,270.043 54.705,262.833 52.664 C 257.308 51.100,255.649 50.263,254.981 48.705 C 254.212 46.911,255.018 45.344,257.237 44.323 C 261.213 42.492,265.825 44.037,268.026 47.937 C 268.304 48.430,268.560 48.833,268.594 48.833 C 268.628 48.833,269.615 48.374,270.786 47.813 C 271.958 47.252,273.685 46.428,274.625 45.983 C 276.431 45.129,276.446 45.112,276.134 44.383 C 274.622 40.847,270.545 37.274,266.667 36.083 C 266.162 35.929,265.525 35.723,265.250 35.627 C 264.754 35.454,258.299 35.293,257.500 35.434 M163.167 56.583 L 163.167 77.167 167.667 77.167 L 172.167 77.167 172.167 65.083 C 172.167 58.438,172.223 53.003,172.292 53.006 C 172.360 53.009,172.639 53.366,172.912 53.798 C 173.184 54.230,173.467 54.658,173.540 54.750 C 173.778 55.048,176.076 58.389,176.750 59.417 C 177.110 59.967,177.448 60.454,177.500 60.500 C 177.552 60.546,177.890 61.033,178.250 61.583 C 178.872 62.532,181.181 65.894,181.455 66.250 C 181.526 66.342,182.113 67.204,182.759 68.167 C 183.871 69.821,184.626 70.919,186.658 73.833 C 187.137 74.521,187.835 75.552,188.208 76.125 L 188.887 77.167 192.944 77.167 L 197.000 77.167 197.000 56.583 L 197.000 36.000 192.417 36.000 L 187.833 36.000 187.833 48.083 C 187.833 54.729,187.777 60.166,187.708 60.165 C 187.640 60.164,187.171 59.526,186.667 58.748 C 186.162 57.970,185.653 57.202,185.536 57.042 C 185.418 56.881,184.649 55.737,183.827 54.500 C 183.005 53.262,182.256 52.137,182.163 52.000 C 181.843 51.527,178.248 46.130,176.167 42.996 C 172.785 37.904,172.029 36.771,171.749 36.375 C 171.487 36.003,171.449 36.000,167.326 36.000 L 163.167 36.000 163.167 56.583 M213.424 45.458 C 211.509 50.660,209.881 54.988,209.805 55.075 C 209.729 55.162,209.666 55.350,209.666 55.492 C 209.665 55.634,209.568 55.938,209.450 56.167 C 209.332 56.396,209.024 57.221,208.764 58.000 C 208.505 58.779,208.227 59.488,208.146 59.575 C 208.066 59.662,207.997 59.850,207.994 59.992 C 207.991 60.134,207.844 60.550,207.667 60.917 C 207.490 61.283,207.340 61.696,207.333 61.833 C 207.327 61.971,207.177 62.383,207.000 62.750 C 206.823 63.117,206.675 63.511,206.672 63.627 C 206.669 63.743,206.596 63.968,206.509 64.127 C 206.237 64.627,205.500 66.629,205.500 66.870 C 205.500 66.997,205.436 67.171,205.358 67.258 C 205.279 67.345,204.898 68.317,204.509 69.417 C 204.121 70.517,203.736 71.567,203.653 71.750 C 203.481 72.132,201.667 77.029,201.667 77.112 C 201.667 77.142,203.868 77.167,206.557 77.167 L 211.448 77.167 212.073 75.292 C 212.417 74.260,212.739 73.304,212.790 73.167 C 212.841 73.029,213.231 71.904,213.658 70.667 L 214.433 68.417 221.633 68.373 C 225.593 68.349,228.833 68.352,228.833 68.378 C 228.833 68.440,230.854 74.390,231.394 75.917 L 231.807 77.083 236.730 77.127 L 241.654 77.172 241.428 76.544 C 240.746 74.650,236.810 64.032,236.685 63.750 C 236.604 63.567,236.215 62.517,235.820 61.417 C 235.425 60.317,235.004 59.229,234.885 59.000 C 234.766 58.771,234.666 58.471,234.662 58.333 C 234.658 58.196,234.510 57.783,234.333 57.417 C 234.156 57.050,234.009 56.655,234.006 56.539 C 234.003 56.424,233.933 56.199,233.850 56.039 C 233.768 55.880,233.497 55.188,233.247 54.500 C 232.998 53.813,232.728 53.100,232.648 52.917 C 232.567 52.733,231.564 50.033,230.417 46.917 C 229.271 43.800,228.267 41.100,228.186 40.917 C 228.104 40.733,227.759 39.796,227.417 38.833 C 227.076 37.871,226.683 36.840,226.546 36.542 L 226.295 36.000 221.600 36.000 L 216.905 36.000 213.424 45.458 M280.500 40.250 L 280.500 44.500 286.167 44.500 L 291.833 44.500 291.833 60.833 L 291.833 77.167 296.500 77.167 L 301.167 77.167 301.167 60.833 L 301.167 44.500 306.750 44.500 L 312.333 44.500 312.333 40.250 L 312.333 36.000 296.417 36.000 L 280.500 36.000 280.500 40.250 M386.168 53.375 C 386.169 71.960,386.181 72.236,387.014 73.775 C 388.462 76.452,390.199 77.167,395.258 77.167 L 398.333 77.167 398.333 73.106 L 398.333 69.046 397.250 68.959 C 394.835 68.765,395.000 70.040,395.000 51.522 L 395.000 36.000 390.583 36.000 L 386.167 36.000 386.168 53.375 M97.627 41.451 C 97.834 41.491,98.134 41.490,98.294 41.448 C 98.453 41.406,98.283 41.374,97.917 41.375 C 97.550 41.377,97.420 41.411,97.627 41.451 M329.500 45.945 C 323.573 46.542,319.680 49.477,317.436 55.040 C 315.600 59.594,316.212 67.171,318.767 71.500 C 323.321 79.217,336.344 80.256,342.486 73.393 C 345.903 69.575,347.292 61.754,345.559 56.086 C 345.287 55.196,345.260 55.128,344.576 53.584 C 342.234 48.297,336.252 45.266,329.500 45.945 M363.750 45.944 C 355.731 46.607,350.658 52.774,350.669 61.846 C 350.683 71.925,356.596 78.124,366.000 77.917 C 375.116 77.716,380.543 71.750,380.555 61.917 C 380.559 58.981,379.968 55.445,379.331 54.583 C 379.263 54.492,379.153 54.229,379.086 54.000 C 379.020 53.771,378.619 53.021,378.197 52.333 C 375.309 47.633,370.273 45.406,363.750 45.944 M221.999 48.627 C 222.104 48.970,222.254 49.400,222.332 49.583 C 222.410 49.767,222.865 51.079,223.342 52.500 C 223.820 53.921,224.569 56.133,225.008 57.417 L 225.805 59.750 221.711 59.795 C 219.459 59.819,217.585 59.807,217.546 59.768 C 217.475 59.697,217.749 58.867,219.343 54.333 C 219.810 53.004,220.415 51.242,220.688 50.417 C 220.960 49.592,221.255 48.786,221.342 48.627 C 221.429 48.468,221.500 48.220,221.500 48.076 C 221.500 47.638,221.797 47.966,221.999 48.627 M113.379 52.500 C 113.379 52.913,113.411 53.081,113.451 52.875 C 113.491 52.669,113.491 52.331,113.451 52.125 C 113.411 51.919,113.379 52.087,113.379 52.500 M333.397 54.584 C 338.380 56.683,338.471 66.844,333.527 69.127 C 331.145 70.227,328.224 69.287,326.716 66.935 C 325.029 64.305,325.145 58.988,326.945 56.483 C 328.408 54.447,331.154 53.639,333.397 54.584 M367.968 54.734 C 370.722 56.130,372.102 60.115,371.244 64.196 C 369.777 71.170,361.851 71.514,360.100 64.680 C 358.409 58.080,363.033 52.233,367.968 54.734 M38.375 56.792 C 40.460 56.818,43.873 56.818,45.958 56.792 C 48.044 56.765,46.337 56.743,42.167 56.743 C 37.996 56.743,36.290 56.765,38.375 56.792 M33.409 64.083 C 33.409 67.383,33.431 68.757,33.458 67.136 C 33.485 65.515,33.485 62.815,33.458 61.136 C 33.431 59.457,33.409 60.783,33.409 64.083 M113.381 59.583 C 113.382 60.042,113.415 60.209,113.453 59.956 C 113.491 59.703,113.490 59.328,113.451 59.123 C 113.411 58.918,113.380 59.125,113.381 59.583 M95.393 62.333 C 95.393 63.204,95.422 63.560,95.456 63.125 C 95.490 62.690,95.490 61.977,95.456 61.542 C 95.422 61.106,95.393 61.462,95.393 62.333 M59.045 63.500 C 59.045 63.913,59.078 64.081,59.118 63.875 C 59.157 63.669,59.157 63.331,59.118 63.125 C 59.078 62.919,59.045 63.087,59.045 63.500 M58.209 63.583 C 58.211 63.950,58.245 64.080,58.285 63.873 C 58.324 63.666,58.323 63.366,58.281 63.206 C 58.239 63.047,58.207 63.217,58.209 63.583 M95.958 64.284 C 96.165 64.324,96.502 64.324,96.708 64.284 C 96.915 64.245,96.746 64.212,96.333 64.212 C 95.921 64.212,95.752 64.245,95.958 64.284 M38.708 69.291 C 40.702 69.318,43.965 69.318,45.958 69.291 C 47.952 69.265,46.321 69.243,42.333 69.243 C 38.346 69.243,36.715 69.265,38.708 69.291 M42.044 78.453 C 42.297 78.491,42.672 78.490,42.877 78.451 C 43.082 78.411,42.875 78.380,42.417 78.381 C 41.958 78.382,41.791 78.415,42.044 78.453 M51.708 112.282 C 51.869 112.323,52.131 112.323,52.292 112.282 C 52.452 112.240,52.321 112.205,52.000 112.205 C 51.679 112.205,51.548 112.240,51.708 112.282 M62.042 112.282 C 62.202 112.323,62.465 112.323,62.625 112.282 C 62.785 112.240,62.654 112.205,62.333 112.205 C 62.012 112.205,61.881 112.240,62.042 112.282 " stroke="none" fill="#4b4b4b" fill-rule="evenodd"></path><path id="path1" d="M46.750 0.181 C 43.402 0.362,39.362 0.678,36.417 0.990 C 34.850 1.156,33.849 1.279,30.833 1.676 C 30.146 1.766,29.321 1.874,29.000 1.915 C 25.585 2.354,22.912 3.156,19.889 4.650 C 16.230 6.460,12.964 8.914,10.471 11.727 C 9.729 12.565,9.031 13.325,8.919 13.417 C 8.808 13.508,8.717 13.621,8.716 13.667 C 8.716 13.713,8.247 14.463,7.674 15.333 C 5.404 18.785,3.107 24.585,3.152 26.750 C 3.156 26.933,3.087 27.496,2.999 28.000 C 2.822 29.008,2.396 32.225,2.249 33.667 C 2.197 34.171,2.107 34.846,2.049 35.167 C 1.991 35.487,1.956 35.804,1.970 35.869 C 1.984 35.934,1.888 37.134,1.756 38.536 C 1.518 41.077,1.477 41.660,1.160 47.167 C 0.999 49.971,0.929 62.750,1.073 63.199 C 1.111 63.319,1.184 64.504,1.234 65.833 C 1.284 67.162,1.363 68.700,1.410 69.250 C 1.457 69.800,1.575 71.262,1.671 72.500 C 1.768 73.737,1.876 74.975,1.911 75.250 C 1.946 75.525,2.023 76.275,2.083 76.917 C 2.260 78.835,2.680 81.987,3.424 86.997 C 3.866 89.971,6.455 95.303,9.141 98.775 C 10.265 100.227,14.028 104.000,14.353 104.000 C 14.445 104.000,14.472 104.077,14.414 104.171 C 14.356 104.265,14.370 104.322,14.446 104.298 C 14.522 104.274,15.333 104.753,16.250 105.363 C 20.094 107.919,24.021 109.450,28.333 110.073 C 31.574 110.541,33.915 110.859,34.167 110.865 C 34.304 110.868,34.979 110.936,35.667 111.016 C 37.529 111.231,42.186 111.634,44.083 111.744 C 45.000 111.797,46.163 111.885,46.667 111.939 C 49.471 112.243,63.778 112.231,67.667 111.923 C 68.262 111.875,69.537 111.791,70.500 111.736 C 71.462 111.681,72.550 111.610,72.917 111.578 C 75.097 111.390,77.593 111.137,78.758 110.986 C 79.496 110.890,80.171 110.830,80.258 110.854 C 80.345 110.878,80.642 110.848,80.917 110.788 C 81.360 110.692,81.870 110.623,83.750 110.405 C 97.878 108.769,109.146 98.532,111.072 85.583 C 111.410 83.311,112.191 77.339,112.195 77.000 C 112.196 76.862,112.269 76.075,112.356 75.250 C 113.054 68.655,113.570 56.586,113.328 52.500 C 113.260 51.354,113.147 48.954,113.076 47.167 C 112.900 42.769,112.840 41.873,112.423 37.500 C 112.297 36.171,112.191 34.971,112.189 34.833 C 112.183 34.510,111.372 28.365,111.177 27.167 C 111.096 26.662,111.030 26.137,111.032 26.000 C 111.037 25.555,110.194 22.619,109.685 21.312 C 105.678 11.013,96.424 3.502,85.917 2.021 C 80.986 1.327,77.526 0.908,75.500 0.760 C 74.904 0.717,73.442 0.600,72.250 0.500 C 66.784 0.041,52.636 -0.136,46.750 0.181 M95.897 22.535 C 96.878 22.824,98.373 24.348,98.641 25.333 C 98.799 25.912,98.835 31.275,98.798 48.859 L 98.750 71.635 98.083 72.594 C 97.060 74.066,96.096 74.536,93.895 74.633 C 92.655 74.689,92.167 74.770,92.167 74.921 C 92.167 75.187,91.788 75.334,91.111 75.331 C 90.480 75.328,90.080 75.108,90.238 74.852 C 90.322 74.716,85.583 74.667,72.601 74.667 L 54.849 74.667 55.835 73.292 C 56.378 72.535,57.031 71.450,57.286 70.879 L 57.750 69.842 61.708 69.838 L 65.667 69.833 65.667 48.351 C 65.667 28.916,65.642 26.859,65.403 26.768 C 65.258 26.712,62.827 26.667,60.000 26.667 C 57.173 26.667,54.742 26.712,54.597 26.768 C 54.360 26.859,54.333 28.123,54.333 39.355 L 54.333 51.842 53.292 50.959 C 52.719 50.473,52.082 49.958,51.876 49.815 L 51.502 49.554 51.459 38.152 L 51.417 26.750 46.020 26.706 C 42.176 26.675,40.557 26.717,40.395 26.851 C 40.206 27.008,40.167 28.763,40.167 36.937 C 40.167 46.243,40.149 46.835,39.875 46.855 C 39.408 46.889,38.963 46.971,38.250 47.154 C 37.883 47.248,37.527 47.327,37.458 47.329 C 37.241 47.336,37.307 26.128,37.526 25.483 C 37.983 24.145,39.067 23.009,40.314 22.563 C 41.168 22.258,94.863 22.231,95.897 22.535 M82.686 26.893 C 82.549 27.059,82.510 32.820,82.541 48.435 L 82.583 69.750 88.208 69.794 L 93.833 69.838 93.833 48.353 C 93.833 28.916,93.808 26.859,93.570 26.768 C 92.979 26.541,82.882 26.657,82.686 26.893 M68.611 26.944 C 68.550 27.006,68.500 36.719,68.500 48.530 L 68.500 70.004 74.125 69.961 L 79.750 69.917 79.792 48.601 C 79.823 32.987,79.784 27.225,79.647 27.060 C 79.447 26.819,68.848 26.708,68.611 26.944 M50.800 27.367 C 51.027 27.593,51.101 49.240,50.875 49.138 C 50.806 49.106,50.300 48.848,49.750 48.564 C 47.673 47.490,45.072 46.836,42.526 46.747 C 41.641 46.717,40.860 46.686,40.792 46.679 C 40.512 46.651,40.647 27.710,40.929 27.429 C 41.270 27.087,50.463 27.029,50.800 27.367 M93.147 27.393 C 93.284 27.558,93.323 32.756,93.292 46.768 L 93.250 65.917 88.216 65.961 L 83.183 66.005 83.085 65.461 C 82.838 64.088,83.077 27.492,83.333 27.330 C 83.757 27.062,92.921 27.121,93.147 27.393 M65.126 46.565 C 65.157 60.577,65.118 65.775,64.980 65.940 C 64.835 66.116,64.118 66.167,61.803 66.167 L 58.813 66.167 58.928 64.609 C 59.202 60.876,57.937 56.579,55.692 53.616 L 54.833 52.482 54.833 40.019 C 54.833 33.164,54.884 27.504,54.947 27.442 C 55.009 27.380,57.316 27.348,60.072 27.373 L 65.083 27.417 65.126 46.565 M79.133 27.533 C 79.424 27.824,79.424 65.676,79.133 65.967 C 78.922 66.178,69.796 66.270,69.264 66.066 C 68.988 65.960,68.837 27.718,69.111 27.444 C 69.324 27.231,78.916 27.316,79.133 27.533 M97.167 32.074 C 97.167 32.271,97.350 32.333,97.931 32.333 C 98.914 32.333,98.856 31.939,97.862 31.865 C 97.322 31.826,97.167 31.872,97.167 32.074 M97.208 34.375 C 97.248 34.493,97.554 34.583,97.917 34.583 C 98.280 34.583,98.586 34.493,98.625 34.375 C 98.674 34.228,98.465 34.167,97.917 34.167 C 97.369 34.167,97.159 34.228,97.208 34.375 M97.167 36.583 C 97.167 36.797,97.313 36.842,97.875 36.801 C 98.265 36.773,98.583 36.675,98.583 36.583 C 98.583 36.492,98.265 36.394,97.875 36.365 C 97.313 36.325,97.167 36.370,97.167 36.583 M97.167 38.750 C 97.167 38.964,97.313 39.009,97.875 38.968 C 98.265 38.940,98.583 38.842,98.583 38.750 C 98.583 38.658,98.265 38.560,97.875 38.532 C 97.313 38.491,97.167 38.536,97.167 38.750 M97.208 41.042 C 97.248 41.160,97.554 41.250,97.917 41.250 C 98.280 41.250,98.586 41.160,98.625 41.042 C 98.674 40.895,98.465 40.833,97.917 40.833 C 97.369 40.833,97.159 40.895,97.208 41.042 M43.917 47.505 C 45.258 47.656,46.065 47.827,46.833 48.121 C 46.971 48.174,47.220 48.243,47.388 48.276 C 51.127 49.003,56.005 53.950,57.469 58.500 C 58.238 60.891,58.668 65.273,58.164 65.585 C 58.071 65.643,58.036 65.756,58.086 65.837 C 58.267 66.131,57.450 68.954,56.751 70.443 C 52.593 79.311,41.192 82.550,33.223 77.128 L 32.363 76.542 31.598 77.318 L 30.834 78.094 31.209 78.472 L 31.583 78.851 30.833 79.530 C 30.085 80.208,24.441 85.597,21.567 88.378 L 20.050 89.846 17.692 87.360 L 15.334 84.875 15.959 84.342 C 16.509 83.872,20.810 79.766,25.260 75.461 C 26.941 73.836,26.909 73.852,27.337 74.375 L 27.644 74.750 28.386 74.026 L 29.127 73.303 28.556 72.443 C 21.038 61.131,30.371 45.978,43.917 47.505 M39.917 49.019 C 39.458 49.112,38.933 49.209,38.750 49.235 C 38.394 49.286,38.330 49.308,36.667 49.928 C 28.509 52.969,24.993 63.339,29.514 71.025 C 35.490 81.187,50.512 80.465,55.505 69.776 C 57.657 65.169,57.113 58.852,54.241 55.086 C 54.018 54.793,53.891 54.486,53.959 54.402 C 54.027 54.318,54.030 54.291,53.966 54.340 C 53.901 54.390,53.186 53.790,52.378 53.007 C 49.084 49.818,44.010 48.194,39.917 49.019 M50.352 56.954 C 50.656 57.134,50.900 57.462,51.002 57.829 C 51.224 58.630,51.215 69.569,50.991 70.375 C 50.670 71.533,50.813 71.515,41.985 71.463 L 34.138 71.417 33.735 70.949 L 33.333 70.481 33.333 64.061 L 33.333 57.641 33.821 57.154 L 34.308 56.667 42.086 56.667 C 49.152 56.667,49.910 56.693,50.352 56.954 M59.442 58.971 C 59.120 59.328,59.081 60.014,59.367 60.300 C 59.683 60.616,60.558 60.540,60.876 60.169 C 61.581 59.346,60.170 58.168,59.442 58.971 M73.537 58.926 C 72.823 59.426,73.177 60.500,74.056 60.500 C 74.715 60.500,75.000 60.246,75.000 59.659 C 75.000 58.829,74.228 58.442,73.537 58.926 M87.609 58.971 C 87.287 59.328,87.247 60.014,87.533 60.300 C 87.859 60.626,88.796 60.547,88.994 60.178 C 89.545 59.149,88.373 58.128,87.609 58.971 M95.571 60.721 C 95.525 60.842,95.508 61.649,95.535 62.513 L 95.583 64.083 96.333 64.083 L 97.083 64.083 97.131 62.292 L 97.178 60.500 96.417 60.500 C 95.939 60.500,95.625 60.582,95.571 60.721 M38.405 60.961 C 37.845 61.344,38.197 62.333,38.893 62.333 C 39.362 62.333,39.667 62.038,39.667 61.583 C 39.667 60.962,38.932 60.600,38.405 60.961 M42.721 62.375 C 42.440 62.673,41.907 63.442,41.536 64.083 C 40.360 66.116,39.910 66.382,39.135 65.500 C 38.134 64.359,36.884 65.326,35.597 68.235 L 35.185 69.167 42.256 69.167 L 49.326 69.167 49.127 68.708 C 47.902 65.887,44.781 61.833,43.833 61.833 C 43.371 61.833,43.114 61.958,42.721 62.375 M94.937 67.424 C 94.772 67.854,94.817 69.325,95.006 69.678 C 95.151 69.948,95.362 70.000,96.319 70.000 C 97.752 70.000,97.864 69.878,97.800 68.390 L 97.750 67.250 96.395 67.202 C 95.271 67.162,95.023 67.200,94.937 67.424 " stroke="none" fill="#1c6cc4" fill-rule="evenodd"></path><path id="path2" d="M43.635 27.291 C 44.947 27.320,47.047 27.319,48.302 27.291 C 49.557 27.263,48.483 27.240,45.917 27.240 C 43.350 27.240,42.323 27.263,43.635 27.291 M85.968 27.291 C 87.280 27.320,89.380 27.319,90.635 27.291 C 91.890 27.263,90.817 27.240,88.250 27.240 C 85.683 27.240,84.657 27.263,85.968 27.291 M93.247 46.667 C 93.247 57.163,93.267 61.456,93.292 56.208 C 93.316 50.960,93.316 42.373,93.292 37.125 C 93.267 31.877,93.247 36.171,93.247 46.667 M97.228 62.333 C 97.228 63.296,97.256 63.690,97.290 63.208 C 97.323 62.727,97.323 61.940,97.290 61.458 C 97.256 60.977,97.228 61.371,97.228 62.333 M58.833 66.042 C 58.833 66.110,60.165 66.152,61.792 66.135 C 64.768 66.102,64.417 66.041,60.791 65.960 C 59.714 65.936,58.833 65.973,58.833 66.042 M71.792 66.125 C 73.098 66.153,75.235 66.153,76.542 66.125 C 77.848 66.096,76.779 66.073,74.167 66.073 C 71.554 66.073,70.485 66.096,71.792 66.125 M95.875 70.119 C 96.127 70.158,96.540 70.158,96.792 70.119 C 97.044 70.081,96.837 70.050,96.333 70.050 C 95.829 70.050,95.623 70.081,95.875 70.119 " stroke="none" fill="#194e8a" fill-rule="evenodd"></path><path id="path3" d="M37.412 36.917 C 37.412 42.692,37.433 45.030,37.458 42.113 C 37.484 39.196,37.484 34.471,37.458 31.613 C 37.433 28.755,37.412 31.142,37.412 36.917 M51.579 38.333 C 51.579 44.521,51.600 47.052,51.625 43.958 C 51.650 40.865,51.650 35.802,51.625 32.708 C 51.600 29.615,51.579 32.146,51.579 38.333 M79.914 48.500 C 79.914 60.188,79.934 64.969,79.958 59.125 C 79.983 53.281,79.983 43.719,79.958 37.875 C 79.934 32.031,79.914 36.813,79.914 48.500 M69.081 46.750 C 69.081 57.200,69.101 61.500,69.125 56.305 C 69.149 51.109,69.149 42.559,69.125 37.305 C 69.101 32.050,69.081 36.300,69.081 46.750 M96.127 60.451 C 96.334 60.491,96.634 60.490,96.794 60.448 C 96.953 60.406,96.783 60.374,96.417 60.375 C 96.050 60.377,95.920 60.411,96.127 60.451 " stroke="none" fill="#1a549c" fill-rule="evenodd"></path><path id="path4" d="M40.745 37.167 C 40.745 42.438,40.766 44.594,40.792 41.958 C 40.817 39.323,40.817 35.010,40.792 32.375 C 40.766 29.740,40.745 31.896,40.745 37.167 M260.375 35.286 C 260.627 35.324,261.040 35.324,261.292 35.286 C 261.544 35.248,261.337 35.217,260.833 35.217 C 260.329 35.217,260.123 35.248,260.375 35.286 M97.542 36.948 C 97.702 36.990,97.965 36.990,98.125 36.948 C 98.285 36.906,98.154 36.872,97.833 36.872 C 97.513 36.872,97.381 36.906,97.542 36.948 M0.881 53.417 C 0.882 53.875,0.915 54.043,0.953 53.789 C 0.991 53.536,0.990 53.161,0.951 52.956 C 0.911 52.751,0.880 52.958,0.881 53.417 M0.879 58.667 C 0.879 59.079,0.911 59.248,0.951 59.042 C 0.991 58.835,0.991 58.498,0.951 58.292 C 0.911 58.085,0.879 58.254,0.879 58.667 M95.961 67.121 C 96.261 67.158,96.711 67.157,96.961 67.119 C 97.212 67.081,96.967 67.051,96.417 67.052 C 95.867 67.053,95.662 67.084,95.961 67.121 M398.405 73.167 C 398.405 75.412,398.429 76.331,398.458 75.208 C 398.487 74.085,398.487 72.248,398.458 71.125 C 398.429 70.002,398.405 70.921,398.405 73.167 M63.612 74.625 C 68.486 74.649,76.511 74.650,81.446 74.625 C 86.380 74.600,82.392 74.580,72.583 74.580 C 62.775 74.580,58.738 74.600,63.612 74.625 M92.542 74.621 C 92.885 74.657,93.448 74.657,93.792 74.621 C 94.135 74.585,93.854 74.556,93.167 74.556 C 92.479 74.556,92.198 74.585,92.542 74.621 " stroke="none" fill="#3e76b9" fill-rule="evenodd"></path><path id="path5" d="M97.627 36.285 C 97.834 36.324,98.134 36.323,98.294 36.281 C 98.453 36.239,98.283 36.207,97.917 36.209 C 97.550 36.211,97.420 36.245,97.627 36.285 M97.627 38.451 C 97.834 38.491,98.134 38.490,98.294 38.448 C 98.453 38.406,98.283 38.374,97.917 38.375 C 97.550 38.377,97.420 38.411,97.627 38.451 M97.627 39.118 C 97.834 39.158,98.134 39.156,98.294 39.115 C 98.453 39.073,98.283 39.040,97.917 39.042 C 97.550 39.044,97.420 39.078,97.627 39.118 M56.875 63.583 C 56.877 63.950,56.911 64.080,56.951 63.873 C 56.991 63.666,56.990 63.366,56.948 63.206 C 56.906 63.047,56.874 63.217,56.875 63.583 " stroke="none" fill="#1e5ca3" fill-rule="evenodd"></path><path id="path6" d="M97.627 34.118 C 97.834 34.158,98.134 34.156,98.294 34.115 C 98.453 34.073,98.283 34.040,97.917 34.042 C 97.550 34.044,97.420 34.078,97.627 34.118 M0.894 55.750 C 0.895 56.667,0.923 57.020,0.956 56.536 C 0.990 56.052,0.990 55.302,0.956 54.869 C 0.921 54.437,0.894 54.833,0.894 55.750 M56.380 112.289 C 56.818 112.324,57.493 112.323,57.880 112.288 C 58.267 112.254,57.908 112.225,57.083 112.226 C 56.258 112.226,55.942 112.255,56.380 112.289 " stroke="none" fill="#2c75cd" fill-rule="evenodd"></path><path id="path7" d="M54.246 39.500 C 54.246 46.329,54.266 49.123,54.292 45.708 C 54.317 42.294,54.317 36.706,54.292 33.292 C 54.266 29.877,54.246 32.671,54.246 39.500 M163.081 56.583 C 163.081 67.950,163.101 72.575,163.125 66.862 C 163.149 61.149,163.149 51.849,163.125 46.195 C 163.101 40.542,163.081 45.217,163.081 56.583 M259.877 77.953 C 260.131 77.991,260.506 77.990,260.711 77.951 C 260.916 77.911,260.708 77.880,260.250 77.881 C 259.792 77.882,259.624 77.915,259.877 77.953 M330.958 77.951 C 331.165 77.991,331.502 77.991,331.708 77.951 C 331.915 77.911,331.746 77.879,331.333 77.879 C 330.921 77.879,330.752 77.911,330.958 77.951 M365.292 77.951 C 365.498 77.991,365.835 77.991,366.042 77.951 C 366.248 77.911,366.079 77.879,365.667 77.879 C 365.254 77.879,365.085 77.911,365.292 77.951 " stroke="none" fill="#545454" fill-rule="evenodd"></path><path id="path8" d="M65.748 48.333 C 65.748 60.112,65.767 64.931,65.792 59.042 C 65.816 53.152,65.816 43.515,65.792 37.625 C 65.767 31.735,65.748 36.554,65.748 48.333 M68.414 48.417 C 68.414 60.150,68.434 64.925,68.458 59.029 C 68.483 53.132,68.483 43.532,68.458 37.695 C 68.434 31.859,68.414 36.683,68.414 48.417 M93.914 48.333 C 93.914 60.021,93.934 64.802,93.958 58.958 C 93.983 53.115,93.983 43.552,93.958 37.708 C 93.934 31.865,93.914 36.646,93.914 48.333 M79.247 46.750 C 79.247 57.292,79.267 61.580,79.292 56.279 C 79.316 50.978,79.316 42.353,79.292 37.112 C 79.267 31.871,79.247 36.208,79.247 46.750 M54.912 40.167 C 54.912 46.996,54.933 49.790,54.958 46.375 C 54.983 42.960,54.983 37.373,54.958 33.958 C 54.933 30.544,54.912 33.337,54.912 40.167 M83.081 46.667 C 83.081 57.071,83.101 61.327,83.125 56.125 C 83.149 50.923,83.149 42.410,83.125 37.208 C 83.101 32.006,83.081 36.262,83.081 46.667 M97.627 32.451 C 97.834 32.491,98.134 32.490,98.294 32.448 C 98.453 32.406,98.283 32.374,97.917 32.375 C 97.550 32.377,97.420 32.411,97.627 32.451 M97.627 40.785 C 97.834 40.824,98.134 40.823,98.294 40.781 C 98.453 40.739,98.283 40.707,97.917 40.709 C 97.550 40.711,97.420 40.745,97.627 40.785 M51.075 64.083 C 51.075 67.383,51.097 68.757,51.125 67.136 C 51.152 65.515,51.152 62.815,51.125 61.136 C 51.098 59.457,51.075 60.783,51.075 64.083 M57.666 69.958 C 57.666 70.027,58.848 70.064,60.291 70.040 C 65.149 69.961,65.608 69.901,61.625 69.867 C 59.448 69.849,57.667 69.890,57.666 69.958 M85.552 69.958 C 87.093 69.986,89.568 69.986,91.052 69.958 C 92.536 69.930,91.275 69.908,88.250 69.908 C 85.225 69.908,84.011 69.931,85.552 69.958 M71.552 70.125 C 73.093 70.152,75.568 70.152,77.052 70.125 C 78.536 70.097,77.275 70.075,74.250 70.075 C 71.225 70.075,70.011 70.097,71.552 70.125 M38.553 71.458 C 40.645 71.485,44.020 71.485,46.053 71.458 C 48.086 71.432,46.375 71.410,42.250 71.410 C 38.125 71.410,36.461 71.432,38.553 71.458 M112.372 75.000 C 112.372 75.321,112.406 75.452,112.448 75.292 C 112.490 75.131,112.490 74.869,112.448 74.708 C 112.406 74.548,112.372 74.679,112.372 75.000 M90.792 75.284 C 90.998 75.324,91.335 75.324,91.542 75.284 C 91.748 75.245,91.579 75.212,91.167 75.212 C 90.754 75.212,90.585 75.245,90.792 75.284 " stroke="none" fill="#1c5dac" fill-rule="evenodd"></path></g></svg>