<svg width="242.00000000000003" height="68" xmlns="http://www.w3.org/2000/svg" version="1.1">

 <g>
  <title>Layer 1</title>
  <path stroke="null" fill-rule="evenodd" fill="#046bcb" d="m16.33498,2.86444c-6.54133,0.8032 -11.31276,5.67535 -12.148,12.40505c-0.24397,1.9694 -0.23873,35.96654 0.00654,37.71814c0.93532,6.69046 5.35485,11.23231 11.93347,12.26377c1.77906,0.27929 36.35244,0.31919 38.32119,0.04448c2.90733,-0.40552 4.8231,-1.22311 7.30005,-3.11336c1.88241,-1.43699 3.81322,-4.42019 4.47513,-6.9135c0.59913,-2.25915 0.59389,-2.07013 0.59389,-21.2402c0,-21.21012 0.07326,-20.02822 -1.45138,-23.41367c-1.8242,-4.04933 -6.09657,-7.14831 -10.64888,-7.72585c-1.45203,-0.18379 -36.89728,-0.20669 -38.38202,-0.02485m39.12438,13.31813c0.41206,0.11773 0.83132,0.47355 1.06155,0.89934c0.22762,0.42253 0.2335,3.33771 0.00589,3.14868c-0.29106,-0.24201 -2.30036,-0.10727 -2.30036,0.15436c0,0.20538 0.0726,0.21846 1.22703,0.21846l1.22638,0l0,0.87187l0,0.87187l-1.22638,0c-1.15443,0 -1.22703,0.01308 -1.22703,0.21846c0,0.26163 2.0093,0.39637 2.30036,0.15436c0.12885,-0.10661 0.1524,0.01701 0.15305,0.78619l0,0.91242l-1.22638,0c-1.15443,0 -1.22703,0.01308 -1.22703,0.2178c0,0.26163 2.0093,0.39637 2.30036,0.15436c0.12885,-0.10661 0.1524,0.03074 0.1524,0.88168c0,0.85029 -0.02355,0.98764 -0.1524,0.88103c-0.29106,-0.24201 -2.30036,-0.10727 -2.30036,0.15436c0,0.26163 2.0093,0.39637 2.30036,0.15436c0.12885,-0.10661 0.1524,0.03074 0.1524,0.88103c0,0.85094 -0.02355,0.9883 -0.1524,0.88168c-0.29106,-0.24201 -2.30036,-0.10727 -2.30036,0.15436c0,0.20472 0.0726,0.2178 1.22769,0.2178l1.22834,0l-0.00392,8.81422c-0.00262,5.98211 -0.04121,8.88421 -0.11969,9.03006c-0.41206,0.77049 -0.97195,1.0694 -2.00145,1.0694l-0.71228,0l0,1.25319l0,1.25385l-1.77122,0l-1.77187,0.00065l0.03401,-1.25385l0.03401,-1.25385l-12.07802,0l-12.07867,0l0.54418,-0.36759c0.52195,-0.35254 1.46969,-1.32383 1.46969,-1.50632c0,-0.04906 4.21808,-0.0883 9.37345,-0.0883l9.37345,0l0.35581,-0.31853l0.35581,-0.31788l0.03074,-13.17228c0.0327,-14.19785 0.05102,-13.52743 -0.38525,-13.93165l-0.29695,-0.27602l-14.55432,0.00196c-8.00448,0.00065 -14.6557,0.02878 -14.78063,0.06214c-0.5952,0.15959 -0.59128,0.10727 -0.59128,7.4034c0,6.6329 -0.00262,6.72513 -0.2178,6.78138c-0.11969,0.0314 -0.2178,0.09092 -0.2178,0.13278c0,0.04121 -0.18641,0.15698 -0.41337,0.25705c-0.22696,0.10073 -0.51017,0.2734 -0.62921,0.38459c-0.11969,0.11054 -0.35058,0.2891 -0.5141,0.39571l-0.29695,0.19491l0,-7.95412c0,-5.67666 0.03597,-8.06008 0.12493,-8.32432c0.16417,-0.48859 0.66257,-0.97783 1.10276,-1.08248c0.52391,-0.12427 38.97918,-0.12754 39.41283,-0.00262m-31.35733,3.31155c0.24331,0.1851 0.22827,-0.26686 0.21388,6.38174l-0.01308,5.92651l-0.29956,-0.06606c-1.72085,-0.37871 -2.09498,-0.4173 -3.51562,-0.35974c-0.80974,0.0327 -1.58219,0.09288 -1.71693,0.13408l-0.24528,0.07391l-0.01635,-5.79046c-0.00916,-3.18466 -0.02158,-5.83756 -0.02747,-5.89511c-0.00589,-0.05756 0.06148,-0.20472 0.14978,-0.32703c0.19753,-0.27471 5.12004,-0.34469 5.47062,-0.07783m7.34911,0.01112c0.2819,0.2819 0.22827,22.7995 -0.05494,22.95059c-0.45065,0.24135 -1.52856,0.14324 -1.45988,-0.13212c0.20342,-0.82086 0.10138,-3.70268 -0.15828,-4.44243c-0.0314,-0.08961 -0.06933,-0.21911 -0.08372,-0.28779c-0.04644,-0.21388 -0.84179,-1.94389 -0.92027,-2.00145c-0.04186,-0.02943 -0.24593,-0.30414 -0.45458,-0.60959c-0.50952,-0.74695 -1.10865,-1.38139 -1.65414,-1.75356c-0.93336,-0.63706 -0.83982,0.15763 -0.83459,-7.10972c0.00458,-5.99388 0.01897,-6.48835 0.1923,-6.62048c0.28583,-0.2165 5.21031,-0.21061 5.42811,0.00654m7.30398,0c0.27863,0.27863 0.23416,22.71578 -0.04513,22.91135c-0.2976,0.20865 -5.01932,0.23023 -5.34831,0.02485l-0.22892,-0.14324l0,-11.26305c0,-7.55579 0.03728,-11.33304 0.11315,-11.47497c0.14978,-0.27994 5.2332,-0.33096 5.50921,-0.05494m7.32622,0.01374l0.24201,0.17006l-0.00327,11.24932c-0.00327,8.94765 -0.03205,11.2866 -0.14259,11.4318c-0.12296,0.16155 -0.43496,0.18445 -2.62935,0.19491c-1.36962,0.00654 -2.52797,0.03467 -2.57441,0.06344c-0.04578,0.02812 -0.18576,-0.07783 -0.31003,-0.23677c-0.27536,-0.34993 -0.36889,-22.4208 -0.09615,-22.69354c0.07195,-0.07195 0.08437,-0.13147 0.02747,-0.13212c-0.0569,-0.00131 -0.03009,-0.04906 0.05952,-0.10727c0.2976,-0.1923 5.14294,-0.13801 5.4268,0.06017m-23.90422,12.64771c2.46714,0.28452 4.99446,2.05704 6.16394,4.32339c1.19433,2.31475 1.31926,5.15602 0.31853,7.23072c-0.11773,0.24397 -0.21453,0.48924 -0.21453,0.54484c-0.00131,0.22304 -1.0524,1.64498 -1.61947,2.19047c-0.48205,0.46439 -2.14011,1.52332 -2.68626,1.71627c-0.29956,0.10596 -0.61875,0.21977 -0.70836,0.25312c-0.09026,0.03336 -0.23743,0.07587 -0.32703,0.09419c-0.09026,0.01897 -0.38394,0.08307 -0.65407,0.14389c-1.80588,0.40356 -4.66939,-0.18641 -6.0704,-1.25189c-0.44346,-0.3375 -0.46766,-0.33488 -0.89019,0.10073c-0.32115,0.33096 -0.34142,0.39113 -0.22238,0.65211c0.11904,0.26163 0.10203,0.31003 -0.18576,0.53241c-0.17398,0.13474 -0.95429,0.86402 -1.73393,1.62078c-4.37441,4.24817 -3.76024,3.84134 -4.51961,2.99629c-0.21257,-0.23546 -0.68023,-0.72798 -1.03997,-1.09491l-0.65407,-0.66584l1.07725,-1.03081c0.59259,-0.56708 1.74505,-1.67507 2.56198,-2.46126c2.25196,-2.16954 2.26569,-2.18001 2.5162,-1.95305c0.19884,0.18052 0.225,0.17137 0.60567,-0.2093c0.3617,-0.3617 0.44934,-0.71359 0.17856,-0.71359c-0.11512,0 -0.79862,-1.38074 -0.99876,-2.01649c-0.07522,-0.24004 -0.17398,-0.48532 -0.21846,-0.54549c-0.19818,-0.2649 -0.30676,-2.5489 -0.16417,-3.45544c0.04055,-0.2577 0.09288,-0.59324 0.11642,-0.74498c0.05167,-0.32965 0.95429,-2.36053 1.15901,-2.60711c0.07849,-0.09549 0.28779,-0.36824 0.46373,-0.60698c0.1766,-0.23873 0.42645,-0.53241 0.5553,-0.65211c0.60174,-0.56054 1.03147,-0.92681 1.08575,-0.92681c0.0641,0 0.94513,-0.55792 1.03604,-0.65603c0.13474,-0.14455 1.91446,-0.68285 2.68822,-0.81301c0.81562,-0.13735 1.14527,-0.1367 2.38081,0.00589m-1.58088,0.51475c-0.02943,0.02747 -0.3133,0.07718 -0.62921,0.10988c-1.84186,0.19164 -3.79556,1.33495 -4.97157,2.90995c-0.24593,0.32965 -0.48336,0.62594 -0.52652,0.65799c-0.15174,0.11315 -0.85748,1.74702 -0.79731,1.84447c0.03336,0.05429 0.01635,0.12624 -0.03859,0.16025c-0.38655,0.23873 -0.38328,3.0303 0.00523,4.31423c0.46308,1.53117 1.69796,3.19054 3.07935,4.13763c0.57296,0.39244 2.23691,1.13808 2.3311,1.04389c0.03074,-0.03074 0.12296,-0.00131 0.20407,0.06606c0.21061,0.17529 2.49265,0.24985 3.08785,0.10138c0.74433,-0.18641 0.77442,-0.19491 1.41737,-0.42187c0.57493,-0.20211 1.41213,-0.62529 1.52594,-0.77049c0.03009,-0.03859 0.25574,-0.20603 0.50167,-0.37216c0.24528,-0.16679 0.59782,-0.48532 0.78357,-0.70836c0.70181,-0.84506 0.99745,-1.24862 1.06155,-1.45072c0.03663,-0.11446 0.10203,-0.20865 0.14586,-0.20865c0.06279,0 0.32115,-0.56315 0.40094,-0.87187c0.00719,-0.03009 0.06671,-0.18183 0.13147,-0.33685c0.11969,-0.28648 0.14847,-0.42645 0.3702,-1.79215c0.18052,-1.10668 -0.48859,-4.30246 -0.90065,-4.30246c-0.05298,0 -0.08372,-0.04382 -0.06868,-0.0968c0.06214,-0.22173 -1.76402,-2.41089 -2.01126,-2.41089c-0.05298,0 -0.20014,-0.0968 -0.32703,-0.21453c-0.7633,-0.71097 -4.37244,-1.7601 -4.77535,-1.38793m31.56728,2.75493c-0.22173,0.22107 -0.2577,3.95057 -0.04055,4.16772c0.07522,0.07522 0.43561,0.13081 0.85029,0.13081c1.00661,0 0.9811,0.05821 0.9811,-2.23495c0,-1.38924 -0.03924,-2.01191 -0.13081,-2.10414c-0.19949,-0.19884 -1.45072,-0.16875 -1.66002,0.04055m-16.67219,1.53314c-0.74106,0.74171 0.09157,1.77449 1.0367,1.28524c0.18248,-0.09419 0.30414,-0.19884 0.27078,-0.23219c-0.03336,-0.03336 -0.01439,-0.14782 0.04317,-0.25443c0.39702,-0.74237 -0.73648,-1.41213 -1.35065,-0.79862m7.26081,0.01962c-0.29891,0.44477 -0.29302,0.80777 0.01831,1.14331c0.67565,0.72929 1.71562,-0.02551 1.32449,-0.96083c-0.2335,-0.55923 -1.01838,-0.66584 -1.3428,-0.18248m-17.36681,0.19818c0.35908,0.45654 0.35123,6.71924 -0.00916,7.03123c-0.21977,0.19099 -0.4899,0.20342 -4.40842,0.20342l-4.17426,0l-0.1694,-0.24201c-0.31003,-0.4428 -0.24855,-6.76175 0.06868,-7.05739c0.23154,-0.21519 0.36301,-0.22238 4.35282,-0.22238l4.11343,0l0.22631,0.28714m-6.41968,1.99425c-0.13016,0.24331 -0.05494,0.51017 0.1681,0.59586c0.22762,0.08765 0.46439,-0.03336 0.54091,-0.27602c0.14324,-0.45131 -0.48663,-0.73517 -0.70901,-0.31984m2.5561,0.34731c-0.12035,0.05887 -0.32049,0.26424 -0.44411,0.45654c-0.12362,0.19164 -0.40094,0.62398 -0.61613,0.96083c-0.42645,0.66453 -0.77965,0.86075 -0.95625,0.53045c-0.12885,-0.24135 -0.46635,-0.36432 -0.75152,-0.2734c-0.36824,0.11642 -1.42718,1.73851 -1.42718,2.18524c0,0.02878 1.66787,0.05233 3.70595,0.05233c2.03873,0 3.7066,-0.01831 3.7066,-0.04055c0,-0.16025 -0.52783,-1.19237 -0.81628,-1.59462c-0.19295,-0.26948 -0.48009,-0.71097 -0.63772,-0.9811c-0.65014,-1.11126 -1.24404,-1.54818 -1.76337,-1.29571m29.81634,2.49527c-0.19687,0.19622 -0.21846,0.36301 -0.21846,1.68946c0,1.96874 -0.06083,1.90792 1.90203,1.90792c1.8726,0 1.80457,0.0726 1.80457,-1.93212c0,-1.93473 0.05036,-1.88372 -1.85297,-1.88372c-1.27216,0 -1.4396,0.02289 -1.63517,0.21846m-32.15856,7.35826c0.50952,0.08961 1.27674,0.16286 1.70516,0.16286l0.77834,0.00065l0.04382,0.37805c0.05756,0.49317 0.05625,0.49382 -1.88241,0.49382l-1.62601,0l0,-0.59978c0,-0.32965 0.01243,-0.59913 0.02747,-0.59913c0.01504,0 0.44411,0.07326 0.95363,0.16352" id="path1"/>
  <path fill-rule="evenodd" fill="#3c8cd4" id="path4"/>
  <path fill-rule="evenodd" fill="#1c7ccd" id="path6"/>
  <path fill-rule="evenodd" fill="#687c68" id="path8"/>
  <path stroke="null" fill-rule="evenodd" fill="#4c4c4c" d="m146.83166,19.31605c-1.48523,0.24163 -3.70539,1.0495 -4.38475,1.59634c-1.6606,1.33731 -2.05617,1.76033 -2.61505,2.79644c-1.27306,2.36138 -1.2001,5.64174 0.17068,7.6524c1.21951,1.78911 3.11772,2.90487 6.71802,3.94835c3.09563,0.89757 3.91221,1.18337 5.28365,1.84667c4.34995,2.10436 3.02067,6.83716 -2.08562,7.4255c-3.21276,0.37081 -6.20598,-0.9558 -7.66645,-3.3975c-0.48995,-0.81925 -0.27175,-0.87882 -3.68932,1.0147l-0.51605,0.2858l0.34203,0.56558c1.07628,1.77706 2.50595,3.11705 4.5735,4.28502c1.73021,0.97855 5.26759,1.56354 7.47369,1.23691c2.28642,-0.33935 2.94369,-0.52074 4.30711,-1.19006c2.77971,-1.36475 4.18529,-3.69535 4.18998,-6.94626c0.00469,-3.29442 -1.42834,-5.48111 -4.51527,-6.8887c-0.85874,-0.39156 -1.34133,-0.58566 -1.45511,-0.58566c-0.07095,0 -0.28714,-0.07095 -0.48058,-0.15729c-0.19344,-0.08701 -0.72756,-0.26706 -1.18805,-0.40093c-0.45983,-0.13387 -0.98725,-0.28781 -1.17132,-0.34136c-0.18406,-0.05422 -0.71082,-0.20548 -1.17132,-0.33667c-3.62239,-1.0321 -4.95903,-1.88884 -5.45567,-3.49722c-1.17935,-3.81716 4.23415,-6.47974 8.67111,-4.26561c0.65728,0.32797 2.13849,1.44775 2.13983,1.61709c0,0.0415 0.13855,0.22623 0.30789,0.4103c0.16934,0.18406 0.39825,0.47589 0.50936,0.64858c0.13788,0.21552 0.2423,0.28179 0.33265,0.21017c0.07296,-0.05689 0.35809,-0.23025 0.63452,-0.38486c0.58767,-0.32864 2.67329,-1.60437 2.75294,-1.68402c0.03012,-0.03012 -0.19946,-0.43171 -0.5107,-0.89288c-1.68737,-2.5006 -3.91355,-3.93496 -7.03929,-4.53669c-0.49664,-0.09504 -3.92292,-0.12115 -4.46239,-0.03414m-59.23529,14.59397l0,14.22316l2.17464,0l2.17531,0l0.02811,-10.34375l0.02878,-10.34308l0.8902,1.3353c0.48995,0.73425 0.91965,1.36074 0.95446,1.39153c0.0348,0.03012 0.1834,0.25635 0.33065,0.50199c0.14658,0.24497 0.2945,0.47121 0.32864,0.50199c0.03414,0.03012 1.21483,1.7871 2.62442,3.90417c1.4096,2.11708 2.60167,3.89882 2.64919,3.9604c0.04685,0.06091 1.10773,1.64252 2.35603,3.51396c1.24896,1.87076 2.59364,3.87874 2.98854,4.46172l0.71752,1.06021l2.0883,0.03012l2.08763,0.03012l0,-14.22517l0,-14.22584l-2.17464,0l-2.17464,0l-0.02811,10.34375c-0.02276,8.22601 -0.05689,10.31029 -0.16666,10.17977c-0.07563,-0.09103 -1.20545,-1.77103 -2.50997,-3.73484c-1.30452,-1.96313 -2.39953,-3.59495 -2.43367,-3.62507c-0.03414,-0.03079 -0.18273,-0.25702 -0.33132,-0.50199c-0.14792,-0.24564 -0.30856,-0.49664 -0.35675,-0.55822c-0.04819,-0.06091 -1.8788,-2.80983 -4.06816,-6.10759l-3.97981,-5.99582l-2.099,0l-2.09967,0l0,14.22316m34.80425,-13.41462c-0.14591,0.4451 -0.33065,0.93438 -0.4103,1.08765c-0.07965,0.15394 -0.14524,0.34269 -0.14591,0.42034c-0.00067,0.07697 -0.04685,0.22757 -0.10375,0.33466c-0.05622,0.10642 -0.54015,1.39822 -1.07494,2.87074c-0.53479,1.47252 -1.03612,2.8279 -1.11376,3.01196c-0.07764,0.18406 -0.2771,0.73626 -0.44309,1.22687c-0.16599,0.49128 -0.36545,1.04348 -0.44376,1.22754c-0.25167,0.59436 -1.52807,4.08422 -1.63449,4.46842c-0.05622,0.20481 -0.17603,0.51337 -0.26572,0.68539c-0.08969,0.17135 -0.16332,0.39691 -0.16332,0.50066c-0.00067,0.10375 -0.05087,0.21954 -0.11245,0.25769c-0.06158,0.03815 -0.11178,0.14591 -0.11178,0.24096c0,0.09437 -0.06961,0.32998 -0.15528,0.52274c-0.08567,0.19344 -0.66933,1.75765 -1.29648,3.47514c-0.62783,1.71816 -1.21081,3.2817 -1.29514,3.47514c-0.08433,0.19344 -0.15328,0.40762 -0.15328,0.47589c0,0.06827 -0.04618,0.21084 -0.10241,0.31793c-0.05689,0.10642 -0.3032,0.74563 -0.54885,1.42031c-0.24497,0.67535 -0.48058,1.31589 -0.52341,1.42499c-0.07363,0.1854 0.06091,0.19544 2.24893,0.16733l2.32724,-0.03012l0.14123,-0.44644c0.07831,-0.24564 0.18607,-0.54684 0.24029,-0.66933c0.09638,-0.21954 0.52408,-1.41964 1.01336,-2.84463c0.13721,-0.39892 0.3186,-0.88351 0.4036,-1.07694c0.085,-0.19277 0.15461,-0.39022 0.15461,-0.43774c0,-0.0763 0.17469,-0.58298 0.85272,-2.47316l0.17001,-0.47455l5.04738,0l5.04738,0l0.11981,0.251c0.06559,0.13855 0.22958,0.57763 0.36411,0.97655c0.1352,0.39825 0.28446,0.82528 0.33332,0.94776c0.04819,0.12316 0.27175,0.75031 0.49731,1.39487c0.55152,1.57693 1.14388,3.24087 1.47921,4.15517l0.27576,0.75299l2.27704,0c1.25231,0 2.27704,-0.03079 2.27704,-0.06894c0,-0.03815 -0.49597,-1.40625 -1.10238,-3.04008c-0.60641,-1.63382 -1.13919,-3.0963 -1.18404,-3.24957c-0.04484,-0.15328 -0.14524,-0.42971 -0.22355,-0.61377c-0.07898,-0.18406 -0.62917,-1.66461 -1.22286,-3.2904c-0.59436,-1.62646 -1.1325,-3.08157 -1.19675,-3.23552c-0.06359,-0.15328 -0.21552,-0.57964 -0.33667,-0.94776c-0.12048,-0.36813 -0.28513,-0.81992 -0.36545,-1.00399c-0.07965,-0.18406 -0.63117,-1.66528 -1.22553,-3.29107c-0.59369,-1.62579 -1.64052,-4.47444 -2.32657,-6.32981l-1.24628,-3.37407l-2.23889,-0.00067l-2.23889,-0.00067l-0.26438,0.80854m38.17765,1.22754l0.03079,2.03542l4.26695,0.02945l4.26695,0.02945l0,12.15763l0,12.15829l2.17531,0l2.17531,0l0,-12.15963l0,-12.15896l4.23884,0l4.23884,0l0,-2.0642l0,-2.06353l-10.71121,0l-10.71188,0l0.03012,2.03609m66.68421,10.26277c0,14.5518 -0.03146,14.12946 1.16061,15.32086c0.78445,0.78378 1.47252,0.97655 3.66389,1.02608l1.86876,0.04217l0,-1.96112l0,-1.96179l-0.86477,-0.00335c-0.89823,-0.00402 -1.06824,-0.07095 -1.39956,-0.55152c-0.17603,-0.25568 -0.19009,-1.15057 -0.19009,-12.24263l0,-11.96754l-2.11908,0l-2.11975,0l0,12.29885m-101.92419,-5.38271c0.15328,0.4605 0.51337,1.48925 0.80051,2.28708c0.28714,0.79784 0.5716,1.60103 0.63251,1.78509c0.06091,0.18406 0.15194,0.43506 0.20214,0.55755c0.0502,0.12249 0.2771,0.75031 0.504,1.3942c0.2269,0.64456 0.4538,1.27172 0.504,1.39487c0.0502,0.12249 0.16532,0.44845 0.25568,0.72488c0.09103,0.27643 0.2008,0.58968 0.2443,0.69744c0.07496,0.1834 -0.13788,0.19477 -3.55479,0.19477l-3.63377,0l0.44376,-1.23959c0.2443,-0.68137 0.57227,-1.62244 0.7289,-2.09164c0.15662,-0.46853 0.33199,-0.95245 0.39089,-1.07494c0.05823,-0.12249 0.15127,-0.37348 0.20615,-0.55755c0.05488,-0.18406 0.33399,-0.98725 0.62046,-1.78509c0.28647,-0.79784 0.61846,-1.73824 0.73693,-2.08963c0.49999,-1.47787 0.49262,-1.47586 0.91831,-0.19745m65.39041,0.99462c-4.50724,1.0997 -6.89405,4.49519 -7.05134,10.03118c-0.23159,8.13565 5.55808,12.84636 12.88585,10.48431c5.59489,-1.80249 7.973,-9.7775 4.80107,-16.09928c-1.77237,-3.53337 -6.39273,-5.45099 -10.63558,-4.41621m21.1808,0.05622c-4.96907,1.21081 -7.71063,6.33784 -6.74546,12.61477c0.80988,5.26826 4.28904,8.41944 9.29894,8.42212c5.89943,0.00335 9.59746,-4.12304 9.59746,-10.70921c0,-7.53058 -5.26558,-12.00636 -12.15093,-10.32769m-17.23847,3.80645c5.21204,1.81521 5.07817,11.7895 -0.1767,13.15157c-2.25429,0.58432 -4.65516,-0.43506 -5.65312,-2.39886c-1.7871,-3.51931 -0.99395,-8.46094 1.63315,-10.17241c1.1151,-0.72622 3.02067,-0.98993 4.19667,-0.58031m21.45589,0.03882c3.26965,1.12514 4.68126,5.60895 3.1291,9.94082c-1.67666,4.67858 -7.97166,4.38676 -9.55127,-0.44242c-1.84265,-5.63304 1.8373,-11.07533 6.42218,-9.4984" id="svg_3"/>
  <path fill-rule="evenodd" fill="#1c64b4" d="m232.18074,299.46735l-0.49,0.542l0.542,-0.49c0.298,-0.269 0.542,-0.512 0.542,-0.541c0,-0.129 -0.138,-0.016 -0.594,0.489" id="svg_1"/>
 </g>
</svg>