<svg width="242" height="68" xmlns="http://www.w3.org/2000/svg" p-id="2594" version="1.1" class="icon" t="1662024851869">

 <g>
  <title>Layer 1</title>
  <text fill="#4a4a4a" stroke-width="0" stroke-opacity="null" x="97.26875" y="47.45312" id="svg_4" font-size="36" font-family="'Trebuchet MS', Gadget, sans-serif" text-anchor="start" xml:space="preserve" stroke="null" font-weight="bold">NASTool</text>
  <g stroke="null">
   <path stroke="null" fill="#1e293b" p-id="2564" d="m64.82135,7.05848l-51.61392,0c-2.84826,0 -5.17146,2.31601 -5.17865,5.15708c-0.02158,0.1942 -0.02877,0.39559 -0.02877,0.58979l0,43.70209c0,0.20139 0.00719,0.39559 0.02877,0.59698c0.01439,2.84107 2.33039,5.15708 5.17865,5.15708l0.33086,0c0.07193,0 0.14385,0.00719 0.21578,0.00719l2.08585,0c0.07193,0 0.14385,0 0.21578,-0.00719l48.76566,0c2.85545,0 5.17865,-2.3232 5.17865,-5.17865l0,-44.84571c0,-2.85545 -2.3232,-5.17865 -5.17865,-5.17865zm-15.82367,5.17865l0,44.8529l-10.96868,0l0,-44.8529l10.96868,0zm-34.2007,17.77285c-1.43132,0 -2.58933,-1.158 -2.58933,-2.58933s1.158,-2.58933 2.58933,-2.58933s2.58933,1.158 2.58933,2.58933s-1.158,2.58933 -2.58933,2.58933zm0,-8.50882c-1.43132,0 -2.58933,-1.158 -2.58933,-2.58933s1.158,-2.58933 2.58933,-2.58933s2.58933,1.158 2.58933,2.58933s-1.158,2.58933 -2.58933,2.58933zm6.76821,-9.26404l11.29234,0l0,44.8529l-11.29234,0c0.02158,-0.18701 0.02877,-0.38121 0.02877,-0.56821l0,-43.70928c0,-0.1942 -0.01439,-0.3884 -0.02877,-0.57541zm43.25615,44.8529l-10.64501,0l0,-44.8529l10.64501,0l0,44.8529z"/>
   <path stroke="null" fill="#1e293b" p-id="2565" d="m24.67239,16.28656l5.17865,0l0,8.63109l-5.17865,0l0,-8.63109zm16.25522,0l5.17865,0l0,8.63109l-5.17865,0l0,-8.63109zm15.92436,0l5.17865,0l0,8.63109l-5.17865,0l0,-8.63109z"/>
  </g>
 </g>
</svg>